<?xml version="1.0" encoding="us-ascii" standalone="no"?><svg xmlns="http://www.w3.org/2000/svg" xmlns:xlink="http://www.w3.org/1999/xlink" contentStyleType="text/css" height="752px" preserveAspectRatio="none" style="width:899px;height:752px;background:#FFFFFF;" version="1.1" viewBox="0 0 899 752" width="899px" zoomAndPan="magnify"><defs/><g><!--cluster Server Side--><g id="cluster_Server Side"><rect fill="none" height="436" rx="2.5" ry="2.5" style="stroke:#181818;stroke-width:1.0;" width="284" x="7" y="310"/><text fill="#000000" font-family="sans-serif" font-size="14" font-weight="bold" lengthAdjust="spacing" textLength="92" x="103" y="324.9951">Server Side</text></g><!--cluster Client Side--><g id="cluster_Client Side"><rect fill="none" height="254" rx="2.5" ry="2.5" style="stroke:#181818;stroke-width:1.0;" width="204" x="524" y="7"/><text fill="#000000" font-family="sans-serif" font-size="14" font-weight="bold" lengthAdjust="spacing" textLength="84" x="584" y="21.9951">Client Side</text></g><!--cluster External Services--><g id="cluster_External Services"><rect fill="none" height="114" rx="2.5" ry="2.5" style="stroke:#181818;stroke-width:1.0;" width="154" x="315" y="632"/><text fill="#000000" font-family="sans-serif" font-size="14" font-weight="bold" lengthAdjust="spacing" textLength="137" x="323.5" y="646.9951">External Services</text></g><!--cluster Monitoring Stack--><g id="cluster_Monitoring Stack"><rect fill="none" height="275" rx="2.5" ry="2.5" style="stroke:#181818;stroke-width:1.0;" width="206" x="493" y="471"/><text fill="#000000" font-family="sans-serif" font-size="14" font-weight="bold" lengthAdjust="spacing" textLength="132" x="530" y="485.9951">Monitoring Stack</text></g><!--entity pg--><g id="elem_pg"><rect fill="#F1F1F1" height="62.5938" rx="2.5" ry="2.5" style="stroke:#181818;stroke-width:0.5;" width="124" x="84" y="667"/><rect fill="#F1F1F1" height="10" style="stroke:#181818;stroke-width:0.5;" width="15" x="188" y="672"/><rect fill="#F1F1F1" height="2" style="stroke:#181818;stroke-width:0.5;" width="4" x="186" y="674"/><rect fill="#F1F1F1" height="2" style="stroke:#181818;stroke-width:0.5;" width="4" x="186" y="678"/><text fill="#000000" font-family="sans-serif" font-size="14" font-style="italic" lengthAdjust="spacing" textLength="84" x="99" y="699.9951">&#171;Database&#187;</text><text fill="#000000" font-family="sans-serif" font-size="14" lengthAdjust="spacing" textLength="81" x="100.5" y="716.292">PostgreSQL</text></g><!--entity docker--><g id="elem_docker"><rect fill="#F1F1F1" height="62.5938" rx="2.5" ry="2.5" style="stroke:#181818;stroke-width:0.5;" width="125" x="149.5" y="506"/><rect fill="#F1F1F1" height="10" style="stroke:#181818;stroke-width:0.5;" width="15" x="254.5" y="511"/><rect fill="#F1F1F1" height="2" style="stroke:#181818;stroke-width:0.5;" width="4" x="252.5" y="513"/><rect fill="#F1F1F1" height="2" style="stroke:#181818;stroke-width:0.5;" width="4" x="252.5" y="517"/><text fill="#000000" font-family="sans-serif" font-size="14" font-style="italic" lengthAdjust="spacing" textLength="85" x="164.5" y="538.9951">&#171;Container&#187;</text><text fill="#000000" font-family="sans-serif" font-size="14" lengthAdjust="spacing" textLength="50" x="182" y="555.292">Docker</text></g><!--entity fiber--><g id="elem_fiber"><rect fill="#F1F1F1" height="62.5938" rx="2.5" ry="2.5" style="stroke:#181818;stroke-width:0.5;" width="169" x="106.5" y="345"/><rect fill="#F1F1F1" height="10" style="stroke:#181818;stroke-width:0.5;" width="15" x="255.5" y="350"/><rect fill="#F1F1F1" height="2" style="stroke:#181818;stroke-width:0.5;" width="4" x="253.5" y="352"/><rect fill="#F1F1F1" height="2" style="stroke:#181818;stroke-width:0.5;" width="4" x="253.5" y="356"/><text fill="#000000" font-family="sans-serif" font-size="14" font-style="italic" lengthAdjust="spacing" textLength="129" x="121.5" y="377.9951">&#171;Web Framework&#187;</text><text fill="#000000" font-family="sans-serif" font-size="14" lengthAdjust="spacing" textLength="58" x="157" y="394.292">Go Fiber</text></g><!--entity orm--><g id="elem_orm"><rect fill="#F1F1F1" height="62.5938" rx="2.5" ry="2.5" style="stroke:#181818;stroke-width:0.5;" width="91" x="23.5" y="506"/><rect fill="#F1F1F1" height="10" style="stroke:#181818;stroke-width:0.5;" width="15" x="94.5" y="511"/><rect fill="#F1F1F1" height="2" style="stroke:#181818;stroke-width:0.5;" width="4" x="92.5" y="513"/><rect fill="#F1F1F1" height="2" style="stroke:#181818;stroke-width:0.5;" width="4" x="92.5" y="517"/><text fill="#000000" font-family="sans-serif" font-size="14" font-style="italic" lengthAdjust="spacing" textLength="51" x="38.5" y="538.9951">&#171;ORM&#187;</text><text fill="#000000" font-family="sans-serif" font-size="14" lengthAdjust="spacing" textLength="44" x="42" y="555.292">GORM</text></g><!--entity bs--><g id="elem_bs"><rect fill="#F1F1F1" height="62.5938" rx="2.5" ry="2.5" style="stroke:#181818;stroke-width:0.5;" width="172" x="540" y="42"/><rect fill="#F1F1F1" height="10" style="stroke:#181818;stroke-width:0.5;" width="15" x="692" y="47"/><rect fill="#F1F1F1" height="2" style="stroke:#181818;stroke-width:0.5;" width="4" x="690" y="49"/><rect fill="#F1F1F1" height="2" style="stroke:#181818;stroke-width:0.5;" width="4" x="690" y="53"/><text fill="#000000" font-family="sans-serif" font-size="14" font-style="italic" lengthAdjust="spacing" textLength="132" x="555" y="74.9951">&#171;internet browser&#187;</text><text fill="#000000" font-family="sans-serif" font-size="14" lengthAdjust="spacing" textLength="57" x="592.5" y="91.292">Browser</text></g><!--entity http--><g id="elem_http"><rect fill="#F1F1F1" height="62.5938" rx="2.5" ry="2.5" style="stroke:#181818;stroke-width:0.5;" width="122" x="552" y="182"/><rect fill="#F1F1F1" height="10" style="stroke:#181818;stroke-width:0.5;" width="15" x="654" y="187"/><rect fill="#F1F1F1" height="2" style="stroke:#181818;stroke-width:0.5;" width="4" x="652" y="189"/><rect fill="#F1F1F1" height="2" style="stroke:#181818;stroke-width:0.5;" width="4" x="652" y="193"/><text fill="#000000" font-family="sans-serif" font-size="14" font-style="italic" lengthAdjust="spacing" textLength="82" x="567" y="214.9951">&#171;API Client&#187;</text><text fill="#000000" font-family="sans-serif" font-size="14" lengthAdjust="spacing" textLength="80" x="568" y="231.292">HTTP Client</text></g><!--entity hub--><g id="elem_hub"><rect fill="#F1F1F1" height="62.5938" rx="2.5" ry="2.5" style="stroke:#181818;stroke-width:0.5;" width="122" x="331" y="667"/><rect fill="#F1F1F1" height="10" style="stroke:#181818;stroke-width:0.5;" width="15" x="433" y="672"/><rect fill="#F1F1F1" height="2" style="stroke:#181818;stroke-width:0.5;" width="4" x="431" y="674"/><rect fill="#F1F1F1" height="2" style="stroke:#181818;stroke-width:0.5;" width="4" x="431" y="678"/><text fill="#000000" font-family="sans-serif" font-size="14" font-style="italic" lengthAdjust="spacing" textLength="74" x="350" y="699.9951">&#171;Registry&#187;</text><text fill="#000000" font-family="sans-serif" font-size="14" lengthAdjust="spacing" textLength="82" x="346" y="716.292">Docker Hub</text></g><!--entity prometheus--><g id="elem_prometheus"><rect fill="#F1F1F1" height="62.5938" rx="2.5" ry="2.5" style="stroke:#181818;stroke-width:0.5;" width="173" x="509.5" y="506"/><rect fill="#F1F1F1" height="10" style="stroke:#181818;stroke-width:0.5;" width="15" x="662.5" y="511"/><rect fill="#F1F1F1" height="2" style="stroke:#181818;stroke-width:0.5;" width="4" x="660.5" y="513"/><rect fill="#F1F1F1" height="2" style="stroke:#181818;stroke-width:0.5;" width="4" x="660.5" y="517"/><text fill="#000000" font-family="sans-serif" font-size="14" font-style="italic" lengthAdjust="spacing" textLength="133" x="524.5" y="538.9951">&#171;Metrics Collector&#187;</text><text fill="#000000" font-family="sans-serif" font-size="14" lengthAdjust="spacing" textLength="85" x="548.5" y="555.292">Prometheus</text></g><!--entity grafana--><g id="elem_grafana"><rect fill="#F1F1F1" height="62.5938" rx="2.5" ry="2.5" style="stroke:#181818;stroke-width:0.5;" width="134" x="530" y="667"/><rect fill="#F1F1F1" height="10" style="stroke:#181818;stroke-width:0.5;" width="15" x="644" y="672"/><rect fill="#F1F1F1" height="2" style="stroke:#181818;stroke-width:0.5;" width="4" x="642" y="674"/><rect fill="#F1F1F1" height="2" style="stroke:#181818;stroke-width:0.5;" width="4" x="642" y="678"/><text fill="#000000" font-family="sans-serif" font-size="14" font-style="italic" lengthAdjust="spacing" textLength="94" x="545" y="699.9951">&#171;Dashboard&#187;</text><text fill="#000000" font-family="sans-serif" font-size="14" lengthAdjust="spacing" textLength="53" x="565.5" y="716.292">Grafana</text></g><!--link docker to pg--><g id="link_docker_pg"><path d="M199.27,569.16 C187.59,597.31 170.36,638.81 158.69,666.94 " fill="none" id="docker-pg" style="stroke:#181818;stroke-width:1.0;"/><text fill="#000000" font-family="sans-serif" font-size="13" lengthAdjust="spacing" textLength="51" x="187" y="612.0669">&#171;hosts&#187;</text></g><!--link fiber to orm--><g id="link_fiber_orm"><path d="M167.48,408.16 C145.87,436.31 114.03,477.81 92.45,505.94 " fill="none" id="fiber-orm" style="stroke:#181818;stroke-width:1.0;"/><text fill="#000000" font-family="sans-serif" font-size="13" lengthAdjust="spacing" textLength="46" x="145" y="451.0669">&#171;uses&#187;</text></g><!--link orm to pg--><g id="link_orm_pg"><path d="M69.07,569.35 C70.07,583.99 72.7,601.43 79,616 C87.07,634.66 100.74,652.46 113.63,666.64 " fill="none" id="orm-pg" style="stroke:#181818;stroke-width:1.0;"/><text fill="#000000" font-family="sans-serif" font-size="13" lengthAdjust="spacing" textLength="91" x="80" y="612.0669">&#171;connects to&#187;</text></g><!--link bs to http--><g id="link_bs_http"><path d="M623.11,105.13 C620.96,128 618.03,159.11 615.88,181.96 " fill="none" id="bs-http" style="stroke:#181818;stroke-width:1.0;"/><text fill="#000000" font-family="sans-serif" font-size="13" lengthAdjust="spacing" textLength="46" x="621" y="148.0669">&#171;uses&#187;</text></g><!--link http to fiber--><g id="link_http_fiber"><path d="M551.64,237.91 C477.57,266.17 352.83,313.76 271.21,344.9 " fill="none" id="http-fiber" style="stroke:#181818;stroke-width:1.0;"/><text fill="#000000" font-family="sans-serif" font-size="13" lengthAdjust="spacing" textLength="108" x="440" y="290.0669">&#171;HTTP requests&#187;</text></g><!--link docker to hub--><g id="link_docker_hub"><path d="M246.71,569.16 C278.58,597.31 325.56,638.81 357.4,666.94 " fill="none" id="docker-hub" style="stroke:#181818;stroke-width:1.0;"/><text fill="#000000" font-family="sans-serif" font-size="13" lengthAdjust="spacing" textLength="79" x="297" y="612.0669">&#171;pulls from&#187;</text></g><!--link fiber to prometheus--><g id="link_fiber_prometheus"><path d="M269.09,408.16 C340.8,436.31 446.51,477.81 518.15,505.94 " fill="none" id="fiber-prometheus" style="stroke:#181818;stroke-width:1.0;"/><text fill="#000000" font-family="sans-serif" font-size="13" lengthAdjust="spacing" textLength="121" x="382" y="451.0669">&#171;exposes metrics&#187;</text></g><!--link prometheus to grafana--><g id="link_prometheus_grafana"><path d="M596.19,569.16 C596.37,597.31 596.63,638.81 596.81,666.94 " fill="none" id="prometheus-grafana" style="stroke:#181818;stroke-width:1.0;"/><text fill="#000000" font-family="sans-serif" font-size="13" lengthAdjust="spacing" textLength="103" x="597" y="612.0669">&#171;provides data&#187;</text></g><!--link bs to grafana--><g id="link_bs_grafana"><path d="M670.42,105.04 C700.95,129.97 736,168.23 736,212.5 C736,212.5 736,212.5 736,538.5 C736,574.97 730.74,586.71 709,616 C694.02,636.18 672.61,653.46 652.51,666.86 " fill="none" id="bs-grafana" style="stroke:#181818;stroke-width:1.0;"/><text fill="#000000" font-family="sans-serif" font-size="13" lengthAdjust="spacing" textLength="154" x="737" y="381.0669">&#171;accesses dashboards&#187;</text></g><!--SRC=[TLDBJ-Cm4BxdLunwuSHbZwYg16M1bRQY4AGzL1piT4Yj9fumTdXejVzznnchj6d99Og_npm-9soTxmoR5YfgE_BeOna_6uI-RNuK1MCLZQ_bUr8Ylo53wTOuWRy5oBEJm6H98TQCvSFl2KodroOQQmBEPc02TFMOVKtL5Zanv-IZSHvPgUi16DDl2MwSLS4Vj70Z_U8xyLP5Bmaxqjm_BX9VNieYRej_1nFD6vUetqnqnVGUj2Ou7v4zHh1w26ffmrXqz_Iq1FLDmilbh_obWasCtQY9dn_9sZIGzkig32TQqNN1NM-JwIFMBaJ-p9Qz7JakoBj8x7mDPJJLzbHQJ2t63VOX6Iumigi2pAbfn8Po5jsETBHRDY_66qqwR2mPNgkcLYHrT0RvnWJPhwYz5sz7FXGhJVaPpizXrTNFS2566xb0OJOhLaEQYaba2lO11smus5Tbsm2H19UQETFZcZQeCaLmQAed2Skb4pW4oVZQexObrhkalfr5ib1rrpUDt4jPe4ht8ZaGxytwjMsrm8-Ef45eDPpKw3ubIVAoSqccDnbQVY7vznBRdcAPIcvO65Wvj-Jy7m00]--></g></svg>