<?xml version="1.0" encoding="UTF-8" standalone="no"?><svg xmlns="http://www.w3.org/2000/svg" xmlns:xlink="http://www.w3.org/1999/xlink" contentScriptType="application/ecmascript" contentStyleType="text/css" height="793px" preserveAspectRatio="none" style="width:463px;height:793px;" version="1.1" viewBox="0 0 463 793" width="463px" zoomAndPan="magnify"><defs><filter height="300%" id="f12pjaki2ojsah" width="300%" x="-1" y="-1"><feGaussianBlur result="blurOut" stdDeviation="2.0"/><feColorMatrix in="blurOut" result="blurOut2" type="matrix" values="0 0 0 0 0 0 0 0 0 0 0 0 0 0 0 0 0 0 .4 0"/><feOffset dx="4.0" dy="4.0" in="blurOut2" result="blurOut3"/><feBlend in="SourceGraphic" in2="blurOut3" mode="normal"/></filter></defs><g><text fill="#000000" font-family="sans-serif" font-size="18" lengthAdjust="spacing" textLength="396" x="32.75" y="27.4023">Diagramme d'activité - Fonctionnalité d'achat</text><ellipse cx="243.75" cy="41.1992" fill="#000000" filter="url(#f12pjaki2ojsah)" rx="10" ry="10" style="stroke:none;stroke-width:1.0;"/><rect fill="#FEFECE" filter="url(#f12pjaki2ojsah)" height="34.1328" rx="12.5" ry="12.5" style="stroke:#A80036;stroke-width:1.5;" width="190" x="148.75" y="71.1992"/><text fill="#000000" font-family="sans-serif" font-size="12" lengthAdjust="spacing" textLength="170" x="158.75" y="92.8008">Ajouter des articles à la carte</text><rect fill="#FEFECE" filter="url(#f12pjaki2ojsah)" height="34.1328" rx="12.5" ry="12.5" style="stroke:#A80036;stroke-width:1.5;" width="206" x="140.75" y="125.332"/><text fill="#000000" font-family="sans-serif" font-size="12" lengthAdjust="spacing" textLength="186" x="150.75" y="146.9336">Cliquer sur "Payer" dans la carte</text><rect fill="#FEFECE" filter="url(#f12pjaki2ojsah)" height="34.1328" rx="12.5" ry="12.5" style="stroke:#A80036;stroke-width:1.5;" width="195" x="146.25" y="179.4648"/><text fill="#000000" font-family="sans-serif" font-size="12" lengthAdjust="spacing" textLength="175" x="156.25" y="201.0664">Créer une nouvelle transaction</text><rect fill="#FEFECE" filter="url(#f12pjaki2ojsah)" height="34.1328" rx="12.5" ry="12.5" style="stroke:#A80036;stroke-width:1.5;" width="209" x="139.25" y="233.5977"/><text fill="#000000" font-family="sans-serif" font-size="12" lengthAdjust="spacing" textLength="189" x="149.25" y="255.1992">Calculer le total de la transaction</text><rect fill="#FEFECE" filter="url(#f12pjaki2ojsah)" height="34.1328" rx="12.5" ry="12.5" style="stroke:#A80036;stroke-width:1.5;" width="174" x="156.75" y="287.7305"/><text fill="#000000" font-family="sans-serif" font-size="12" lengthAdjust="spacing" textLength="154" x="166.75" y="309.332">Vérifier le stock disponible</text><polygon fill="#FEFECE" filter="url(#f12pjaki2ojsah)" points="201.75,341.8633,285.75,341.8633,297.75,353.8633,285.75,365.8633,201.75,365.8633,189.75,353.8633,201.75,341.8633" style="stroke:#A80036;stroke-width:1.5;"/><text fill="#000000" font-family="sans-serif" font-size="11" lengthAdjust="spacing" textLength="84" x="201.75" y="358.0205">Stock suffisant?</text><text fill="#000000" font-family="sans-serif" font-size="11" lengthAdjust="spacing" textLength="17" x="172.75" y="351.543">oui</text><text fill="#000000" font-family="sans-serif" font-size="11" lengthAdjust="spacing" textLength="21" x="297.75" y="351.543">non</text><rect fill="#FEFECE" filter="url(#f12pjaki2ojsah)" height="34.1328" rx="12.5" ry="12.5" style="stroke:#A80036;stroke-width:1.5;" width="113" x="69.5" y="375.8633"/><text fill="#000000" font-family="sans-serif" font-size="12" lengthAdjust="spacing" textLength="93" x="79.5" y="397.4648">Réduire le stock</text><rect fill="#FEFECE" filter="url(#f12pjaki2ojsah)" height="34.1328" rx="12.5" ry="12.5" style="stroke:#A80036;stroke-width:1.5;" width="164" x="44" y="429.9961"/><text fill="#000000" font-family="sans-serif" font-size="12" lengthAdjust="spacing" textLength="144" x="54" y="451.5977">Enregistrer la transaction</text><rect fill="#FEFECE" filter="url(#f12pjaki2ojsah)" height="34.1328" rx="12.5" ry="12.5" style="stroke:#A80036;stroke-width:1.5;" width="230" x="11" y="484.1289"/><text fill="#000000" font-family="sans-serif" font-size="12" lengthAdjust="spacing" textLength="210" x="21" y="505.7305">Afficher la confirmation de paiement</text><rect fill="#FEFECE" filter="url(#f12pjaki2ojsah)" height="34.1328" rx="12.5" ry="12.5" style="stroke:#A80036;stroke-width:1.5;" width="152" x="50" y="586.7393"/><text fill="#000000" font-family="sans-serif" font-size="12" lengthAdjust="spacing" textLength="132" x="60" y="608.3408">Alerter la maison mère</text><rect fill="#FEFECE" filter="url(#f12pjaki2ojsah)" height="34.1328" rx="12.5" ry="12.5" style="stroke:#A80036;stroke-width:1.5;" width="217" x="17.5" y="655.8721"/><text fill="#000000" font-family="sans-serif" font-size="12" lengthAdjust="spacing" textLength="197" x="27.5" y="677.4736">Envoyer notification de sous-stock</text><polygon fill="#FEFECE" filter="url(#f12pjaki2ojsah)" points="93,538.2617,159,538.2617,171,550.2617,159,562.2617,93,562.2617,81,550.2617,93,538.2617" style="stroke:#A80036;stroke-width:1.5;"/><text fill="#000000" font-family="sans-serif" font-size="11" lengthAdjust="spacing" textLength="17" x="130" y="572.8965">oui</text><text fill="#000000" font-family="sans-serif" font-size="11" lengthAdjust="spacing" textLength="66" x="93" y="554.4189">Stock faible?</text><text fill="#000000" font-family="sans-serif" font-size="11" lengthAdjust="spacing" textLength="21" x="171" y="547.9414">non</text><polygon fill="#FEFECE" filter="url(#f12pjaki2ojsah)" points="126,710.0049,138,722.0049,126,734.0049,114,722.0049,126,710.0049" style="stroke:#A80036;stroke-width:1.5;"/><ellipse cx="126" cy="765.0049" fill="#FFFFFF" filter="url(#f12pjaki2ojsah)" rx="11" ry="11" style="stroke:#000000;stroke-width:1.0;"/><ellipse cx="126" cy="765.0049" fill="#000000" rx="6" ry="6" style="stroke:#7F7F7F;stroke-width:1.0;"/><rect fill="#FEFECE" filter="url(#f12pjaki2ojsah)" height="34.1328" rx="12.5" ry="12.5" style="stroke:#A80036;stroke-width:1.5;" width="170" x="276.5" y="375.8633"/><text fill="#000000" font-family="sans-serif" font-size="12" lengthAdjust="spacing" textLength="150" x="286.5" y="397.4648">Afficher message d'erreur</text><rect fill="#FEFECE" filter="url(#f12pjaki2ojsah)" height="34.1328" rx="12.5" ry="12.5" style="stroke:#A80036;stroke-width:1.5;" width="112" x="305.5" y="429.9961"/><text fill="#000000" font-family="sans-serif" font-size="12" lengthAdjust="spacing" textLength="92" x="315.5" y="451.5977">Stock insuffisant</text><ellipse cx="361.5" cy="495.1289" fill="#FFFFFF" filter="url(#f12pjaki2ojsah)" rx="11" ry="11" style="stroke:#000000;stroke-width:1.0;"/><ellipse cx="361.5" cy="495.1289" fill="#000000" rx="6" ry="6" style="stroke:#7F7F7F;stroke-width:1.0;"/><line style="stroke:#A80036;stroke-width:1.5;" x1="243.75" x2="243.75" y1="51.1992" y2="71.1992"/><polygon fill="#A80036" points="239.75,61.1992,243.75,71.1992,247.75,61.1992,243.75,65.1992" style="stroke:#A80036;stroke-width:1.0;"/><line style="stroke:#A80036;stroke-width:1.5;" x1="243.75" x2="243.75" y1="105.332" y2="125.332"/><polygon fill="#A80036" points="239.75,115.332,243.75,125.332,247.75,115.332,243.75,119.332" style="stroke:#A80036;stroke-width:1.0;"/><line style="stroke:#A80036;stroke-width:1.5;" x1="243.75" x2="243.75" y1="159.4648" y2="179.4648"/><polygon fill="#A80036" points="239.75,169.4648,243.75,179.4648,247.75,169.4648,243.75,173.4648" style="stroke:#A80036;stroke-width:1.0;"/><line style="stroke:#A80036;stroke-width:1.5;" x1="243.75" x2="243.75" y1="213.5977" y2="233.5977"/><polygon fill="#A80036" points="239.75,223.5977,243.75,233.5977,247.75,223.5977,243.75,227.5977" style="stroke:#A80036;stroke-width:1.0;"/><line style="stroke:#A80036;stroke-width:1.5;" x1="243.75" x2="243.75" y1="267.7305" y2="287.7305"/><polygon fill="#A80036" points="239.75,277.7305,243.75,287.7305,247.75,277.7305,243.75,281.7305" style="stroke:#A80036;stroke-width:1.0;"/><line style="stroke:#A80036;stroke-width:1.5;" x1="126" x2="126" y1="409.9961" y2="429.9961"/><polygon fill="#A80036" points="122,419.9961,126,429.9961,130,419.9961,126,423.9961" style="stroke:#A80036;stroke-width:1.0;"/><line style="stroke:#A80036;stroke-width:1.5;" x1="126" x2="126" y1="464.1289" y2="484.1289"/><polygon fill="#A80036" points="122,474.1289,126,484.1289,130,474.1289,126,478.1289" style="stroke:#A80036;stroke-width:1.0;"/><line style="stroke:#A80036;stroke-width:1.5;" x1="126" x2="126" y1="620.8721" y2="655.8721"/><polygon fill="#A80036" points="122,645.8721,126,655.8721,130,645.8721,126,649.8721" style="stroke:#A80036;stroke-width:1.0;"/><line style="stroke:#A80036;stroke-width:1.5;" x1="126" x2="126" y1="562.2617" y2="586.7393"/><polygon fill="#A80036" points="122,576.7393,126,586.7393,130,576.7393,126,580.7393" style="stroke:#A80036;stroke-width:1.0;"/><line style="stroke:#A80036;stroke-width:1.5;" x1="171" x2="244.5" y1="550.2617" y2="550.2617"/><polygon fill="#A80036" points="240.5,628.3721,244.5,638.3721,248.5,628.3721,244.5,632.3721" style="stroke:#A80036;stroke-width:1.5;"/><line style="stroke:#A80036;stroke-width:1.5;" x1="244.5" x2="244.5" y1="550.2617" y2="722.0049"/><line style="stroke:#A80036;stroke-width:1.5;" x1="244.5" x2="138" y1="722.0049" y2="722.0049"/><polygon fill="#A80036" points="148,718.0049,138,722.0049,148,726.0049,144,722.0049" style="stroke:#A80036;stroke-width:1.0;"/><line style="stroke:#A80036;stroke-width:1.5;" x1="126" x2="126" y1="690.0049" y2="710.0049"/><polygon fill="#A80036" points="122,700.0049,126,710.0049,130,700.0049,126,704.0049" style="stroke:#A80036;stroke-width:1.0;"/><line style="stroke:#A80036;stroke-width:1.5;" x1="126" x2="126" y1="518.2617" y2="538.2617"/><polygon fill="#A80036" points="122,528.2617,126,538.2617,130,528.2617,126,532.2617" style="stroke:#A80036;stroke-width:1.0;"/><line style="stroke:#A80036;stroke-width:1.5;" x1="126" x2="126" y1="734.0049" y2="754.0049"/><polygon fill="#A80036" points="122,744.0049,126,754.0049,130,744.0049,126,748.0049" style="stroke:#A80036;stroke-width:1.0;"/><line style="stroke:#A80036;stroke-width:1.5;" x1="361.5" x2="361.5" y1="409.9961" y2="429.9961"/><polygon fill="#A80036" points="357.5,419.9961,361.5,429.9961,365.5,419.9961,361.5,423.9961" style="stroke:#A80036;stroke-width:1.0;"/><line style="stroke:#A80036;stroke-width:1.5;" x1="361.5" x2="361.5" y1="464.1289" y2="484.1289"/><polygon fill="#A80036" points="357.5,474.1289,361.5,484.1289,365.5,474.1289,361.5,478.1289" style="stroke:#A80036;stroke-width:1.0;"/><line style="stroke:#A80036;stroke-width:1.5;" x1="189.75" x2="126" y1="353.8633" y2="353.8633"/><line style="stroke:#A80036;stroke-width:1.5;" x1="126" x2="126" y1="353.8633" y2="375.8633"/><polygon fill="#A80036" points="122,365.8633,126,375.8633,130,365.8633,126,369.8633" style="stroke:#A80036;stroke-width:1.0;"/><line style="stroke:#A80036;stroke-width:1.5;" x1="297.75" x2="361.5" y1="353.8633" y2="353.8633"/><line style="stroke:#A80036;stroke-width:1.5;" x1="361.5" x2="361.5" y1="353.8633" y2="375.8633"/><polygon fill="#A80036" points="357.5,365.8633,361.5,375.8633,365.5,365.8633,361.5,369.8633" style="stroke:#A80036;stroke-width:1.0;"/><line style="stroke:#A80036;stroke-width:1.5;" x1="243.75" x2="243.75" y1="321.8633" y2="341.8633"/><polygon fill="#A80036" points="239.75,331.8633,243.75,341.8633,247.75,331.8633,243.75,335.8633" style="stroke:#A80036;stroke-width:1.0;"/><!--MD5=[d2f2cf7b4ece9b5968b00c4dcf077519]
@startuml
title Diagramme d'activité - Fonctionnalité d'achat

start

:Ajouter des articles à la carte;

:Cliquer sur "Payer" dans la carte;

:Créer une nouvelle transaction;

:Calculer le total de la transaction;

:Vérifier le stock disponible;

if (Stock suffisant?) then (oui)
  :Réduire le stock;
  
  :Enregistrer la transaction;
  
  :Afficher la confirmation de paiement;
  
  if (Stock faible?) then (oui)
    :Alerter la maison mère;
    
    :Envoyer notification de sous-stock;
  else (non)
  endif
  
  stop
else (non)
  :Afficher message d'erreur;
  
  :Stock insuffisant;
  
  stop
endif

@enduml

PlantUML version 1.2021.00(Sun Jan 10 05:25:05 EST 2021)
(MIT source distribution)
Java Runtime: OpenJDK Runtime Environment
JVM: OpenJDK 64-Bit Server VM
Default Encoding: UTF-8
Language: fr
Country: CA
--></g></svg>