<?xml version="1.0" encoding="us-ascii" standalone="no"?><svg xmlns="http://www.w3.org/2000/svg" xmlns:xlink="http://www.w3.org/1999/xlink" contentStyleType="text/css" height="801px" preserveAspectRatio="none" style="width:487px;height:801px;background:#FFFFFF;" version="1.1" viewBox="0 0 487 801" width="487px" zoomAndPan="magnify"><defs/><g><text fill="#000000" font-family="sans-serif" font-size="14" font-weight="bold" lengthAdjust="spacing" textLength="353" x="65.5" y="32.9951">Diagramme d'activit&#233; - Fonctionnalit&#233; d'achat</text><ellipse cx="259.75" cy="57.2969" fill="#222222" rx="10" ry="10" style="stroke:#222222;stroke-width:1.0;"/><rect fill="#F1F1F1" height="33.9688" rx="12.5" ry="12.5" style="stroke:#181818;stroke-width:0.5;" width="206" x="156.75" y="87.2969"/><text fill="#000000" font-family="sans-serif" font-size="12" lengthAdjust="spacing" textLength="186" x="166.75" y="108.4355">Ajouter des articles &#224; la carte</text><rect fill="#F1F1F1" height="33.9688" rx="12.5" ry="12.5" style="stroke:#181818;stroke-width:0.5;" width="223" x="148.25" y="141.2656"/><text fill="#000000" font-family="sans-serif" font-size="12" lengthAdjust="spacing" textLength="203" x="158.25" y="162.4043">Cliquer sur "Payer" dans la carte</text><rect fill="#F1F1F1" height="33.9688" rx="12.5" ry="12.5" style="stroke:#181818;stroke-width:0.5;" width="214" x="152.75" y="195.2344"/><text fill="#000000" font-family="sans-serif" font-size="12" lengthAdjust="spacing" textLength="194" x="162.75" y="216.373">Cr&#233;er une nouvelle transaction</text><rect fill="#F1F1F1" height="33.9688" rx="12.5" ry="12.5" style="stroke:#181818;stroke-width:0.5;" width="229" x="145.25" y="249.2031"/><text fill="#000000" font-family="sans-serif" font-size="12" lengthAdjust="spacing" textLength="209" x="155.25" y="270.3418">Calculer le total de la transaction</text><rect fill="#F1F1F1" height="33.9688" rx="12.5" ry="12.5" style="stroke:#181818;stroke-width:0.5;" width="185" x="167.25" y="303.1719"/><text fill="#000000" font-family="sans-serif" font-size="12" lengthAdjust="spacing" textLength="165" x="177.25" y="324.3105">V&#233;rifier le stock disponible</text><polygon fill="#F1F1F1" points="214.25,357.1406,305.25,357.1406,317.25,369.1406,305.25,381.1406,214.25,381.1406,202.25,369.1406,214.25,357.1406" style="stroke:#181818;stroke-width:0.5;"/><text fill="#000000" font-family="sans-serif" font-size="11" lengthAdjust="spacing" textLength="91" x="214.25" y="372.9487">Stock suffisant?</text><text fill="#000000" font-family="sans-serif" font-size="11" lengthAdjust="spacing" textLength="17" x="185.25" y="366.5464">oui</text><text fill="#000000" font-family="sans-serif" font-size="11" lengthAdjust="spacing" textLength="21" x="317.25" y="366.5464">non</text><rect fill="#F1F1F1" height="33.9688" rx="12.5" ry="12.5" style="stroke:#181818;stroke-width:0.5;" width="121" x="74" y="391.1406"/><text fill="#000000" font-family="sans-serif" font-size="12" lengthAdjust="spacing" textLength="101" x="84" y="412.2793">R&#233;duire le stock</text><rect fill="#F1F1F1" height="33.9688" rx="12.5" ry="12.5" style="stroke:#181818;stroke-width:0.5;" width="181" x="44" y="445.1094"/><text fill="#000000" font-family="sans-serif" font-size="12" lengthAdjust="spacing" textLength="161" x="54" y="466.248">Enregistrer la transaction</text><rect fill="#F1F1F1" height="33.9688" rx="12.5" ry="12.5" style="stroke:#181818;stroke-width:0.5;" width="247" x="11" y="499.0781"/><text fill="#000000" font-family="sans-serif" font-size="12" lengthAdjust="spacing" textLength="227" x="21" y="520.2168">Afficher la confirmation de paiement</text><rect fill="#F1F1F1" height="33.9688" rx="12.5" ry="12.5" style="stroke:#181818;stroke-width:0.5;" width="162" x="53.5" y="601.4492"/><text fill="#000000" font-family="sans-serif" font-size="12" lengthAdjust="spacing" textLength="142" x="63.5" y="622.5879">Alerter la maison m&#232;re</text><rect fill="#F1F1F1" height="33.9688" rx="12.5" ry="12.5" style="stroke:#181818;stroke-width:0.5;" width="235" x="17" y="670.418"/><text fill="#000000" font-family="sans-serif" font-size="12" lengthAdjust="spacing" textLength="215" x="27" y="691.5566">Envoyer notification de sous-stock</text><polygon fill="#F1F1F1" points="98.5,553.0469,170.5,553.0469,182.5,565.0469,170.5,577.0469,98.5,577.0469,86.5,565.0469,98.5,553.0469" style="stroke:#181818;stroke-width:0.5;"/><text fill="#000000" font-family="sans-serif" font-size="11" lengthAdjust="spacing" textLength="17" x="138.5" y="587.2573">oui</text><text fill="#000000" font-family="sans-serif" font-size="11" lengthAdjust="spacing" textLength="72" x="98.5" y="568.855">Stock faible?</text><text fill="#000000" font-family="sans-serif" font-size="11" lengthAdjust="spacing" textLength="21" x="182.5" y="562.4526">non</text><polygon fill="#F1F1F1" points="134.5,724.3867,146.5,736.3867,134.5,748.3867,122.5,736.3867,134.5,724.3867" style="stroke:#181818;stroke-width:0.5;"/><ellipse cx="134.5" cy="779.3867" fill="none" rx="11" ry="11" style="stroke:#222222;stroke-width:1.0;"/><ellipse cx="134.5" cy="779.3867" fill="#222222" rx="6" ry="6" style="stroke:#222222;stroke-width:1.0;"/><rect fill="#F1F1F1" height="33.9688" rx="12.5" ry="12.5" style="stroke:#181818;stroke-width:0.5;" width="182" x="294" y="391.1406"/><text fill="#000000" font-family="sans-serif" font-size="12" lengthAdjust="spacing" textLength="162" x="304" y="412.2793">Afficher message d'erreur</text><rect fill="#F1F1F1" height="33.9688" rx="12.5" ry="12.5" style="stroke:#181818;stroke-width:0.5;" width="124" x="323" y="445.1094"/><text fill="#000000" font-family="sans-serif" font-size="12" lengthAdjust="spacing" textLength="104" x="333" y="466.248">Stock insuffisant</text><ellipse cx="385" cy="510.0781" fill="none" rx="11" ry="11" style="stroke:#222222;stroke-width:1.0;"/><ellipse cx="385" cy="510.0781" fill="#222222" rx="6" ry="6" style="stroke:#222222;stroke-width:1.0;"/><line style="stroke:#181818;stroke-width:1.0;" x1="259.75" x2="259.75" y1="67.2969" y2="87.2969"/><polygon fill="#181818" points="255.75,77.2969,259.75,87.2969,263.75,77.2969,259.75,81.2969" style="stroke:#181818;stroke-width:1.0;"/><line style="stroke:#181818;stroke-width:1.0;" x1="259.75" x2="259.75" y1="121.2656" y2="141.2656"/><polygon fill="#181818" points="255.75,131.2656,259.75,141.2656,263.75,131.2656,259.75,135.2656" style="stroke:#181818;stroke-width:1.0;"/><line style="stroke:#181818;stroke-width:1.0;" x1="259.75" x2="259.75" y1="175.2344" y2="195.2344"/><polygon fill="#181818" points="255.75,185.2344,259.75,195.2344,263.75,185.2344,259.75,189.2344" style="stroke:#181818;stroke-width:1.0;"/><line style="stroke:#181818;stroke-width:1.0;" x1="259.75" x2="259.75" y1="229.2031" y2="249.2031"/><polygon fill="#181818" points="255.75,239.2031,259.75,249.2031,263.75,239.2031,259.75,243.2031" style="stroke:#181818;stroke-width:1.0;"/><line style="stroke:#181818;stroke-width:1.0;" x1="259.75" x2="259.75" y1="283.1719" y2="303.1719"/><polygon fill="#181818" points="255.75,293.1719,259.75,303.1719,263.75,293.1719,259.75,297.1719" style="stroke:#181818;stroke-width:1.0;"/><line style="stroke:#181818;stroke-width:1.0;" x1="134.5" x2="134.5" y1="425.1094" y2="445.1094"/><polygon fill="#181818" points="130.5,435.1094,134.5,445.1094,138.5,435.1094,134.5,439.1094" style="stroke:#181818;stroke-width:1.0;"/><line style="stroke:#181818;stroke-width:1.0;" x1="134.5" x2="134.5" y1="479.0781" y2="499.0781"/><polygon fill="#181818" points="130.5,489.0781,134.5,499.0781,138.5,489.0781,134.5,493.0781" style="stroke:#181818;stroke-width:1.0;"/><line style="stroke:#181818;stroke-width:1.0;" x1="134.5" x2="134.5" y1="635.418" y2="670.418"/><polygon fill="#181818" points="130.5,660.418,134.5,670.418,138.5,660.418,134.5,664.418" style="stroke:#181818;stroke-width:1.0;"/><line style="stroke:#181818;stroke-width:1.0;" x1="134.5" x2="134.5" y1="577.0469" y2="601.4492"/><polygon fill="#181818" points="130.5,591.4492,134.5,601.4492,138.5,591.4492,134.5,595.4492" style="stroke:#181818;stroke-width:1.0;"/><line style="stroke:#181818;stroke-width:1.0;" x1="182.5" x2="262" y1="565.0469" y2="565.0469"/><polygon fill="#181818" points="258,642.918,262,652.918,266,642.918,262,646.918" style="stroke:#181818;stroke-width:1.0;"/><line style="stroke:#181818;stroke-width:1.0;" x1="262" x2="262" y1="565.0469" y2="736.3867"/><line style="stroke:#181818;stroke-width:1.0;" x1="262" x2="146.5" y1="736.3867" y2="736.3867"/><polygon fill="#181818" points="156.5,732.3867,146.5,736.3867,156.5,740.3867,152.5,736.3867" style="stroke:#181818;stroke-width:1.0;"/><line style="stroke:#181818;stroke-width:1.0;" x1="134.5" x2="134.5" y1="704.3867" y2="724.3867"/><polygon fill="#181818" points="130.5,714.3867,134.5,724.3867,138.5,714.3867,134.5,718.3867" style="stroke:#181818;stroke-width:1.0;"/><line style="stroke:#181818;stroke-width:1.0;" x1="134.5" x2="134.5" y1="533.0469" y2="553.0469"/><polygon fill="#181818" points="130.5,543.0469,134.5,553.0469,138.5,543.0469,134.5,547.0469" style="stroke:#181818;stroke-width:1.0;"/><line style="stroke:#181818;stroke-width:1.0;" x1="134.5" x2="134.5" y1="748.3867" y2="768.3867"/><polygon fill="#181818" points="130.5,758.3867,134.5,768.3867,138.5,758.3867,134.5,762.3867" style="stroke:#181818;stroke-width:1.0;"/><line style="stroke:#181818;stroke-width:1.0;" x1="385" x2="385" y1="425.1094" y2="445.1094"/><polygon fill="#181818" points="381,435.1094,385,445.1094,389,435.1094,385,439.1094" style="stroke:#181818;stroke-width:1.0;"/><line style="stroke:#181818;stroke-width:1.0;" x1="385" x2="385" y1="479.0781" y2="499.0781"/><polygon fill="#181818" points="381,489.0781,385,499.0781,389,489.0781,385,493.0781" style="stroke:#181818;stroke-width:1.0;"/><line style="stroke:#181818;stroke-width:1.0;" x1="202.25" x2="134.5" y1="369.1406" y2="369.1406"/><line style="stroke:#181818;stroke-width:1.0;" x1="134.5" x2="134.5" y1="369.1406" y2="391.1406"/><polygon fill="#181818" points="130.5,381.1406,134.5,391.1406,138.5,381.1406,134.5,385.1406" style="stroke:#181818;stroke-width:1.0;"/><line style="stroke:#181818;stroke-width:1.0;" x1="317.25" x2="385" y1="369.1406" y2="369.1406"/><line style="stroke:#181818;stroke-width:1.0;" x1="385" x2="385" y1="369.1406" y2="391.1406"/><polygon fill="#181818" points="381,381.1406,385,391.1406,389,381.1406,385,385.1406" style="stroke:#181818;stroke-width:1.0;"/><line style="stroke:#181818;stroke-width:1.0;" x1="259.75" x2="259.75" y1="337.1406" y2="357.1406"/><polygon fill="#181818" points="255.75,347.1406,259.75,357.1406,263.75,347.1406,259.75,351.1406" style="stroke:#181818;stroke-width:1.0;"/><!--SRC=[NPB1JiCm38RlVGfh5xR3Nc0ze0d66O74tQJkPaYTuIIJU1kEz3dwOZWjT6od9Fu__Vvj9N7o1FUCUyMk8sXkq2K-SHfwMCD347i54VHZfQW7J5KL4weTc-rRo8aK6efW5NRUBiCNU0HdRwgDkVFyaOs9MM7nY9-a2sXGuYMaGszC5W89-KJUKYKr2iS08uBUPMzGaK92RrsBnnNsClJABKzSJC6zGyFn68HVVMd5BIoVntBCRSiH9Tsk81r8O1aohog0pTFGDvcLPelQgaNOYTAUOz9YVzLw8hRcwGwJx8Aqh1qMlOGz8bD7adxPSv8MIxZh6CNDvasJMOSSpQORlfNgKPsGdPo2xTJMbcniDpUB8SVr79vy95XAa69Cqd0xPJ3WM5s8vmawYX7tvK-GAcNz6t7Ap3Blh_xlDNh_0000]--></g></svg>