<?xml version="1.0" encoding="us-ascii" standalone="no"?><svg xmlns="http://www.w3.org/2000/svg" xmlns:xlink="http://www.w3.org/1999/xlink" contentStyleType="text/css" height="659px" preserveAspectRatio="none" style="width:714px;height:659px;background:#FFFFFF;" version="1.1" viewBox="0 0 714 659" width="714px" zoomAndPan="magnify"><defs/><g><text fill="#000000" font-family="sans-serif" font-size="14" font-weight="bold" lengthAdjust="spacing" textLength="671" x="20" y="32.9951">Diagramme d'activit&#233; - Modification d'un produit (propagation depuis la maison m&#232;re)</text><ellipse cx="357" cy="57.2969" fill="#222222" rx="10" ry="10" style="stroke:#222222;stroke-width:1.0;"/><rect fill="#F1F1F1" height="33.9688" rx="12.5" ry="12.5" style="stroke:#181818;stroke-width:0.5;" width="301" x="206.5" y="87.2969"/><text fill="#000000" font-family="sans-serif" font-size="12" lengthAdjust="spacing" textLength="281" x="216.5" y="108.4355">Aller sur la fiche du produit &#224; la maison m&#232;re</text><rect fill="#F1F1F1" height="33.9688" rx="12.5" ry="12.5" style="stroke:#181818;stroke-width:0.5;" width="186" x="264" y="141.2656"/><text fill="#000000" font-family="sans-serif" font-size="12" lengthAdjust="spacing" textLength="166" x="274" y="162.4043">Clique sur "Modifier le prix"</text><rect fill="#F1F1F1" height="33.9688" rx="12.5" ry="12.5" style="stroke:#181818;stroke-width:0.5;" width="158" x="278" y="195.2344"/><text fill="#000000" font-family="sans-serif" font-size="12" lengthAdjust="spacing" textLength="138" x="288" y="216.373">Entrer le nouveau prix</text><rect fill="#F1F1F1" height="33.9688" rx="12.5" ry="12.5" style="stroke:#181818;stroke-width:0.5;" width="175" x="269.5" y="249.2031"/><text fill="#000000" font-family="sans-serif" font-size="12" lengthAdjust="spacing" textLength="155" x="279.5" y="270.3418">Confirmer la modification</text><rect fill="#F1F1F1" height="33.9688" rx="12.5" ry="12.5" style="stroke:#181818;stroke-width:0.5;" width="323" x="195.5" y="303.1719"/><text fill="#000000" font-family="sans-serif" font-size="12" lengthAdjust="spacing" textLength="303" x="205.5" y="324.3105">Mettre &#224; jour le prix du produit &#224; la maison m&#232;re</text><rect fill="#F1F1F1" height="33.9688" rx="12.5" ry="12.5" style="stroke:#181818;stroke-width:0.5;" width="303" x="205.5" y="357.1406"/><text fill="#000000" font-family="sans-serif" font-size="12" lengthAdjust="spacing" textLength="283" x="215.5" y="378.2793">Propager la modification au centre logistique</text><rect fill="#F1F1F1" height="33.9688" rx="12.5" ry="12.5" style="stroke:#181818;stroke-width:0.5;" width="305" x="204.5" y="411.1094"/><text fill="#000000" font-family="sans-serif" font-size="12" lengthAdjust="spacing" textLength="285" x="214.5" y="432.248">Centre logistique met &#224; jour le prix du produit</text><rect fill="#F1F1F1" height="33.9688" rx="12.5" ry="12.5" style="stroke:#181818;stroke-width:0.5;" width="303" x="205.5" y="465.0781"/><text fill="#000000" font-family="sans-serif" font-size="12" lengthAdjust="spacing" textLength="283" x="215.5" y="486.2168">Propager la modification &#224; tous les magasins</text><rect fill="#F1F1F1" height="33.9688" rx="12.5" ry="12.5" style="stroke:#181818;stroke-width:0.5;" width="303" x="205.5" y="519.0469"/><text fill="#000000" font-family="sans-serif" font-size="12" lengthAdjust="spacing" textLength="283" x="215.5" y="540.1855">Chaque magasin met &#224; jour le prix du produit</text><rect fill="#F1F1F1" height="33.9688" rx="12.5" ry="12.5" style="stroke:#181818;stroke-width:0.5;" width="414" x="150" y="573.0156"/><text fill="#000000" font-family="sans-serif" font-size="12" lengthAdjust="spacing" textLength="394" x="160" y="594.1543">Afficher confirmation de la propagation du changement de prix</text><ellipse cx="357" cy="637.9844" fill="none" rx="11" ry="11" style="stroke:#222222;stroke-width:1.0;"/><ellipse cx="357" cy="637.9844" fill="#222222" rx="6" ry="6" style="stroke:#222222;stroke-width:1.0;"/><line style="stroke:#181818;stroke-width:1.0;" x1="357" x2="357" y1="67.2969" y2="87.2969"/><polygon fill="#181818" points="353,77.2969,357,87.2969,361,77.2969,357,81.2969" style="stroke:#181818;stroke-width:1.0;"/><line style="stroke:#181818;stroke-width:1.0;" x1="357" x2="357" y1="121.2656" y2="141.2656"/><polygon fill="#181818" points="353,131.2656,357,141.2656,361,131.2656,357,135.2656" style="stroke:#181818;stroke-width:1.0;"/><line style="stroke:#181818;stroke-width:1.0;" x1="357" x2="357" y1="175.2344" y2="195.2344"/><polygon fill="#181818" points="353,185.2344,357,195.2344,361,185.2344,357,189.2344" style="stroke:#181818;stroke-width:1.0;"/><line style="stroke:#181818;stroke-width:1.0;" x1="357" x2="357" y1="229.2031" y2="249.2031"/><polygon fill="#181818" points="353,239.2031,357,249.2031,361,239.2031,357,243.2031" style="stroke:#181818;stroke-width:1.0;"/><line style="stroke:#181818;stroke-width:1.0;" x1="357" x2="357" y1="283.1719" y2="303.1719"/><polygon fill="#181818" points="353,293.1719,357,303.1719,361,293.1719,357,297.1719" style="stroke:#181818;stroke-width:1.0;"/><line style="stroke:#181818;stroke-width:1.0;" x1="357" x2="357" y1="337.1406" y2="357.1406"/><polygon fill="#181818" points="353,347.1406,357,357.1406,361,347.1406,357,351.1406" style="stroke:#181818;stroke-width:1.0;"/><line style="stroke:#181818;stroke-width:1.0;" x1="357" x2="357" y1="391.1094" y2="411.1094"/><polygon fill="#181818" points="353,401.1094,357,411.1094,361,401.1094,357,405.1094" style="stroke:#181818;stroke-width:1.0;"/><line style="stroke:#181818;stroke-width:1.0;" x1="357" x2="357" y1="445.0781" y2="465.0781"/><polygon fill="#181818" points="353,455.0781,357,465.0781,361,455.0781,357,459.0781" style="stroke:#181818;stroke-width:1.0;"/><line style="stroke:#181818;stroke-width:1.0;" x1="357" x2="357" y1="499.0469" y2="519.0469"/><polygon fill="#181818" points="353,509.0469,357,519.0469,361,509.0469,357,513.0469" style="stroke:#181818;stroke-width:1.0;"/><line style="stroke:#181818;stroke-width:1.0;" x1="357" x2="357" y1="553.0156" y2="573.0156"/><polygon fill="#181818" points="353,563.0156,357,573.0156,361,563.0156,357,567.0156" style="stroke:#181818;stroke-width:1.0;"/><line style="stroke:#181818;stroke-width:1.0;" x1="357" x2="357" y1="606.9844" y2="626.9844"/><polygon fill="#181818" points="353,616.9844,357,626.9844,361,616.9844,357,620.9844" style="stroke:#181818;stroke-width:1.0;"/><!--SRC=[ZL5BJWCn3Dtd55Otm88Bb5K5B2jn1Ml6ap7AZyIfE0vBECTS32TJAYXIOHVv-VqSON443umse_S4unKEmWUMvGDkOHz7ddX0uHWKgW5IZcDbWMjz9BH7X5Bb0Wx18nST-EKzquqnHJ2BCTkTSvIXrDnsL71MethIMjxEgNVAkNVyKgcJDciEbT2iAVFhfYqy1idhACHw8AmTwjGO9iwUkft_rg61UnBbDTFdM4-AV-TvweL_Qu8Q3zIoW8kMYxJOFSNv43p91T-B9agJMFN6L3IPnSAXT9CPk_8w-eV3Rkhtpp2iH_hwmURuuq-rrOp1ajSQ3JyUjqXCvXC0]--></g></svg>