<?xml version="1.0" encoding="UTF-8" standalone="no"?><svg xmlns="http://www.w3.org/2000/svg" xmlns:xlink="http://www.w3.org/1999/xlink" contentScriptType="application/ecmascript" contentStyleType="text/css" height="468px" preserveAspectRatio="none" style="width:592px;height:468px;" version="1.1" viewBox="0 0 592 468" width="592px" zoomAndPan="magnify"><defs><filter height="300%" id="fkxwx5z4lnssx" width="300%" x="-1" y="-1"><feGaussianBlur result="blurOut" stdDeviation="2.0"/><feColorMatrix in="blurOut" result="blurOut2" type="matrix" values="0 0 0 0 0 0 0 0 0 0 0 0 0 0 0 0 0 0 .4 0"/><feOffset dx="4.0" dy="4.0" in="blurOut2" result="blurOut3"/><feBlend in="SourceGraphic" in2="blurOut3" mode="normal"/></filter></defs><g><text fill="#000000" font-family="sans-serif" font-size="18" lengthAdjust="spacing" textLength="544" x="23" y="27.4023">Diagramme d'activité - Fonctionnalité de réapprovisionnement</text><ellipse cx="299" cy="41.1992" fill="#000000" filter="url(#fkxwx5z4lnssx)" rx="10" ry="10" style="stroke:none;stroke-width:1.0;"/><rect fill="#FEFECE" filter="url(#fkxwx5z4lnssx)" height="34.1328" rx="12.5" ry="12.5" style="stroke:#A80036;stroke-width:1.5;" width="254" x="172" y="71.1992"/><text fill="#000000" font-family="sans-serif" font-size="12" lengthAdjust="spacing" textLength="234" x="182" y="92.8008">Cliquer sur le bouton "Réapprovisionner"</text><rect fill="#FEFECE" filter="url(#fkxwx5z4lnssx)" height="34.1328" rx="12.5" ry="12.5" style="stroke:#A80036;stroke-width:1.5;" width="172" x="213" y="125.332"/><text fill="#000000" font-family="sans-serif" font-size="12" lengthAdjust="spacing" textLength="152" x="223" y="146.9336">Alerter le centre logistique</text><rect fill="#FEFECE" filter="url(#fkxwx5z4lnssx)" height="34.1328" rx="12.5" ry="12.5" style="stroke:#A80036;stroke-width:1.5;" width="226" x="186" y="179.4648"/><text fill="#000000" font-family="sans-serif" font-size="12" lengthAdjust="spacing" textLength="206" x="196" y="201.0664">Centre logistique reçoit la demande</text><polygon fill="#FEFECE" filter="url(#fkxwx5z4lnssx)" points="246.5,233.5977,351.5,233.5977,363.5,245.5977,351.5,257.5977,246.5,257.5977,234.5,245.5977,246.5,233.5977" style="stroke:#A80036;stroke-width:1.5;"/><text fill="#000000" font-family="sans-serif" font-size="11" lengthAdjust="spacing" textLength="105" x="246.5" y="249.7549">Demande acceptée?</text><text fill="#000000" font-family="sans-serif" font-size="11" lengthAdjust="spacing" textLength="17" x="217.5" y="243.2773">oui</text><text fill="#000000" font-family="sans-serif" font-size="11" lengthAdjust="spacing" textLength="21" x="363.5" y="243.2773">non</text><rect fill="#FEFECE" filter="url(#fkxwx5z4lnssx)" height="34.1328" rx="12.5" ry="12.5" style="stroke:#A80036;stroke-width:1.5;" width="258" x="24" y="267.5977"/><text fill="#000000" font-family="sans-serif" font-size="12" lengthAdjust="spacing" textLength="238" x="34" y="289.1992">Réduire le stock dans le centre logistique</text><rect fill="#FEFECE" filter="url(#fkxwx5z4lnssx)" height="34.1328" rx="12.5" ry="12.5" style="stroke:#A80036;stroke-width:1.5;" width="229" x="38.5" y="321.7305"/><text fill="#000000" font-family="sans-serif" font-size="12" lengthAdjust="spacing" textLength="209" x="48.5" y="343.332">Augmenter le stock dans le magasin</text><rect fill="#FEFECE" filter="url(#fkxwx5z4lnssx)" height="34.1328" rx="12.5" ry="12.5" style="stroke:#A80036;stroke-width:1.5;" width="284" x="11" y="375.8633"/><text fill="#000000" font-family="sans-serif" font-size="12" lengthAdjust="spacing" textLength="264" x="21" y="397.4648">Afficher confirmation de réapprovisionnement</text><ellipse cx="153" cy="440.9961" fill="#FFFFFF" filter="url(#fkxwx5z4lnssx)" rx="11" ry="11" style="stroke:#000000;stroke-width:1.0;"/><ellipse cx="153" cy="440.9961" fill="#000000" rx="6" ry="6" style="stroke:#7F7F7F;stroke-width:1.0;"/><rect fill="#FEFECE" filter="url(#fkxwx5z4lnssx)" height="34.1328" rx="12.5" ry="12.5" style="stroke:#A80036;stroke-width:1.5;" width="260" x="315" y="267.5977"/><text fill="#000000" font-family="sans-serif" font-size="12" lengthAdjust="spacing" textLength="240" x="325" y="289.1992">Demande refusée par le centre logistique</text><ellipse cx="445" cy="332.7305" fill="#FFFFFF" filter="url(#fkxwx5z4lnssx)" rx="11" ry="11" style="stroke:#000000;stroke-width:1.0;"/><ellipse cx="445" cy="332.7305" fill="#000000" rx="6" ry="6" style="stroke:#7F7F7F;stroke-width:1.0;"/><line style="stroke:#A80036;stroke-width:1.5;" x1="299" x2="299" y1="51.1992" y2="71.1992"/><polygon fill="#A80036" points="295,61.1992,299,71.1992,303,61.1992,299,65.1992" style="stroke:#A80036;stroke-width:1.0;"/><line style="stroke:#A80036;stroke-width:1.5;" x1="299" x2="299" y1="105.332" y2="125.332"/><polygon fill="#A80036" points="295,115.332,299,125.332,303,115.332,299,119.332" style="stroke:#A80036;stroke-width:1.0;"/><line style="stroke:#A80036;stroke-width:1.5;" x1="299" x2="299" y1="159.4648" y2="179.4648"/><polygon fill="#A80036" points="295,169.4648,299,179.4648,303,169.4648,299,173.4648" style="stroke:#A80036;stroke-width:1.0;"/><line style="stroke:#A80036;stroke-width:1.5;" x1="153" x2="153" y1="301.7305" y2="321.7305"/><polygon fill="#A80036" points="149,311.7305,153,321.7305,157,311.7305,153,315.7305" style="stroke:#A80036;stroke-width:1.0;"/><line style="stroke:#A80036;stroke-width:1.5;" x1="153" x2="153" y1="355.8633" y2="375.8633"/><polygon fill="#A80036" points="149,365.8633,153,375.8633,157,365.8633,153,369.8633" style="stroke:#A80036;stroke-width:1.0;"/><line style="stroke:#A80036;stroke-width:1.5;" x1="153" x2="153" y1="409.9961" y2="429.9961"/><polygon fill="#A80036" points="149,419.9961,153,429.9961,157,419.9961,153,423.9961" style="stroke:#A80036;stroke-width:1.0;"/><line style="stroke:#A80036;stroke-width:1.5;" x1="445" x2="445" y1="301.7305" y2="321.7305"/><polygon fill="#A80036" points="441,311.7305,445,321.7305,449,311.7305,445,315.7305" style="stroke:#A80036;stroke-width:1.0;"/><line style="stroke:#A80036;stroke-width:1.5;" x1="234.5" x2="153" y1="245.5977" y2="245.5977"/><line style="stroke:#A80036;stroke-width:1.5;" x1="153" x2="153" y1="245.5977" y2="267.5977"/><polygon fill="#A80036" points="149,257.5977,153,267.5977,157,257.5977,153,261.5977" style="stroke:#A80036;stroke-width:1.0;"/><line style="stroke:#A80036;stroke-width:1.5;" x1="363.5" x2="445" y1="245.5977" y2="245.5977"/><line style="stroke:#A80036;stroke-width:1.5;" x1="445" x2="445" y1="245.5977" y2="267.5977"/><polygon fill="#A80036" points="441,257.5977,445,267.5977,449,257.5977,445,261.5977" style="stroke:#A80036;stroke-width:1.0;"/><line style="stroke:#A80036;stroke-width:1.5;" x1="299" x2="299" y1="213.5977" y2="233.5977"/><polygon fill="#A80036" points="295,223.5977,299,233.5977,303,223.5977,299,227.5977" style="stroke:#A80036;stroke-width:1.0;"/><!--MD5=[8b27ff5debfcb076c923c76e245fe667]
@startuml
title Diagramme d'activité - Fonctionnalité de réapprovisionnement

start

:Cliquer sur le bouton "Réapprovisionner";

:Alerter le centre logistique;

:Centre logistique reçoit la demande;

if (Demande acceptée?) then (oui)
  :Réduire le stock dans le centre logistique;
  
  :Augmenter le stock dans le magasin;
  
  :Afficher confirmation de réapprovisionnement;
  
  stop
else (non)
  :Demande refusée par le centre logistique;
  
  stop
endif

@enduml

PlantUML version 1.2021.00(Sun Jan 10 05:25:05 EST 2021)
(MIT source distribution)
Java Runtime: OpenJDK Runtime Environment
JVM: OpenJDK 64-Bit Server VM
Default Encoding: UTF-8
Language: fr
Country: CA
--></g></svg>