<?xml version="1.0" encoding="us-ascii" standalone="no"?><svg xmlns="http://www.w3.org/2000/svg" xmlns:xlink="http://www.w3.org/1999/xlink" contentStyleType="text/css" height="711px" preserveAspectRatio="none" style="width:771px;height:711px;background:#FFFFFF;" version="1.1" viewBox="0 0 771 711" width="771px" zoomAndPan="magnify"><defs/><g><text fill="#000000" font-family="sans-serif" font-size="14" font-weight="bold" lengthAdjust="spacing" textLength="357" x="205.5" y="32.9951">Diagramme d'activit&#233; - G&#233;n&#233;ration de rapport</text><ellipse cx="385.5" cy="57.2969" fill="#222222" rx="10" ry="10" style="stroke:#222222;stroke-width:1.0;"/><rect fill="#F1F1F1" height="33.9688" rx="12.5" ry="12.5" style="stroke:#181818;stroke-width:0.5;" width="267" x="252" y="87.2969"/><text fill="#000000" font-family="sans-serif" font-size="12" lengthAdjust="spacing" textLength="247" x="262" y="108.4355">Cliquer sur le bouton "G&#233;n&#233;rer rapport"</text><rect fill="#F1F1F1" height="33.9688" rx="12.5" ry="12.5" style="stroke:#181818;stroke-width:0.5;" width="320" x="225.5" y="141.2656"/><text fill="#000000" font-family="sans-serif" font-size="12" lengthAdjust="spacing" textLength="300" x="235.5" y="162.4043">Demander les transactions &#224; tous les magasins</text><rect fill="#F1F1F1" height="33.9688" rx="12.5" ry="12.5" style="stroke:#181818;stroke-width:0.5;" width="306" x="232.5" y="195.2344"/><text fill="#000000" font-family="sans-serif" font-size="12" lengthAdjust="spacing" textLength="286" x="242.5" y="216.373">Recevoir les transactions de chaque magasin</text><rect fill="#F1F1F1" height="33.9688" rx="12.5" ry="12.5" style="stroke:#181818;stroke-width:0.5;" width="211" x="280" y="249.2031"/><text fill="#000000" font-family="sans-serif" font-size="12" lengthAdjust="spacing" textLength="191" x="290" y="270.3418">Appliquer les filtres de rapport</text><rect fill="#F1F1F1" height="33.9688" rx="12.5" ry="12.5" style="stroke:#181818;stroke-width:0.5;" width="224" x="273.5" y="303.1719"/><text fill="#000000" font-family="sans-serif" font-size="12" lengthAdjust="spacing" textLength="204" x="283.5" y="324.3105">Traiter les donn&#233;es par magasin</text><rect fill="#555555" height="6" rx="2.5" ry="2.5" style="stroke:#555555;stroke-width:1.0;" width="749" x="11" y="357.1406"/><rect fill="#F1F1F1" height="33.9688" rx="12.5" ry="12.5" style="stroke:#181818;stroke-width:0.5;" width="223" x="23" y="383.1406"/><text fill="#000000" font-family="sans-serif" font-size="12" lengthAdjust="spacing" textLength="203" x="33" y="404.2793">G&#233;n&#233;rer rapport pour Magasin 1</text><rect fill="#F1F1F1" height="33.9688" rx="12.5" ry="12.5" style="stroke:#181818;stroke-width:0.5;" width="148" x="60.5" y="437.1094"/><text fill="#000000" font-family="sans-serif" font-size="12" lengthAdjust="spacing" textLength="128" x="70.5" y="458.248">Calculer statistiques</text><rect fill="#F1F1F1" height="33.9688" rx="12.5" ry="12.5" style="stroke:#181818;stroke-width:0.5;" width="158" x="55.5" y="491.0781"/><text fill="#000000" font-family="sans-serif" font-size="12" lengthAdjust="spacing" textLength="138" x="65.5" y="512.2168">Formater les donn&#233;es</text><rect fill="#F1F1F1" height="33.9688" rx="12.5" ry="12.5" style="stroke:#181818;stroke-width:0.5;" width="223" x="274" y="383.1406"/><text fill="#000000" font-family="sans-serif" font-size="12" lengthAdjust="spacing" textLength="203" x="284" y="404.2793">G&#233;n&#233;rer rapport pour Magasin 2</text><rect fill="#F1F1F1" height="33.9688" rx="12.5" ry="12.5" style="stroke:#181818;stroke-width:0.5;" width="148" x="311.5" y="437.1094"/><text fill="#000000" font-family="sans-serif" font-size="12" lengthAdjust="spacing" textLength="128" x="321.5" y="458.248">Calculer statistiques</text><rect fill="#F1F1F1" height="33.9688" rx="12.5" ry="12.5" style="stroke:#181818;stroke-width:0.5;" width="158" x="306.5" y="491.0781"/><text fill="#000000" font-family="sans-serif" font-size="12" lengthAdjust="spacing" textLength="138" x="316.5" y="512.2168">Formater les donn&#233;es</text><rect fill="#F1F1F1" height="33.9688" rx="12.5" ry="12.5" style="stroke:#181818;stroke-width:0.5;" width="223" x="525" y="383.1406"/><text fill="#000000" font-family="sans-serif" font-size="12" lengthAdjust="spacing" textLength="203" x="535" y="404.2793">G&#233;n&#233;rer rapport pour Magasin 3</text><rect fill="#F1F1F1" height="33.9688" rx="12.5" ry="12.5" style="stroke:#181818;stroke-width:0.5;" width="148" x="562.5" y="437.1094"/><text fill="#000000" font-family="sans-serif" font-size="12" lengthAdjust="spacing" textLength="128" x="572.5" y="458.248">Calculer statistiques</text><rect fill="#F1F1F1" height="33.9688" rx="12.5" ry="12.5" style="stroke:#181818;stroke-width:0.5;" width="158" x="557.5" y="491.0781"/><text fill="#000000" font-family="sans-serif" font-size="12" lengthAdjust="spacing" textLength="138" x="567.5" y="512.2168">Formater les donn&#233;es</text><rect fill="#555555" height="6" rx="2.5" ry="2.5" style="stroke:#555555;stroke-width:1.0;" width="749" x="11" y="545.0469"/><rect fill="#F1F1F1" height="33.9688" rx="12.5" ry="12.5" style="stroke:#181818;stroke-width:0.5;" width="198" x="286.5" y="571.0469"/><text fill="#000000" font-family="sans-serif" font-size="12" lengthAdjust="spacing" textLength="178" x="296.5" y="592.1855">Consolider tous les rapports</text><rect fill="#F1F1F1" height="33.9688" rx="12.5" ry="12.5" style="stroke:#181818;stroke-width:0.5;" width="163" x="304" y="625.0156"/><text fill="#000000" font-family="sans-serif" font-size="12" lengthAdjust="spacing" textLength="143" x="314" y="646.1543">Afficher le rapport final</text><ellipse cx="385.5" cy="689.9844" fill="none" rx="11" ry="11" style="stroke:#222222;stroke-width:1.0;"/><ellipse cx="385.5" cy="689.9844" fill="#222222" rx="6" ry="6" style="stroke:#222222;stroke-width:1.0;"/><line style="stroke:#181818;stroke-width:1.0;" x1="385.5" x2="385.5" y1="67.2969" y2="87.2969"/><polygon fill="#181818" points="381.5,77.2969,385.5,87.2969,389.5,77.2969,385.5,81.2969" style="stroke:#181818;stroke-width:1.0;"/><line style="stroke:#181818;stroke-width:1.0;" x1="385.5" x2="385.5" y1="121.2656" y2="141.2656"/><polygon fill="#181818" points="381.5,131.2656,385.5,141.2656,389.5,131.2656,385.5,135.2656" style="stroke:#181818;stroke-width:1.0;"/><line style="stroke:#181818;stroke-width:1.0;" x1="385.5" x2="385.5" y1="175.2344" y2="195.2344"/><polygon fill="#181818" points="381.5,185.2344,385.5,195.2344,389.5,185.2344,385.5,189.2344" style="stroke:#181818;stroke-width:1.0;"/><line style="stroke:#181818;stroke-width:1.0;" x1="385.5" x2="385.5" y1="229.2031" y2="249.2031"/><polygon fill="#181818" points="381.5,239.2031,385.5,249.2031,389.5,239.2031,385.5,243.2031" style="stroke:#181818;stroke-width:1.0;"/><line style="stroke:#181818;stroke-width:1.0;" x1="385.5" x2="385.5" y1="283.1719" y2="303.1719"/><polygon fill="#181818" points="381.5,293.1719,385.5,303.1719,389.5,293.1719,385.5,297.1719" style="stroke:#181818;stroke-width:1.0;"/><line style="stroke:#181818;stroke-width:1.0;" x1="134.5" x2="134.5" y1="417.1094" y2="437.1094"/><polygon fill="#181818" points="130.5,427.1094,134.5,437.1094,138.5,427.1094,134.5,431.1094" style="stroke:#181818;stroke-width:1.0;"/><line style="stroke:#181818;stroke-width:1.0;" x1="134.5" x2="134.5" y1="471.0781" y2="491.0781"/><polygon fill="#181818" points="130.5,481.0781,134.5,491.0781,138.5,481.0781,134.5,485.0781" style="stroke:#181818;stroke-width:1.0;"/><line style="stroke:#181818;stroke-width:1.0;" x1="385.5" x2="385.5" y1="417.1094" y2="437.1094"/><polygon fill="#181818" points="381.5,427.1094,385.5,437.1094,389.5,427.1094,385.5,431.1094" style="stroke:#181818;stroke-width:1.0;"/><line style="stroke:#181818;stroke-width:1.0;" x1="385.5" x2="385.5" y1="471.0781" y2="491.0781"/><polygon fill="#181818" points="381.5,481.0781,385.5,491.0781,389.5,481.0781,385.5,485.0781" style="stroke:#181818;stroke-width:1.0;"/><line style="stroke:#181818;stroke-width:1.0;" x1="636.5" x2="636.5" y1="417.1094" y2="437.1094"/><polygon fill="#181818" points="632.5,427.1094,636.5,437.1094,640.5,427.1094,636.5,431.1094" style="stroke:#181818;stroke-width:1.0;"/><line style="stroke:#181818;stroke-width:1.0;" x1="636.5" x2="636.5" y1="471.0781" y2="491.0781"/><polygon fill="#181818" points="632.5,481.0781,636.5,491.0781,640.5,481.0781,636.5,485.0781" style="stroke:#181818;stroke-width:1.0;"/><line style="stroke:#181818;stroke-width:1.0;" x1="134.5" x2="134.5" y1="363.1406" y2="383.1406"/><polygon fill="#181818" points="130.5,373.1406,134.5,383.1406,138.5,373.1406,134.5,377.1406" style="stroke:#181818;stroke-width:1.0;"/><line style="stroke:#181818;stroke-width:1.0;" x1="385.5" x2="385.5" y1="363.1406" y2="383.1406"/><polygon fill="#181818" points="381.5,373.1406,385.5,383.1406,389.5,373.1406,385.5,377.1406" style="stroke:#181818;stroke-width:1.0;"/><line style="stroke:#181818;stroke-width:1.0;" x1="636.5" x2="636.5" y1="363.1406" y2="383.1406"/><polygon fill="#181818" points="632.5,373.1406,636.5,383.1406,640.5,373.1406,636.5,377.1406" style="stroke:#181818;stroke-width:1.0;"/><line style="stroke:#181818;stroke-width:1.0;" x1="134.5" x2="134.5" y1="525.0469" y2="545.0469"/><polygon fill="#181818" points="130.5,535.0469,134.5,545.0469,138.5,535.0469,134.5,539.0469" style="stroke:#181818;stroke-width:1.0;"/><line style="stroke:#181818;stroke-width:1.0;" x1="385.5" x2="385.5" y1="525.0469" y2="545.0469"/><polygon fill="#181818" points="381.5,535.0469,385.5,545.0469,389.5,535.0469,385.5,539.0469" style="stroke:#181818;stroke-width:1.0;"/><line style="stroke:#181818;stroke-width:1.0;" x1="636.5" x2="636.5" y1="525.0469" y2="545.0469"/><polygon fill="#181818" points="632.5,535.0469,636.5,545.0469,640.5,535.0469,636.5,539.0469" style="stroke:#181818;stroke-width:1.0;"/><line style="stroke:#181818;stroke-width:1.0;" x1="385.5" x2="385.5" y1="337.1406" y2="357.1406"/><polygon fill="#181818" points="381.5,347.1406,385.5,357.1406,389.5,347.1406,385.5,351.1406" style="stroke:#181818;stroke-width:1.0;"/><line style="stroke:#181818;stroke-width:1.0;" x1="385.5" x2="385.5" y1="551.0469" y2="571.0469"/><polygon fill="#181818" points="381.5,561.0469,385.5,571.0469,389.5,561.0469,385.5,565.0469" style="stroke:#181818;stroke-width:1.0;"/><line style="stroke:#181818;stroke-width:1.0;" x1="385.5" x2="385.5" y1="605.0156" y2="625.0156"/><polygon fill="#181818" points="381.5,615.0156,385.5,625.0156,389.5,615.0156,385.5,619.0156" style="stroke:#181818;stroke-width:1.0;"/><line style="stroke:#181818;stroke-width:1.0;" x1="385.5" x2="385.5" y1="658.9844" y2="678.9844"/><polygon fill="#181818" points="381.5,668.9844,385.5,678.9844,389.5,668.9844,385.5,672.9844" style="stroke:#181818;stroke-width:1.0;"/><!--SRC=[lPAnJiD038RtF8NLXOa1s9gfQWLJ5yGBcEJIMbpEXy_fyx3cEV9Ys25K5J0W1gOxoP___p_xb3G6s14U1Fi-G7k5ZTA9T1hX6XwcCKsZe18dQ0C8vioYLLKK_LXl8xqEGQ0C0gRpp8CQkLhwhB1qh6g3Tw77r0Od2wXWAkx5gS3q1if3cGiz7h1GAjxn69fmOlgXmy8qHpJlJzxnJSvB7kSxYYgXNEHsvacGT25QJXRJBXdbGgTZUQa0rjzU0PdjdViF46vgXxOOco7w2DJ6LDJzorovP-dngrKzguD9KFg5n-q_UDpzpIEa5kP9sI-mZN0aN-rvZOlLlCPDrr5pd1NE4JfA66l_IPohTm00]--></g></svg>