<?xml version="1.0" encoding="UTF-8" standalone="no"?><svg xmlns="http://www.w3.org/2000/svg" xmlns:xlink="http://www.w3.org/1999/xlink" contentScriptType="application/ecmascript" contentStyleType="text/css" height="703px" preserveAspectRatio="none" style="width:735px;height:703px;" version="1.1" viewBox="0 0 735 703" width="735px" zoomAndPan="magnify"><defs><filter height="300%" id="f1wb2mnrg6ahvs" width="300%" x="-1" y="-1"><feGaussianBlur result="blurOut" stdDeviation="2.0"/><feColorMatrix in="blurOut" result="blurOut2" type="matrix" values="0 0 0 0 0 0 0 0 0 0 0 0 0 0 0 0 0 0 .4 0"/><feOffset dx="4.0" dy="4.0" in="blurOut2" result="blurOut3"/><feBlend in="SourceGraphic" in2="blurOut3" mode="normal"/></filter></defs><g><text fill="#000000" font-family="sans-serif" font-size="18" lengthAdjust="spacing" textLength="397" x="168" y="27.4023">Diagramme d'activité - Génération de rapport</text><ellipse cx="364.5" cy="41.1992" fill="#000000" filter="url(#f1wb2mnrg6ahvs)" rx="10" ry="10" style="stroke:none;stroke-width:1.0;"/><rect fill="#FEFECE" filter="url(#f1wb2mnrg6ahvs)" height="34.1328" rx="12.5" ry="12.5" style="stroke:#A80036;stroke-width:1.5;" width="248" x="240.5" y="71.1992"/><text fill="#000000" font-family="sans-serif" font-size="12" lengthAdjust="spacing" textLength="228" x="250.5" y="92.8008">Cliquer sur le bouton "Générer rapport"</text><rect fill="#FEFECE" filter="url(#f1wb2mnrg6ahvs)" height="34.1328" rx="12.5" ry="12.5" style="stroke:#A80036;stroke-width:1.5;" width="291" x="219" y="125.332"/><text fill="#000000" font-family="sans-serif" font-size="12" lengthAdjust="spacing" textLength="271" x="229" y="146.9336">Demander les transactions à tous les magasins</text><rect fill="#FEFECE" filter="url(#f1wb2mnrg6ahvs)" height="34.1328" rx="12.5" ry="12.5" style="stroke:#A80036;stroke-width:1.5;" width="279" x="225" y="179.4648"/><text fill="#000000" font-family="sans-serif" font-size="12" lengthAdjust="spacing" textLength="259" x="235" y="201.0664">Recevoir les transactions de chaque magasin</text><rect fill="#FEFECE" filter="url(#f1wb2mnrg6ahvs)" height="34.1328" rx="12.5" ry="12.5" style="stroke:#A80036;stroke-width:1.5;" width="200" x="264.5" y="233.5977"/><text fill="#000000" font-family="sans-serif" font-size="12" lengthAdjust="spacing" textLength="180" x="274.5" y="255.1992">Appliquer les filtres de rapport</text><rect fill="#FEFECE" filter="url(#f1wb2mnrg6ahvs)" height="34.1328" rx="12.5" ry="12.5" style="stroke:#A80036;stroke-width:1.5;" width="208" x="260.5" y="287.7305"/><text fill="#000000" font-family="sans-serif" font-size="12" lengthAdjust="spacing" textLength="188" x="270.5" y="309.332">Traiter les données par magasin</text><rect fill="#000000" filter="url(#f1wb2mnrg6ahvs)" height="6" rx="2.5" ry="2.5" style="stroke:#000000;stroke-width:1.0;" width="707" x="11" y="341.8633"/><rect fill="#FEFECE" filter="url(#f1wb2mnrg6ahvs)" height="34.1328" rx="12.5" ry="12.5" style="stroke:#A80036;stroke-width:1.5;" width="209" x="23" y="367.8633"/><text fill="#000000" font-family="sans-serif" font-size="12" lengthAdjust="spacing" textLength="189" x="33" y="389.4648">Générer rapport pour Magasin 1</text><rect fill="#FEFECE" filter="url(#f1wb2mnrg6ahvs)" height="34.1328" rx="12.5" ry="12.5" style="stroke:#A80036;stroke-width:1.5;" width="135" x="60" y="421.9961"/><text fill="#000000" font-family="sans-serif" font-size="12" lengthAdjust="spacing" textLength="115" x="70" y="443.5977">Calculer statistiques</text><rect fill="#FEFECE" filter="url(#f1wb2mnrg6ahvs)" height="34.1328" rx="12.5" ry="12.5" style="stroke:#A80036;stroke-width:1.5;" width="145" x="55" y="476.1289"/><text fill="#000000" font-family="sans-serif" font-size="12" lengthAdjust="spacing" textLength="125" x="65" y="497.7305">Formater les données</text><rect fill="#FEFECE" filter="url(#f1wb2mnrg6ahvs)" height="34.1328" rx="12.5" ry="12.5" style="stroke:#A80036;stroke-width:1.5;" width="209" x="260" y="367.8633"/><text fill="#000000" font-family="sans-serif" font-size="12" lengthAdjust="spacing" textLength="189" x="270" y="389.4648">Générer rapport pour Magasin 2</text><rect fill="#FEFECE" filter="url(#f1wb2mnrg6ahvs)" height="34.1328" rx="12.5" ry="12.5" style="stroke:#A80036;stroke-width:1.5;" width="135" x="297" y="421.9961"/><text fill="#000000" font-family="sans-serif" font-size="12" lengthAdjust="spacing" textLength="115" x="307" y="443.5977">Calculer statistiques</text><rect fill="#FEFECE" filter="url(#f1wb2mnrg6ahvs)" height="34.1328" rx="12.5" ry="12.5" style="stroke:#A80036;stroke-width:1.5;" width="145" x="292" y="476.1289"/><text fill="#000000" font-family="sans-serif" font-size="12" lengthAdjust="spacing" textLength="125" x="302" y="497.7305">Formater les données</text><rect fill="#FEFECE" filter="url(#f1wb2mnrg6ahvs)" height="34.1328" rx="12.5" ry="12.5" style="stroke:#A80036;stroke-width:1.5;" width="209" x="497" y="367.8633"/><text fill="#000000" font-family="sans-serif" font-size="12" lengthAdjust="spacing" textLength="189" x="507" y="389.4648">Générer rapport pour Magasin 3</text><rect fill="#FEFECE" filter="url(#f1wb2mnrg6ahvs)" height="34.1328" rx="12.5" ry="12.5" style="stroke:#A80036;stroke-width:1.5;" width="135" x="534" y="421.9961"/><text fill="#000000" font-family="sans-serif" font-size="12" lengthAdjust="spacing" textLength="115" x="544" y="443.5977">Calculer statistiques</text><rect fill="#FEFECE" filter="url(#f1wb2mnrg6ahvs)" height="34.1328" rx="12.5" ry="12.5" style="stroke:#A80036;stroke-width:1.5;" width="145" x="529" y="476.1289"/><text fill="#000000" font-family="sans-serif" font-size="12" lengthAdjust="spacing" textLength="125" x="539" y="497.7305">Formater les données</text><rect fill="#000000" filter="url(#f1wb2mnrg6ahvs)" height="6" rx="2.5" ry="2.5" style="stroke:#000000;stroke-width:1.0;" width="707" x="11" y="530.2617"/><rect fill="#FEFECE" filter="url(#f1wb2mnrg6ahvs)" height="34.1328" rx="12.5" ry="12.5" style="stroke:#A80036;stroke-width:1.5;" width="183" x="273" y="556.2617"/><text fill="#000000" font-family="sans-serif" font-size="12" lengthAdjust="spacing" textLength="163" x="283" y="577.8633">Consolider tous les rapports</text><rect fill="#FEFECE" filter="url(#f1wb2mnrg6ahvs)" height="34.1328" rx="12.5" ry="12.5" style="stroke:#A80036;stroke-width:1.5;" width="154" x="287.5" y="610.3945"/><text fill="#000000" font-family="sans-serif" font-size="12" lengthAdjust="spacing" textLength="134" x="297.5" y="631.9961">Afficher le rapport final</text><ellipse cx="364.5" cy="675.5273" fill="#FFFFFF" filter="url(#f1wb2mnrg6ahvs)" rx="11" ry="11" style="stroke:#000000;stroke-width:1.0;"/><ellipse cx="364.5" cy="675.5273" fill="#000000" rx="6" ry="6" style="stroke:#7F7F7F;stroke-width:1.0;"/><line style="stroke:#A80036;stroke-width:1.5;" x1="364.5" x2="364.5" y1="51.1992" y2="71.1992"/><polygon fill="#A80036" points="360.5,61.1992,364.5,71.1992,368.5,61.1992,364.5,65.1992" style="stroke:#A80036;stroke-width:1.0;"/><line style="stroke:#A80036;stroke-width:1.5;" x1="364.5" x2="364.5" y1="105.332" y2="125.332"/><polygon fill="#A80036" points="360.5,115.332,364.5,125.332,368.5,115.332,364.5,119.332" style="stroke:#A80036;stroke-width:1.0;"/><line style="stroke:#A80036;stroke-width:1.5;" x1="364.5" x2="364.5" y1="159.4648" y2="179.4648"/><polygon fill="#A80036" points="360.5,169.4648,364.5,179.4648,368.5,169.4648,364.5,173.4648" style="stroke:#A80036;stroke-width:1.0;"/><line style="stroke:#A80036;stroke-width:1.5;" x1="364.5" x2="364.5" y1="213.5977" y2="233.5977"/><polygon fill="#A80036" points="360.5,223.5977,364.5,233.5977,368.5,223.5977,364.5,227.5977" style="stroke:#A80036;stroke-width:1.0;"/><line style="stroke:#A80036;stroke-width:1.5;" x1="364.5" x2="364.5" y1="267.7305" y2="287.7305"/><polygon fill="#A80036" points="360.5,277.7305,364.5,287.7305,368.5,277.7305,364.5,281.7305" style="stroke:#A80036;stroke-width:1.0;"/><line style="stroke:#A80036;stroke-width:1.5;" x1="127.5" x2="127.5" y1="401.9961" y2="421.9961"/><polygon fill="#A80036" points="123.5,411.9961,127.5,421.9961,131.5,411.9961,127.5,415.9961" style="stroke:#A80036;stroke-width:1.0;"/><line style="stroke:#A80036;stroke-width:1.5;" x1="127.5" x2="127.5" y1="456.1289" y2="476.1289"/><polygon fill="#A80036" points="123.5,466.1289,127.5,476.1289,131.5,466.1289,127.5,470.1289" style="stroke:#A80036;stroke-width:1.0;"/><line style="stroke:#A80036;stroke-width:1.5;" x1="364.5" x2="364.5" y1="401.9961" y2="421.9961"/><polygon fill="#A80036" points="360.5,411.9961,364.5,421.9961,368.5,411.9961,364.5,415.9961" style="stroke:#A80036;stroke-width:1.0;"/><line style="stroke:#A80036;stroke-width:1.5;" x1="364.5" x2="364.5" y1="456.1289" y2="476.1289"/><polygon fill="#A80036" points="360.5,466.1289,364.5,476.1289,368.5,466.1289,364.5,470.1289" style="stroke:#A80036;stroke-width:1.0;"/><line style="stroke:#A80036;stroke-width:1.5;" x1="601.5" x2="601.5" y1="401.9961" y2="421.9961"/><polygon fill="#A80036" points="597.5,411.9961,601.5,421.9961,605.5,411.9961,601.5,415.9961" style="stroke:#A80036;stroke-width:1.0;"/><line style="stroke:#A80036;stroke-width:1.5;" x1="601.5" x2="601.5" y1="456.1289" y2="476.1289"/><polygon fill="#A80036" points="597.5,466.1289,601.5,476.1289,605.5,466.1289,601.5,470.1289" style="stroke:#A80036;stroke-width:1.0;"/><line style="stroke:#A80036;stroke-width:1.5;" x1="127.5" x2="127.5" y1="347.8633" y2="367.8633"/><polygon fill="#A80036" points="123.5,357.8633,127.5,367.8633,131.5,357.8633,127.5,361.8633" style="stroke:#A80036;stroke-width:1.0;"/><line style="stroke:#A80036;stroke-width:1.5;" x1="364.5" x2="364.5" y1="347.8633" y2="367.8633"/><polygon fill="#A80036" points="360.5,357.8633,364.5,367.8633,368.5,357.8633,364.5,361.8633" style="stroke:#A80036;stroke-width:1.0;"/><line style="stroke:#A80036;stroke-width:1.5;" x1="601.5" x2="601.5" y1="347.8633" y2="367.8633"/><polygon fill="#A80036" points="597.5,357.8633,601.5,367.8633,605.5,357.8633,601.5,361.8633" style="stroke:#A80036;stroke-width:1.0;"/><line style="stroke:#A80036;stroke-width:1.5;" x1="127.5" x2="127.5" y1="510.2617" y2="530.2617"/><polygon fill="#A80036" points="123.5,520.2617,127.5,530.2617,131.5,520.2617,127.5,524.2617" style="stroke:#A80036;stroke-width:1.0;"/><line style="stroke:#A80036;stroke-width:1.5;" x1="364.5" x2="364.5" y1="510.2617" y2="530.2617"/><polygon fill="#A80036" points="360.5,520.2617,364.5,530.2617,368.5,520.2617,364.5,524.2617" style="stroke:#A80036;stroke-width:1.0;"/><line style="stroke:#A80036;stroke-width:1.5;" x1="601.5" x2="601.5" y1="510.2617" y2="530.2617"/><polygon fill="#A80036" points="597.5,520.2617,601.5,530.2617,605.5,520.2617,601.5,524.2617" style="stroke:#A80036;stroke-width:1.0;"/><line style="stroke:#A80036;stroke-width:1.5;" x1="364.5" x2="364.5" y1="321.8633" y2="341.8633"/><polygon fill="#A80036" points="360.5,331.8633,364.5,341.8633,368.5,331.8633,364.5,335.8633" style="stroke:#A80036;stroke-width:1.0;"/><line style="stroke:#A80036;stroke-width:1.5;" x1="364.5" x2="364.5" y1="536.2617" y2="556.2617"/><polygon fill="#A80036" points="360.5,546.2617,364.5,556.2617,368.5,546.2617,364.5,550.2617" style="stroke:#A80036;stroke-width:1.0;"/><line style="stroke:#A80036;stroke-width:1.5;" x1="364.5" x2="364.5" y1="590.3945" y2="610.3945"/><polygon fill="#A80036" points="360.5,600.3945,364.5,610.3945,368.5,600.3945,364.5,604.3945" style="stroke:#A80036;stroke-width:1.0;"/><line style="stroke:#A80036;stroke-width:1.5;" x1="364.5" x2="364.5" y1="644.5273" y2="664.5273"/><polygon fill="#A80036" points="360.5,654.5273,364.5,664.5273,368.5,654.5273,364.5,658.5273" style="stroke:#A80036;stroke-width:1.0;"/><!--MD5=[565ca26dc189fd7fea623fef1c4557e3]
@startuml
title Diagramme d'activité - Génération de rapport

start

:Cliquer sur le bouton "Générer rapport";

:Demander les transactions à tous les magasins;

:Recevoir les transactions de chaque magasin;

:Appliquer les filtres de rapport;

:Traiter les données par magasin;

fork
  :Générer rapport pour Magasin 1;
  :Calculer statistiques;
  :Formater les données;
fork again
  :Générer rapport pour Magasin 2;
  :Calculer statistiques;
  :Formater les données;
fork again
  :Générer rapport pour Magasin 3;
  :Calculer statistiques;
  :Formater les données;
end fork

:Consolider tous les rapports;

:Afficher le rapport final;

stop

@enduml

PlantUML version 1.2021.00(Sun Jan 10 05:25:05 EST 2021)
(MIT source distribution)
Java Runtime: OpenJDK Runtime Environment
JVM: OpenJDK 64-Bit Server VM
Default Encoding: UTF-8
Language: fr
Country: CA
--></g></svg>