<?xml version="1.0" encoding="UTF-8" standalone="no"?><svg xmlns="http://www.w3.org/2000/svg" xmlns:xlink="http://www.w3.org/1999/xlink" contentScriptType="application/ecmascript" contentStyleType="text/css" height="577px" preserveAspectRatio="none" style="width:438px;height:577px;" version="1.1" viewBox="0 0 438 577" width="438px" zoomAndPan="magnify"><defs><filter height="300%" id="f1e11lpfeffp6c" width="300%" x="-1" y="-1"><feGaussianBlur result="blurOut" stdDeviation="2.0"/><feColorMatrix in="blurOut" result="blurOut2" type="matrix" values="0 0 0 0 0 0 0 0 0 0 0 0 0 0 0 0 0 0 .4 0"/><feOffset dx="4.0" dy="4.0" in="blurOut2" result="blurOut3"/><feBlend in="SourceGraphic" in2="blurOut3" mode="normal"/></filter></defs><g><text fill="#000000" font-family="sans-serif" font-size="18" lengthAdjust="spacing" textLength="414" x="12" y="27.4023">Diagramme d'activité - Fonctionnalité de retour</text><ellipse cx="225" cy="41.1992" fill="#000000" filter="url(#f1e11lpfeffp6c)" rx="10" ry="10" style="stroke:none;stroke-width:1.0;"/><rect fill="#FEFECE" filter="url(#f1e11lpfeffp6c)" height="34.1328" rx="12.5" ry="12.5" style="stroke:#A80036;stroke-width:1.5;" width="217" x="116.5" y="71.1992"/><text fill="#000000" font-family="sans-serif" font-size="12" lengthAdjust="spacing" textLength="197" x="126.5" y="92.8008">Accéder à la liste des transactions</text><rect fill="#FEFECE" filter="url(#f1e11lpfeffp6c)" height="34.1328" rx="12.5" ry="12.5" style="stroke:#A80036;stroke-width:1.5;" width="175" x="137.5" y="125.332"/><text fill="#000000" font-family="sans-serif" font-size="12" lengthAdjust="spacing" textLength="155" x="147.5" y="146.9336">Cliquer sur une transaction</text><rect fill="#FEFECE" filter="url(#f1e11lpfeffp6c)" height="34.1328" rx="12.5" ry="12.5" style="stroke:#A80036;stroke-width:1.5;" width="191" x="129.5" y="179.4648"/><text fill="#000000" font-family="sans-serif" font-size="12" lengthAdjust="spacing" textLength="171" x="139.5" y="201.0664">Cliquer sur le bouton "Retour"</text><polygon fill="#FEFECE" filter="url(#f1e11lpfeffp6c)" points="137,233.5977,313,233.5977,325,245.5977,313,257.5977,137,257.5977,125,245.5977,137,233.5977" style="stroke:#A80036;stroke-width:1.5;"/><text fill="#000000" font-family="sans-serif" font-size="11" lengthAdjust="spacing" textLength="176" x="137" y="249.7549">Transaction éligible pour retour?</text><text fill="#000000" font-family="sans-serif" font-size="11" lengthAdjust="spacing" textLength="17" x="108" y="243.2773">oui</text><text fill="#000000" font-family="sans-serif" font-size="11" lengthAdjust="spacing" textLength="21" x="325" y="243.2773">non</text><rect fill="#FEFECE" filter="url(#f1e11lpfeffp6c)" height="34.1328" rx="12.5" ry="12.5" style="stroke:#A80036;stroke-width:1.5;" width="199" x="15.5" y="267.5977"/><text fill="#000000" font-family="sans-serif" font-size="12" lengthAdjust="spacing" textLength="179" x="25.5" y="289.1992">Afficher le formulaire de retour</text><rect fill="#FEFECE" filter="url(#f1e11lpfeffp6c)" height="34.1328" rx="12.5" ry="12.5" style="stroke:#A80036;stroke-width:1.5;" width="130" x="50" y="321.7305"/><text fill="#000000" font-family="sans-serif" font-size="12" lengthAdjust="spacing" textLength="110" x="60" y="343.332">Confirmer le retour</text><rect fill="#FEFECE" filter="url(#f1e11lpfeffp6c)" height="34.1328" rx="12.5" ry="12.5" style="stroke:#A80036;stroke-width:1.5;" width="143" x="43.5" y="375.8633"/><text fill="#000000" font-family="sans-serif" font-size="12" lengthAdjust="spacing" textLength="123" x="53.5" y="397.4648">Mettre à jour le stock</text><rect fill="#FEFECE" filter="url(#f1e11lpfeffp6c)" height="34.1328" rx="12.5" ry="12.5" style="stroke:#A80036;stroke-width:1.5;" width="202" x="14" y="429.9961"/><text fill="#000000" font-family="sans-serif" font-size="12" lengthAdjust="spacing" textLength="182" x="24" y="451.5977">Créer une transaction de retour</text><rect fill="#FEFECE" filter="url(#f1e11lpfeffp6c)" height="34.1328" rx="12.5" ry="12.5" style="stroke:#A80036;stroke-width:1.5;" width="153" x="38.5" y="484.1289"/><text fill="#000000" font-family="sans-serif" font-size="12" lengthAdjust="spacing" textLength="133" x="48.5" y="505.7305">Afficher la confirmation</text><ellipse cx="115" cy="549.2617" fill="#FFFFFF" filter="url(#f1e11lpfeffp6c)" rx="11" ry="11" style="stroke:#000000;stroke-width:1.0;"/><ellipse cx="115" cy="549.2617" fill="#000000" rx="6" ry="6" style="stroke:#7F7F7F;stroke-width:1.0;"/><rect fill="#FEFECE" filter="url(#f1e11lpfeffp6c)" height="34.1328" rx="12.5" ry="12.5" style="stroke:#A80036;stroke-width:1.5;" width="170" x="250" y="267.5977"/><text fill="#000000" font-family="sans-serif" font-size="12" lengthAdjust="spacing" textLength="150" x="260" y="289.1992">Afficher message d'erreur</text><rect fill="#FEFECE" filter="url(#f1e11lpfeffp6c)" height="34.1328" rx="12.5" ry="12.5" style="stroke:#A80036;stroke-width:1.5;" width="157" x="256.5" y="321.7305"/><text fill="#000000" font-family="sans-serif" font-size="12" lengthAdjust="spacing" textLength="137" x="266.5" y="343.332">Transaction non éligible</text><ellipse cx="335" cy="386.8633" fill="#FFFFFF" filter="url(#f1e11lpfeffp6c)" rx="11" ry="11" style="stroke:#000000;stroke-width:1.0;"/><ellipse cx="335" cy="386.8633" fill="#000000" rx="6" ry="6" style="stroke:#7F7F7F;stroke-width:1.0;"/><line style="stroke:#A80036;stroke-width:1.5;" x1="225" x2="225" y1="51.1992" y2="71.1992"/><polygon fill="#A80036" points="221,61.1992,225,71.1992,229,61.1992,225,65.1992" style="stroke:#A80036;stroke-width:1.0;"/><line style="stroke:#A80036;stroke-width:1.5;" x1="225" x2="225" y1="105.332" y2="125.332"/><polygon fill="#A80036" points="221,115.332,225,125.332,229,115.332,225,119.332" style="stroke:#A80036;stroke-width:1.0;"/><line style="stroke:#A80036;stroke-width:1.5;" x1="225" x2="225" y1="159.4648" y2="179.4648"/><polygon fill="#A80036" points="221,169.4648,225,179.4648,229,169.4648,225,173.4648" style="stroke:#A80036;stroke-width:1.0;"/><line style="stroke:#A80036;stroke-width:1.5;" x1="115" x2="115" y1="301.7305" y2="321.7305"/><polygon fill="#A80036" points="111,311.7305,115,321.7305,119,311.7305,115,315.7305" style="stroke:#A80036;stroke-width:1.0;"/><line style="stroke:#A80036;stroke-width:1.5;" x1="115" x2="115" y1="355.8633" y2="375.8633"/><polygon fill="#A80036" points="111,365.8633,115,375.8633,119,365.8633,115,369.8633" style="stroke:#A80036;stroke-width:1.0;"/><line style="stroke:#A80036;stroke-width:1.5;" x1="115" x2="115" y1="409.9961" y2="429.9961"/><polygon fill="#A80036" points="111,419.9961,115,429.9961,119,419.9961,115,423.9961" style="stroke:#A80036;stroke-width:1.0;"/><line style="stroke:#A80036;stroke-width:1.5;" x1="115" x2="115" y1="464.1289" y2="484.1289"/><polygon fill="#A80036" points="111,474.1289,115,484.1289,119,474.1289,115,478.1289" style="stroke:#A80036;stroke-width:1.0;"/><line style="stroke:#A80036;stroke-width:1.5;" x1="115" x2="115" y1="518.2617" y2="538.2617"/><polygon fill="#A80036" points="111,528.2617,115,538.2617,119,528.2617,115,532.2617" style="stroke:#A80036;stroke-width:1.0;"/><line style="stroke:#A80036;stroke-width:1.5;" x1="335" x2="335" y1="301.7305" y2="321.7305"/><polygon fill="#A80036" points="331,311.7305,335,321.7305,339,311.7305,335,315.7305" style="stroke:#A80036;stroke-width:1.0;"/><line style="stroke:#A80036;stroke-width:1.5;" x1="335" x2="335" y1="355.8633" y2="375.8633"/><polygon fill="#A80036" points="331,365.8633,335,375.8633,339,365.8633,335,369.8633" style="stroke:#A80036;stroke-width:1.0;"/><line style="stroke:#A80036;stroke-width:1.5;" x1="125" x2="115" y1="245.5977" y2="245.5977"/><line style="stroke:#A80036;stroke-width:1.5;" x1="115" x2="115" y1="245.5977" y2="267.5977"/><polygon fill="#A80036" points="111,257.5977,115,267.5977,119,257.5977,115,261.5977" style="stroke:#A80036;stroke-width:1.0;"/><line style="stroke:#A80036;stroke-width:1.5;" x1="325" x2="335" y1="245.5977" y2="245.5977"/><line style="stroke:#A80036;stroke-width:1.5;" x1="335" x2="335" y1="245.5977" y2="267.5977"/><polygon fill="#A80036" points="331,257.5977,335,267.5977,339,257.5977,335,261.5977" style="stroke:#A80036;stroke-width:1.0;"/><line style="stroke:#A80036;stroke-width:1.5;" x1="225" x2="225" y1="213.5977" y2="233.5977"/><polygon fill="#A80036" points="221,223.5977,225,233.5977,229,223.5977,225,227.5977" style="stroke:#A80036;stroke-width:1.0;"/><!--MD5=[1f5e72b1ae136430642d47fc345a2edb]
@startuml
title Diagramme d'activité - Fonctionnalité de retour

start

:Accéder à la liste des transactions;

:Cliquer sur une transaction;

:Cliquer sur le bouton "Retour";

if (Transaction éligible pour retour?) then (oui)
  :Afficher le formulaire de retour;
  
  
  :Confirmer le retour;
  
  :Mettre à jour le stock;
  
  :Créer une transaction de retour;
  
  :Afficher la confirmation;
  
  stop
else (non)
  :Afficher message d'erreur;
  
  :Transaction non éligible;
  
  stop
endif

@enduml

PlantUML version 1.2021.00(Sun Jan 10 05:25:05 EST 2021)
(MIT source distribution)
Java Runtime: OpenJDK Runtime Environment
JVM: OpenJDK 64-Bit Server VM
Default Encoding: UTF-8
Language: fr
Country: CA
--></g></svg>