<?xml version="1.0" encoding="us-ascii" standalone="no"?><svg xmlns="http://www.w3.org/2000/svg" xmlns:xlink="http://www.w3.org/1999/xlink" contentStyleType="text/css" height="586px" preserveAspectRatio="none" style="width:453px;height:586px;background:#FFFFFF;" version="1.1" viewBox="0 0 453 586" width="453px" zoomAndPan="magnify"><defs/><g><text fill="#000000" font-family="sans-serif" font-size="14" font-weight="bold" lengthAdjust="spacing" textLength="371" x="39.75" y="32.9951">Diagramme d'activit&#233; - Fonctionnalit&#233; de retour</text><ellipse cx="236.5" cy="57.2969" fill="#222222" rx="10" ry="10" style="stroke:#222222;stroke-width:1.0;"/><rect fill="#F1F1F1" height="33.9688" rx="12.5" ry="12.5" style="stroke:#181818;stroke-width:0.5;" width="238" x="117.5" y="87.2969"/><text fill="#000000" font-family="sans-serif" font-size="12" lengthAdjust="spacing" textLength="218" x="127.5" y="108.4355">Acc&#233;der &#224; la liste des transactions</text><rect fill="#F1F1F1" height="33.9688" rx="12.5" ry="12.5" style="stroke:#181818;stroke-width:0.5;" width="191" x="141" y="141.2656"/><text fill="#000000" font-family="sans-serif" font-size="12" lengthAdjust="spacing" textLength="171" x="151" y="162.4043">Cliquer sur une transaction</text><rect fill="#F1F1F1" height="33.9688" rx="12.5" ry="12.5" style="stroke:#181818;stroke-width:0.5;" width="207" x="133" y="195.2344"/><text fill="#000000" font-family="sans-serif" font-size="12" lengthAdjust="spacing" textLength="187" x="143" y="216.373">Cliquer sur le bouton "Retour"</text><polygon fill="#F1F1F1" points="143.5,249.2031,329.5,249.2031,341.5,261.2031,329.5,273.2031,143.5,273.2031,131.5,261.2031,143.5,249.2031" style="stroke:#181818;stroke-width:0.5;"/><text fill="#000000" font-family="sans-serif" font-size="11" lengthAdjust="spacing" textLength="186" x="143.5" y="265.0112">Transaction &#233;ligible pour retour?</text><text fill="#000000" font-family="sans-serif" font-size="11" lengthAdjust="spacing" textLength="17" x="114.5" y="258.6089">oui</text><text fill="#000000" font-family="sans-serif" font-size="11" lengthAdjust="spacing" textLength="21" x="341.5" y="258.6089">non</text><rect fill="#F1F1F1" height="33.9688" rx="12.5" ry="12.5" style="stroke:#181818;stroke-width:0.5;" width="212" x="15.5" y="283.2031"/><text fill="#000000" font-family="sans-serif" font-size="12" lengthAdjust="spacing" textLength="192" x="25.5" y="304.3418">Afficher le formulaire de retour</text><rect fill="#F1F1F1" height="33.9688" rx="12.5" ry="12.5" style="stroke:#181818;stroke-width:0.5;" width="138" x="52.5" y="337.1719"/><text fill="#000000" font-family="sans-serif" font-size="12" lengthAdjust="spacing" textLength="118" x="62.5" y="358.3105">Confirmer le retour</text><rect fill="#F1F1F1" height="33.9688" rx="12.5" ry="12.5" style="stroke:#181818;stroke-width:0.5;" width="154" x="44.5" y="391.1406"/><text fill="#000000" font-family="sans-serif" font-size="12" lengthAdjust="spacing" textLength="134" x="54.5" y="412.2793">Mettre &#224; jour le stock</text><rect fill="#F1F1F1" height="33.9688" rx="12.5" ry="12.5" style="stroke:#181818;stroke-width:0.5;" width="221" x="11" y="445.1094"/><text fill="#000000" font-family="sans-serif" font-size="12" lengthAdjust="spacing" textLength="201" x="21" y="466.248">Cr&#233;er une transaction de retour</text><rect fill="#F1F1F1" height="33.9688" rx="12.5" ry="12.5" style="stroke:#181818;stroke-width:0.5;" width="164" x="39.5" y="499.0781"/><text fill="#000000" font-family="sans-serif" font-size="12" lengthAdjust="spacing" textLength="144" x="49.5" y="520.2168">Afficher la confirmation</text><ellipse cx="121.5" cy="564.0469" fill="none" rx="11" ry="11" style="stroke:#222222;stroke-width:1.0;"/><ellipse cx="121.5" cy="564.0469" fill="#222222" rx="6" ry="6" style="stroke:#222222;stroke-width:1.0;"/><rect fill="#F1F1F1" height="33.9688" rx="12.5" ry="12.5" style="stroke:#181818;stroke-width:0.5;" width="182" x="260.5" y="283.2031"/><text fill="#000000" font-family="sans-serif" font-size="12" lengthAdjust="spacing" textLength="162" x="270.5" y="304.3418">Afficher message d'erreur</text><rect fill="#F1F1F1" height="33.9688" rx="12.5" ry="12.5" style="stroke:#181818;stroke-width:0.5;" width="170" x="266.5" y="337.1719"/><text fill="#000000" font-family="sans-serif" font-size="12" lengthAdjust="spacing" textLength="150" x="276.5" y="358.3105">Transaction non &#233;ligible</text><ellipse cx="351.5" cy="402.1406" fill="none" rx="11" ry="11" style="stroke:#222222;stroke-width:1.0;"/><ellipse cx="351.5" cy="402.1406" fill="#222222" rx="6" ry="6" style="stroke:#222222;stroke-width:1.0;"/><line style="stroke:#181818;stroke-width:1.0;" x1="236.5" x2="236.5" y1="67.2969" y2="87.2969"/><polygon fill="#181818" points="232.5,77.2969,236.5,87.2969,240.5,77.2969,236.5,81.2969" style="stroke:#181818;stroke-width:1.0;"/><line style="stroke:#181818;stroke-width:1.0;" x1="236.5" x2="236.5" y1="121.2656" y2="141.2656"/><polygon fill="#181818" points="232.5,131.2656,236.5,141.2656,240.5,131.2656,236.5,135.2656" style="stroke:#181818;stroke-width:1.0;"/><line style="stroke:#181818;stroke-width:1.0;" x1="236.5" x2="236.5" y1="175.2344" y2="195.2344"/><polygon fill="#181818" points="232.5,185.2344,236.5,195.2344,240.5,185.2344,236.5,189.2344" style="stroke:#181818;stroke-width:1.0;"/><line style="stroke:#181818;stroke-width:1.0;" x1="121.5" x2="121.5" y1="317.1719" y2="337.1719"/><polygon fill="#181818" points="117.5,327.1719,121.5,337.1719,125.5,327.1719,121.5,331.1719" style="stroke:#181818;stroke-width:1.0;"/><line style="stroke:#181818;stroke-width:1.0;" x1="121.5" x2="121.5" y1="371.1406" y2="391.1406"/><polygon fill="#181818" points="117.5,381.1406,121.5,391.1406,125.5,381.1406,121.5,385.1406" style="stroke:#181818;stroke-width:1.0;"/><line style="stroke:#181818;stroke-width:1.0;" x1="121.5" x2="121.5" y1="425.1094" y2="445.1094"/><polygon fill="#181818" points="117.5,435.1094,121.5,445.1094,125.5,435.1094,121.5,439.1094" style="stroke:#181818;stroke-width:1.0;"/><line style="stroke:#181818;stroke-width:1.0;" x1="121.5" x2="121.5" y1="479.0781" y2="499.0781"/><polygon fill="#181818" points="117.5,489.0781,121.5,499.0781,125.5,489.0781,121.5,493.0781" style="stroke:#181818;stroke-width:1.0;"/><line style="stroke:#181818;stroke-width:1.0;" x1="121.5" x2="121.5" y1="533.0469" y2="553.0469"/><polygon fill="#181818" points="117.5,543.0469,121.5,553.0469,125.5,543.0469,121.5,547.0469" style="stroke:#181818;stroke-width:1.0;"/><line style="stroke:#181818;stroke-width:1.0;" x1="351.5" x2="351.5" y1="317.1719" y2="337.1719"/><polygon fill="#181818" points="347.5,327.1719,351.5,337.1719,355.5,327.1719,351.5,331.1719" style="stroke:#181818;stroke-width:1.0;"/><line style="stroke:#181818;stroke-width:1.0;" x1="351.5" x2="351.5" y1="371.1406" y2="391.1406"/><polygon fill="#181818" points="347.5,381.1406,351.5,391.1406,355.5,381.1406,351.5,385.1406" style="stroke:#181818;stroke-width:1.0;"/><line style="stroke:#181818;stroke-width:1.0;" x1="131.5" x2="121.5" y1="261.2031" y2="261.2031"/><line style="stroke:#181818;stroke-width:1.0;" x1="121.5" x2="121.5" y1="261.2031" y2="283.2031"/><polygon fill="#181818" points="117.5,273.2031,121.5,283.2031,125.5,273.2031,121.5,277.2031" style="stroke:#181818;stroke-width:1.0;"/><line style="stroke:#181818;stroke-width:1.0;" x1="341.5" x2="351.5" y1="261.2031" y2="261.2031"/><line style="stroke:#181818;stroke-width:1.0;" x1="351.5" x2="351.5" y1="261.2031" y2="283.2031"/><polygon fill="#181818" points="347.5,273.2031,351.5,283.2031,355.5,273.2031,351.5,277.2031" style="stroke:#181818;stroke-width:1.0;"/><line style="stroke:#181818;stroke-width:1.0;" x1="236.5" x2="236.5" y1="229.2031" y2="249.2031"/><polygon fill="#181818" points="232.5,239.2031,236.5,249.2031,240.5,239.2031,236.5,243.2031" style="stroke:#181818;stroke-width:1.0;"/><!--SRC=[PL5BKiCm3Dtx59fkI1TS85qmdJ3is31SG4taLE3OHPOv3zkS8nT39319wOmtzdjw7rbP0y4ZOoyu30JT7RRAdwpJ2FVmbABTKemOvfUEG4XJ4UUoegXpzR5jfx4ZWUaB0aBWhAP26LGmPfp7yy68JU2FOhnS14gaBVuVjaIdL3H5sBtCTZjZi8VgTPs1QGpSyycu5sFyvdhOWvufGfKAxnr0VVIUspFDcZx9K0Aoq5haOAJbr4sAdcLOk5Te_KogDcKLtzAIBsjgt__WHgQHRbhTc6p28BIB6oxzPzmqBuv29gXYYjVn1yeP-v__8H5Q9RSRYTkjN6d6Zhtx1W00]--></g></svg>