<?xml version="1.0" encoding="us-ascii" standalone="no"?><svg xmlns="http://www.w3.org/2000/svg" xmlns:xlink="http://www.w3.org/1999/xlink" contentStyleType="text/css" height="478px" preserveAspectRatio="none" style="width:630px;height:478px;background:#FFFFFF;" version="1.1" viewBox="0 0 630 478" width="630px" zoomAndPan="magnify"><defs/><g><text fill="#000000" font-family="sans-serif" font-size="14" font-weight="bold" lengthAdjust="spacing" textLength="490" x="68.5" y="32.9951">Diagramme d'activit&#233; - Fonctionnalit&#233; de r&#233;approvisionnement</text><ellipse cx="321" cy="57.2969" fill="#222222" rx="10" ry="10" style="stroke:#222222;stroke-width:1.0;"/><rect fill="#F1F1F1" height="33.9688" rx="12.5" ry="12.5" style="stroke:#181818;stroke-width:0.5;" width="274" x="184" y="87.2969"/><text fill="#000000" font-family="sans-serif" font-size="12" lengthAdjust="spacing" textLength="254" x="194" y="108.4355">Cliquer sur le bouton "R&#233;approvisionner"</text><rect fill="#F1F1F1" height="33.9688" rx="12.5" ry="12.5" style="stroke:#181818;stroke-width:0.5;" width="187" x="227.5" y="141.2656"/><text fill="#000000" font-family="sans-serif" font-size="12" lengthAdjust="spacing" textLength="167" x="237.5" y="162.4043">Alerter le centre logistique</text><rect fill="#F1F1F1" height="33.9688" rx="12.5" ry="12.5" style="stroke:#181818;stroke-width:0.5;" width="245" x="198.5" y="195.2344"/><text fill="#000000" font-family="sans-serif" font-size="12" lengthAdjust="spacing" textLength="225" x="208.5" y="216.373">Centre logistique re&#231;oit la demande</text><polygon fill="#F1F1F1" points="263.5,249.2031,378.5,249.2031,390.5,261.2031,378.5,273.2031,263.5,273.2031,251.5,261.2031,263.5,249.2031" style="stroke:#181818;stroke-width:0.5;"/><text fill="#000000" font-family="sans-serif" font-size="11" lengthAdjust="spacing" textLength="115" x="263.5" y="265.0112">Demande accept&#233;e?</text><text fill="#000000" font-family="sans-serif" font-size="11" lengthAdjust="spacing" textLength="17" x="234.5" y="258.6089">oui</text><text fill="#000000" font-family="sans-serif" font-size="11" lengthAdjust="spacing" textLength="21" x="390.5" y="258.6089">non</text><rect fill="#F1F1F1" height="33.9688" rx="12.5" ry="12.5" style="stroke:#181818;stroke-width:0.5;" width="281" x="23.5" y="283.2031"/><text fill="#000000" font-family="sans-serif" font-size="12" lengthAdjust="spacing" textLength="261" x="33.5" y="304.3418">R&#233;duire le stock dans le centre logistique</text><rect fill="#F1F1F1" height="33.9688" rx="12.5" ry="12.5" style="stroke:#181818;stroke-width:0.5;" width="249" x="39.5" y="337.1719"/><text fill="#000000" font-family="sans-serif" font-size="12" lengthAdjust="spacing" textLength="229" x="49.5" y="358.3105">Augmenter le stock dans le magasin</text><rect fill="#F1F1F1" height="33.9688" rx="12.5" ry="12.5" style="stroke:#181818;stroke-width:0.5;" width="306" x="11" y="391.1406"/><text fill="#000000" font-family="sans-serif" font-size="12" lengthAdjust="spacing" textLength="286" x="21" y="412.2793">Afficher confirmation de r&#233;approvisionnement</text><ellipse cx="164" cy="456.1094" fill="none" rx="11" ry="11" style="stroke:#222222;stroke-width:1.0;"/><ellipse cx="164" cy="456.1094" fill="#222222" rx="6" ry="6" style="stroke:#222222;stroke-width:1.0;"/><rect fill="#F1F1F1" height="33.9688" rx="12.5" ry="12.5" style="stroke:#181818;stroke-width:0.5;" width="282" x="337" y="283.2031"/><text fill="#000000" font-family="sans-serif" font-size="12" lengthAdjust="spacing" textLength="262" x="347" y="304.3418">Demande refus&#233;e par le centre logistique</text><ellipse cx="478" cy="348.1719" fill="none" rx="11" ry="11" style="stroke:#222222;stroke-width:1.0;"/><ellipse cx="478" cy="348.1719" fill="#222222" rx="6" ry="6" style="stroke:#222222;stroke-width:1.0;"/><line style="stroke:#181818;stroke-width:1.0;" x1="321" x2="321" y1="67.2969" y2="87.2969"/><polygon fill="#181818" points="317,77.2969,321,87.2969,325,77.2969,321,81.2969" style="stroke:#181818;stroke-width:1.0;"/><line style="stroke:#181818;stroke-width:1.0;" x1="321" x2="321" y1="121.2656" y2="141.2656"/><polygon fill="#181818" points="317,131.2656,321,141.2656,325,131.2656,321,135.2656" style="stroke:#181818;stroke-width:1.0;"/><line style="stroke:#181818;stroke-width:1.0;" x1="321" x2="321" y1="175.2344" y2="195.2344"/><polygon fill="#181818" points="317,185.2344,321,195.2344,325,185.2344,321,189.2344" style="stroke:#181818;stroke-width:1.0;"/><line style="stroke:#181818;stroke-width:1.0;" x1="164" x2="164" y1="317.1719" y2="337.1719"/><polygon fill="#181818" points="160,327.1719,164,337.1719,168,327.1719,164,331.1719" style="stroke:#181818;stroke-width:1.0;"/><line style="stroke:#181818;stroke-width:1.0;" x1="164" x2="164" y1="371.1406" y2="391.1406"/><polygon fill="#181818" points="160,381.1406,164,391.1406,168,381.1406,164,385.1406" style="stroke:#181818;stroke-width:1.0;"/><line style="stroke:#181818;stroke-width:1.0;" x1="164" x2="164" y1="425.1094" y2="445.1094"/><polygon fill="#181818" points="160,435.1094,164,445.1094,168,435.1094,164,439.1094" style="stroke:#181818;stroke-width:1.0;"/><line style="stroke:#181818;stroke-width:1.0;" x1="478" x2="478" y1="317.1719" y2="337.1719"/><polygon fill="#181818" points="474,327.1719,478,337.1719,482,327.1719,478,331.1719" style="stroke:#181818;stroke-width:1.0;"/><line style="stroke:#181818;stroke-width:1.0;" x1="251.5" x2="164" y1="261.2031" y2="261.2031"/><line style="stroke:#181818;stroke-width:1.0;" x1="164" x2="164" y1="261.2031" y2="283.2031"/><polygon fill="#181818" points="160,273.2031,164,283.2031,168,273.2031,164,277.2031" style="stroke:#181818;stroke-width:1.0;"/><line style="stroke:#181818;stroke-width:1.0;" x1="390.5" x2="478" y1="261.2031" y2="261.2031"/><line style="stroke:#181818;stroke-width:1.0;" x1="478" x2="478" y1="261.2031" y2="283.2031"/><polygon fill="#181818" points="474,273.2031,478,283.2031,482,273.2031,478,277.2031" style="stroke:#181818;stroke-width:1.0;"/><line style="stroke:#181818;stroke-width:1.0;" x1="321" x2="321" y1="229.2031" y2="249.2031"/><polygon fill="#181818" points="317,239.2031,321,249.2031,325,239.2031,321,243.2031" style="stroke:#181818;stroke-width:1.0;"/><!--SRC=[VP11JWCn34NtSmgh6wOBBb0Mg6h50RY1IPofHU8CZjChePvZBaOo1IGgbLLa-_-NRnjR93WoJeef4VW7TCPdjkK2Z_2IfLLP1EFQyGIwN72UDP-vz04b4Xk6OgZjsHqYVrHIA5MXSTzojIomURqnwUQfYVUHr6WLkaPHWfWdBjOHVNwuROBIyfdP86ABab1yrt60yNYj09sZkIMbvotOYGJ6N7ax0EnQ15-vumYAPVSE7gNS-HkWM_PrwjjT4_xr99omiFmgGs1tQaAN9R0cx4UxTwrlKmFE0yL2C4gMDUFF5agXbhO4pAZ_9RmYn7COlW00]--></g></svg>