<?xml version="1.0" encoding="us-ascii" standalone="no"?><svg xmlns="http://www.w3.org/2000/svg" xmlns:xlink="http://www.w3.org/1999/xlink" contentStyleType="text/css" height="867px" preserveAspectRatio="none" style="width:738px;height:867px;background:#FFFFFF;" version="1.1" viewBox="0 0 738 867" width="738px" zoomAndPan="magnify"><defs/><g><text fill="#000000" font-family="sans-serif" font-size="14" font-weight="bold" lengthAdjust="spacing" textLength="246" x="239" y="22.9951">Mod&#232;le selon le domaine (DDD)</text><!--cluster Maison m?re--><g id="cluster_Maison m&#232;re"><rect fill="none" height="590" rx="2.5" ry="2.5" style="stroke:#181818;stroke-width:1.0;" width="327" x="405" y="44.2969"/><path d="M516,44.2969 L516,53.5938 L506,63.5938 L405,63.5938 " fill="none" style="stroke:#181818;stroke-width:1.0;"/><text fill="#000000" font-family="sans-serif" font-size="14" font-weight="bold" lengthAdjust="spacing" textLength="101" x="408" y="58.292">Maison m&#232;re</text></g><!--cluster Magasin--><g id="cluster_Magasin"><rect fill="none" height="351.5" rx="2.5" ry="2.5" style="stroke:#181818;stroke-width:1.0;" width="374" x="7" y="44.2969"/><path d="M81,44.2969 L81,53.5938 L71,63.5938 L7,63.5938 " fill="none" style="stroke:#181818;stroke-width:1.0;"/><text fill="#000000" font-family="sans-serif" font-size="14" font-weight="bold" lengthAdjust="spacing" textLength="64" x="10" y="58.292">Magasin</text></g><!--cluster Centre de logistique--><g id="cluster_Centre de logistique"><rect fill="none" height="410" rx="2.5" ry="2.5" style="stroke:#181818;stroke-width:1.0;" width="184" x="65" y="451.2969"/><path d="M236,451.2969 L236,460.5938 L226,470.5938 L65,470.5938 " fill="none" style="stroke:#181818;stroke-width:1.0;"/><text fill="#000000" font-family="sans-serif" font-size="14" font-weight="bold" lengthAdjust="spacing" textLength="161" x="68" y="465.292">Centre de logistique</text></g><!--class Employe--><g id="elem_Employe"><rect codeLine="8" fill="#F1F1F1" height="115.7813" id="Employe" rx="2.5" ry="2.5" style="stroke:#181818;stroke-width:0.5;" width="171" x="421.5" y="272.2969"/><text fill="#000000" font-family="sans-serif" font-size="14" lengthAdjust="spacing" textLength="59" x="477.5" y="290.292">Employe</text><line style="stroke:#181818;stroke-width:0.5;" x1="422.5" x2="591.5" y1="298.5938" y2="298.5938"/><rect fill="none" height="6" style="stroke:#C82930;stroke-width:1.0;" width="6" x="429.5" y="309.2422"/><text fill="#000000" font-family="sans-serif" font-size="14" lengthAdjust="spacing" textLength="38" x="441.5" y="315.5889">id: int</text><rect fill="none" height="6" style="stroke:#C82930;stroke-width:1.0;" width="6" x="429.5" y="325.5391"/><text fill="#000000" font-family="sans-serif" font-size="14" lengthAdjust="spacing" textLength="79" x="441.5" y="331.8857">nom: string</text><rect fill="none" height="6" style="stroke:#C82930;stroke-width:1.0;" width="6" x="429.5" y="341.8359"/><text fill="#000000" font-family="sans-serif" font-size="14" lengthAdjust="spacing" textLength="74" x="441.5" y="348.1826">role: string</text><rect fill="none" height="6" style="stroke:#C82930;stroke-width:1.0;" width="6" x="429.5" y="358.1328"/><text fill="#000000" font-family="sans-serif" font-size="14" lengthAdjust="spacing" textLength="84" x="441.5" y="364.4795">email: string</text><rect fill="none" height="6" style="stroke:#C82930;stroke-width:1.0;" width="6" x="429.5" y="374.4297"/><text fill="#000000" font-family="sans-serif" font-size="14" lengthAdjust="spacing" textLength="145" x="441.5" y="380.7764">dateEmbauche: date</text></g><!--class Transaction--><g id="elem_Transaction"><rect codeLine="16" fill="#F1F1F1" height="148.375" id="Transaction" rx="2.5" ry="2.5" style="stroke:#181818;stroke-width:0.5;" width="127" x="432.5" y="470.2969"/><text fill="#000000" font-family="sans-serif" font-size="14" lengthAdjust="spacing" textLength="81" x="455.5" y="488.292">Transaction</text><line style="stroke:#181818;stroke-width:0.5;" x1="433.5" x2="558.5" y1="496.5938" y2="496.5938"/><rect fill="none" height="6" style="stroke:#C82930;stroke-width:1.0;" width="6" x="440.5" y="507.2422"/><text fill="#000000" font-family="sans-serif" font-size="14" lengthAdjust="spacing" textLength="38" x="452.5" y="513.5889">id: int</text><rect fill="none" height="6" style="stroke:#C82930;stroke-width:1.0;" width="6" x="440.5" y="523.5391"/><text fill="#000000" font-family="sans-serif" font-size="14" lengthAdjust="spacing" textLength="68" x="452.5" y="529.8857">total: float</text><rect fill="none" height="6" style="stroke:#C82930;stroke-width:1.0;" width="6" x="440.5" y="539.8359"/><text fill="#000000" font-family="sans-serif" font-size="14" lengthAdjust="spacing" textLength="78" x="452.5" y="546.1826">type: string</text><rect fill="none" height="6" style="stroke:#C82930;stroke-width:1.0;" width="6" x="440.5" y="556.1328"/><text fill="#000000" font-family="sans-serif" font-size="14" lengthAdjust="spacing" textLength="101" x="452.5" y="562.4795">date: datetime</text><rect fill="none" height="6" style="stroke:#C82930;stroke-width:1.0;" width="6" x="440.5" y="572.4297"/><text fill="#000000" font-family="sans-serif" font-size="14" lengthAdjust="spacing" textLength="97" x="452.5" y="578.7764">employeId: int</text><rect fill="none" height="6" style="stroke:#C82930;stroke-width:1.0;" width="6" x="440.5" y="588.7266"/><text fill="#000000" font-family="sans-serif" font-size="14" lengthAdjust="spacing" textLength="82" x="452.5" y="595.0732">caisseId: int</text><rect fill="none" height="6" style="stroke:#C82930;stroke-width:1.0;" width="6" x="440.5" y="605.0234"/><text fill="#000000" font-family="sans-serif" font-size="14" lengthAdjust="spacing" textLength="88" x="452.5" y="611.3701">statut: string</text></g><!--class DBMere--><g id="elem_DBMere"><rect codeLine="26" fill="#F1F1F1" height="115.7813" id="DBMere" rx="2.5" ry="2.5" style="stroke:#181818;stroke-width:0.5;" width="144" x="537" y="79.2969"/><text fill="#000000" font-family="sans-serif" font-size="14" lengthAdjust="spacing" textLength="56" x="581" y="97.292">DBMere</text><line style="stroke:#181818;stroke-width:0.5;" x1="538" x2="680" y1="105.5938" y2="105.5938"/><rect fill="none" height="6" style="stroke:#C82930;stroke-width:1.0;" width="6" x="545" y="116.2422"/><text fill="#000000" font-family="sans-serif" font-size="14" lengthAdjust="spacing" textLength="79" x="557" y="122.5889">host: string</text><rect fill="none" height="6" style="stroke:#C82930;stroke-width:1.0;" width="6" x="545" y="132.5391"/><text fill="#000000" font-family="sans-serif" font-size="14" lengthAdjust="spacing" textLength="54" x="557" y="138.8857">port: int</text><rect fill="none" height="6" style="stroke:#C82930;stroke-width:1.0;" width="6" x="545" y="148.8359"/><text fill="#000000" font-family="sans-serif" font-size="14" lengthAdjust="spacing" textLength="112" x="557" y="155.1826">database: string</text><rect fill="none" height="6" style="stroke:#C82930;stroke-width:1.0;" width="6" x="545" y="165.1328"/><text fill="#000000" font-family="sans-serif" font-size="14" lengthAdjust="spacing" textLength="118" x="557" y="171.4795">username: string</text><rect fill="none" height="6" style="stroke:#C82930;stroke-width:1.0;" width="6" x="545" y="181.4297"/><text fill="#000000" font-family="sans-serif" font-size="14" lengthAdjust="spacing" textLength="115" x="557" y="187.7764">password: string</text></g><!--class Caisse--><g id="elem_Caisse"><rect codeLine="36" fill="#F1F1F1" height="99.4844" id="Caisse" rx="2.5" ry="2.5" style="stroke:#181818;stroke-width:0.5;" width="122" x="243" y="280.7969"/><text fill="#000000" font-family="sans-serif" font-size="14" lengthAdjust="spacing" textLength="46" x="281" y="298.792">Caisse</text><line style="stroke:#181818;stroke-width:0.5;" x1="244" x2="364" y1="307.0938" y2="307.0938"/><rect fill="none" height="6" style="stroke:#C82930;stroke-width:1.0;" width="6" x="251" y="317.7422"/><text fill="#000000" font-family="sans-serif" font-size="14" lengthAdjust="spacing" textLength="38" x="263" y="324.0889">id: int</text><rect fill="none" height="6" style="stroke:#C82930;stroke-width:1.0;" width="6" x="251" y="334.0391"/><text fill="#000000" font-family="sans-serif" font-size="14" lengthAdjust="spacing" textLength="79" x="263" y="340.3857">nom: string</text><rect fill="none" height="6" style="stroke:#C82930;stroke-width:1.0;" width="6" x="251" y="350.3359"/><text fill="#000000" font-family="sans-serif" font-size="14" lengthAdjust="spacing" textLength="88" x="263" y="356.6826">statut: string</text><rect fill="none" height="6" style="stroke:#C82930;stroke-width:1.0;" width="6" x="251" y="366.6328"/><text fill="#000000" font-family="sans-serif" font-size="14" lengthAdjust="spacing" textLength="96" x="263" y="372.9795">magasinId: int</text></g><!--class Panier--><g id="elem_Panier"><rect codeLine="43" fill="#F1F1F1" height="83.1875" id="Panier" rx="2.5" ry="2.5" style="stroke:#181818;stroke-width:0.5;" width="185" x="22.5" y="288.7969"/><text fill="#000000" font-family="sans-serif" font-size="14" lengthAdjust="spacing" textLength="43" x="93.5" y="306.792">Panier</text><line style="stroke:#181818;stroke-width:0.5;" x1="23.5" x2="206.5" y1="315.0938" y2="315.0938"/><rect fill="none" height="6" style="stroke:#C82930;stroke-width:1.0;" width="6" x="30.5" y="325.7422"/><text fill="#000000" font-family="sans-serif" font-size="14" lengthAdjust="spacing" textLength="38" x="42.5" y="332.0889">id: int</text><rect fill="none" height="6" style="stroke:#C82930;stroke-width:1.0;" width="6" x="30.5" y="342.0391"/><text fill="#000000" font-family="sans-serif" font-size="14" lengthAdjust="spacing" textLength="82" x="42.5" y="348.3857">caisseId: int</text><rect fill="none" height="6" style="stroke:#C82930;stroke-width:1.0;" width="6" x="30.5" y="358.3359"/><text fill="#000000" font-family="sans-serif" font-size="14" lengthAdjust="spacing" textLength="159" x="42.5" y="364.6826">dateCreation: datetime</text></g><!--class DBMagasin--><g id="elem_DBMagasin"><rect codeLine="49" fill="#F1F1F1" height="115.7813" id="DBMagasin" rx="2.5" ry="2.5" style="stroke:#181818;stroke-width:0.5;" width="144" x="113" y="79.2969"/><text fill="#000000" font-family="sans-serif" font-size="14" lengthAdjust="spacing" textLength="78" x="146" y="97.292">DBMagasin</text><line style="stroke:#181818;stroke-width:0.5;" x1="114" x2="256" y1="105.5938" y2="105.5938"/><rect fill="none" height="6" style="stroke:#C82930;stroke-width:1.0;" width="6" x="121" y="116.2422"/><text fill="#000000" font-family="sans-serif" font-size="14" lengthAdjust="spacing" textLength="79" x="133" y="122.5889">host: string</text><rect fill="none" height="6" style="stroke:#C82930;stroke-width:1.0;" width="6" x="121" y="132.5391"/><text fill="#000000" font-family="sans-serif" font-size="14" lengthAdjust="spacing" textLength="54" x="133" y="138.8857">port: int</text><rect fill="none" height="6" style="stroke:#C82930;stroke-width:1.0;" width="6" x="121" y="148.8359"/><text fill="#000000" font-family="sans-serif" font-size="14" lengthAdjust="spacing" textLength="112" x="133" y="155.1826">database: string</text><rect fill="none" height="6" style="stroke:#C82930;stroke-width:1.0;" width="6" x="121" y="165.1328"/><text fill="#000000" font-family="sans-serif" font-size="14" lengthAdjust="spacing" textLength="118" x="133" y="171.4795">username: string</text><rect fill="none" height="6" style="stroke:#C82930;stroke-width:1.0;" width="6" x="121" y="181.4297"/><text fill="#000000" font-family="sans-serif" font-size="14" lengthAdjust="spacing" textLength="115" x="133" y="187.7764">password: string</text></g><!--class Produit--><g id="elem_Produit"><rect codeLine="59" fill="#F1F1F1" height="148.375" id="Produit" rx="2.5" ry="2.5" style="stroke:#181818;stroke-width:0.5;" width="151" x="81.5" y="697.2969"/><text fill="#000000" font-family="sans-serif" font-size="14" lengthAdjust="spacing" textLength="49" x="132.5" y="715.292">Produit</text><line style="stroke:#181818;stroke-width:0.5;" x1="82.5" x2="231.5" y1="723.5938" y2="723.5938"/><rect fill="none" height="6" style="stroke:#C82930;stroke-width:1.0;" width="6" x="89.5" y="734.2422"/><text fill="#000000" font-family="sans-serif" font-size="14" lengthAdjust="spacing" textLength="38" x="101.5" y="740.5889">id: int</text><rect fill="none" height="6" style="stroke:#C82930;stroke-width:1.0;" width="6" x="89.5" y="750.5391"/><text fill="#000000" font-family="sans-serif" font-size="14" lengthAdjust="spacing" textLength="79" x="101.5" y="756.8857">nom: string</text><rect fill="none" height="6" style="stroke:#C82930;stroke-width:1.0;" width="6" x="89.5" y="766.8359"/><text fill="#000000" font-family="sans-serif" font-size="14" lengthAdjust="spacing" textLength="62" x="101.5" y="773.1826">prix: float</text><rect fill="none" height="6" style="stroke:#C82930;stroke-width:1.0;" width="6" x="89.5" y="783.1328"/><text fill="#000000" font-family="sans-serif" font-size="14" lengthAdjust="spacing" textLength="113" x="101.5" y="789.4795">categorie: string</text><rect fill="none" height="6" style="stroke:#C82930;stroke-width:1.0;" width="6" x="89.5" y="799.4297"/><text fill="#000000" font-family="sans-serif" font-size="14" lengthAdjust="spacing" textLength="83" x="101.5" y="805.7764">quantite: int</text><rect fill="none" height="6" style="stroke:#C82930;stroke-width:1.0;" width="6" x="89.5" y="815.7266"/><text fill="#000000" font-family="sans-serif" font-size="14" lengthAdjust="spacing" textLength="98" x="101.5" y="822.0732">seuilAlerte: int</text><rect fill="none" height="6" style="stroke:#C82930;stroke-width:1.0;" width="6" x="89.5" y="832.0234"/><text fill="#000000" font-family="sans-serif" font-size="14" lengthAdjust="spacing" textLength="125" x="101.5" y="838.3701">description: string</text></g><!--class DBProduit--><g id="elem_DBProduit"><rect codeLine="69" fill="#F1F1F1" height="115.7813" id="DBProduit" rx="2.5" ry="2.5" style="stroke:#181818;stroke-width:0.5;" width="144" x="81" y="486.2969"/><text fill="#000000" font-family="sans-serif" font-size="14" lengthAdjust="spacing" textLength="70" x="118" y="504.292">DBProduit</text><line style="stroke:#181818;stroke-width:0.5;" x1="82" x2="224" y1="512.5938" y2="512.5938"/><rect fill="none" height="6" style="stroke:#C82930;stroke-width:1.0;" width="6" x="89" y="523.2422"/><text fill="#000000" font-family="sans-serif" font-size="14" lengthAdjust="spacing" textLength="79" x="101" y="529.5889">host: string</text><rect fill="none" height="6" style="stroke:#C82930;stroke-width:1.0;" width="6" x="89" y="539.5391"/><text fill="#000000" font-family="sans-serif" font-size="14" lengthAdjust="spacing" textLength="54" x="101" y="545.8857">port: int</text><rect fill="none" height="6" style="stroke:#C82930;stroke-width:1.0;" width="6" x="89" y="555.8359"/><text fill="#000000" font-family="sans-serif" font-size="14" lengthAdjust="spacing" textLength="112" x="101" y="562.1826">database: string</text><rect fill="none" height="6" style="stroke:#C82930;stroke-width:1.0;" width="6" x="89" y="572.1328"/><text fill="#000000" font-family="sans-serif" font-size="14" lengthAdjust="spacing" textLength="118" x="101" y="578.4795">username: string</text><rect fill="none" height="6" style="stroke:#C82930;stroke-width:1.0;" width="6" x="89" y="588.4297"/><text fill="#000000" font-family="sans-serif" font-size="14" lengthAdjust="spacing" textLength="115" x="101" y="594.7764">password: string</text></g><!--link Employe to Transaction--><g id="link_Employe_Transaction"><path codeLine="79" d="M503.6237,396.376 C502.3137,421.516 502.1074,425.3908 500.7274,452.1408 " fill="none" id="Employe-Transaction" style="stroke:#181818;stroke-width:1.0;"/><line style="stroke:#181818;stroke-width:1.0;" x1="499.8373" x2="507.8264" y1="392.1733" y2="392.5896"/><line style="stroke:#181818;stroke-width:1.0;" x1="499.6812" x2="507.6703" y1="395.1692" y2="395.5855"/><line style="stroke:#181818;stroke-width:1.0;" x1="503.6237" x2="504.04" y1="396.376" y2="388.3869"/><line style="stroke:#181818;stroke-width:1.0;" x1="500.2122" x2="505.792" y1="462.1275" y2="470.426"/><line style="stroke:#181818;stroke-width:1.0;" x1="500.2122" x2="493.808" y1="462.1275" y2="469.8078"/><line style="stroke:#181818;stroke-width:1.0;" x1="500.2122" x2="499.8" y1="462.1275" y2="470.1169"/><ellipse cx="500.5213" cy="456.1355" fill="none" rx="4" ry="4" style="stroke:#181818;stroke-width:1.0;"/><text fill="#000000" font-family="sans-serif" font-size="13" lengthAdjust="spacing" textLength="52" x="503" y="431.3638">effectue</text></g><!--link Caisse to Transaction--><g id="link_Caisse_Transaction"><path codeLine="80" d="M353.4207,385.866 C378.3307,413.366 392.4685,428.9738 420.0485,459.4338 " fill="none" id="Caisse-Transaction" style="stroke:#181818;stroke-width:1.0;"/><line style="stroke:#181818;stroke-width:1.0;" x1="347.7708" x2="353.7" y1="385.5868" y2="380.2161"/><line style="stroke:#181818;stroke-width:1.0;" x1="349.7848" x2="355.714" y1="387.8103" y2="382.4395"/><line style="stroke:#181818;stroke-width:1.0;" x1="353.4207" x2="348.05" y1="385.866" y2="379.9369"/><line style="stroke:#181818;stroke-width:1.0;" x1="426.7605" x2="436.5777" y1="466.8466" y2="468.7497"/><line style="stroke:#181818;stroke-width:1.0;" x1="426.7605" x2="427.6823" y1="466.8466" y2="476.804"/><line style="stroke:#181818;stroke-width:1.0;" x1="426.7605" x2="432.13" y1="466.8466" y2="472.7769"/><ellipse cx="422.7333" cy="462.3989" fill="none" rx="4" ry="4" style="stroke:#181818;stroke-width:1.0;"/><text fill="#000000" font-family="sans-serif" font-size="13" lengthAdjust="spacing" textLength="34" x="395" y="431.3638">traite</text></g><!--link Transaction to Produit--><g id="link_Transaction_Produit"><path codeLine="81" d="M425.5545,595.5607 C392.6345,618.8007 358.21,642.6569 321,667.2969 C292.4,686.2269 275.8301,696.8967 247.8701,714.3467 " fill="none" id="Transaction-Produit" style="stroke:#181818;stroke-width:1.0;"/><line style="stroke:#181818;stroke-width:1.0;" x1="426.5153" x2="431.1291" y1="589.986" y2="596.5215"/><line style="stroke:#181818;stroke-width:1.0;" x1="424.0645" x2="428.6783" y1="591.7162" y2="598.2517"/><line style="stroke:#181818;stroke-width:1.0;" x1="425.5545" x2="432.09" y1="595.5607" y2="590.9469"/><line style="stroke:#181818;stroke-width:1.0;" x1="239.3867" x2="235.7767" y1="719.6412" y2="728.9669"/><line style="stroke:#181818;stroke-width:1.0;" x1="239.3867" x2="229.4233" y1="719.6412" y2="718.7868"/><line style="stroke:#181818;stroke-width:1.0;" x1="239.3867" x2="232.6" y1="719.6412" y2="723.8769"/><ellipse cx="244.4767" cy="716.4645" fill="none" rx="4" ry="4" style="stroke:#181818;stroke-width:1.0;"/><text fill="#000000" font-family="sans-serif" font-size="13" lengthAdjust="spacing" textLength="52" x="346" y="663.3638">contient</text></g><!--link Panier to Produit--><g id="link_Panier_Produit"><path codeLine="82" d="M188.0164,376.8606 C212.0064,395.3506 230.01,414.6569 243,443.2969 C279.55,523.8369 268.78,557.6969 243,642.2969 C237.19,661.3769 237.1176,664.9907 226.2676,682.0807 " fill="none" id="Panier-Produit" style="stroke:#181818;stroke-width:1.0;"/><line style="stroke:#181818;stroke-width:1.0;" x1="182.4063" x2="187.29" y1="377.5869" y2="371.2505"/><line style="stroke:#181818;stroke-width:1.0;" x1="184.7825" x2="189.6662" y1="379.4183" y2="373.0819"/><line style="stroke:#181818;stroke-width:1.0;" x1="188.0164" x2="181.68" y1="376.8606" y2="371.9769"/><line style="stroke:#181818;stroke-width:1.0;" x1="220.9078" x2="221.6854" y1="690.523" y2="700.4928"/><line style="stroke:#181818;stroke-width:1.0;" x1="220.9078" x2="211.5546" y1="690.523" y2="694.061"/><line style="stroke:#181818;stroke-width:1.0;" x1="220.9078" x2="216.62" y1="690.523" y2="697.2769"/><ellipse cx="224.1237" cy="685.4576" fill="none" rx="4" ry="4" style="stroke:#181818;stroke-width:1.0;"/><text fill="#000000" font-family="sans-serif" font-size="13" lengthAdjust="spacing" textLength="34" x="267" y="548.8638">inclut</text></g><!--link DBMere to Employe--><g id="link_DBMere_Employe"><path codeLine="85" d="M574.7618,202.4038 C561.7918,226.6938 558.9408,232.04 545.9608,256.34 " fill="none" id="DBMere-Employe" style="stroke:#181818;stroke-width:1.0;"/><line style="stroke:#181818;stroke-width:1.0;" x1="573.1174" x2="580.1744" y1="196.9913" y2="200.7594"/><line style="stroke:#181818;stroke-width:1.0;" x1="571.7044" x2="578.7613" y1="199.6376" y2="203.4058"/><line style="stroke:#181818;stroke-width:1.0;" x1="574.7618" x2="578.53" y1="202.4038" y2="195.3469"/><line style="stroke:#181818;stroke-width:1.0;" x1="541.2492" x2="542.7723" y1="265.1605" y2="275.0438"/><line style="stroke:#181818;stroke-width:1.0;" x1="541.2492" x2="532.1877" y1="265.1605" y2="269.39"/><line style="stroke:#181818;stroke-width:1.0;" x1="541.2492" x2="537.48" y1="265.1605" y2="272.2169"/><ellipse cx="544.0761" cy="259.8682" fill="none" rx="4" ry="4" style="stroke:#181818;stroke-width:1.0;"/><text fill="#000000" font-family="sans-serif" font-size="13" lengthAdjust="spacing" textLength="51" x="562" y="238.3638">persiste</text></g><!--link DBMere to Transaction--><g id="link_DBMere_Transaction"><path codeLine="86" d="M622.4858,203.3912 C631.5758,258.7712 636.99,336.1569 610,403.7969 C598.64,432.2669 591.0475,445.7648 571.4675,468.3948 " fill="none" id="DBMere-Transaction" style="stroke:#181818;stroke-width:1.0;"/><line style="stroke:#181818;stroke-width:1.0;" x1="617.8907" x2="625.7851" y1="200.0919" y2="198.7962"/><line style="stroke:#181818;stroke-width:1.0;" x1="618.3766" x2="626.271" y1="203.0523" y2="201.7566"/><line style="stroke:#181818;stroke-width:1.0;" x1="622.4858" x2="621.19" y1="203.3912" y2="195.4969"/><line style="stroke:#181818;stroke-width:1.0;" x1="564.9245" x2="564.2274" y1="475.957" y2="485.9327"/><line style="stroke:#181818;stroke-width:1.0;" x1="564.9245" x2="555.1526" y1="475.957" y2="478.081"/><line style="stroke:#181818;stroke-width:1.0;" x1="564.9245" x2="559.69" y1="475.957" y2="482.0069"/><ellipse cx="568.8503" cy="471.4197" fill="none" rx="4" ry="4" style="stroke:#181818;stroke-width:1.0;"/><text fill="#000000" font-family="sans-serif" font-size="13" lengthAdjust="spacing" textLength="51" x="630" y="334.8638">persiste</text></g><!--link DBMagasin to Caisse--><g id="link_DBMagasin_Caisse"><path codeLine="87" d="M224.7712,202.1363 C241.6912,229.2863 247.9601,239.3504 264.1501,265.3304 " fill="none" id="DBMagasin-Caisse" style="stroke:#181818;stroke-width:1.0;"/><line style="stroke:#181818;stroke-width:1.0;" x1="219.2609" x2="226.0503" y1="200.8572" y2="196.626"/><line style="stroke:#181818;stroke-width:1.0;" x1="220.8476" x2="227.637" y1="203.4033" y2="199.172"/><line style="stroke:#181818;stroke-width:1.0;" x1="224.7712" x2="220.54" y1="202.1363" y2="195.3469"/><line style="stroke:#181818;stroke-width:1.0;" x1="269.4389" x2="278.7622" y1="273.8173" y2="277.4336"/><line style="stroke:#181818;stroke-width:1.0;" x1="269.4389" x2="268.5778" y1="273.8173" y2="283.7802"/><line style="stroke:#181818;stroke-width:1.0;" x1="269.4389" x2="273.67" y1="273.8173" y2="280.6069"/><ellipse cx="266.2656" cy="268.7251" fill="none" rx="4" ry="4" style="stroke:#181818;stroke-width:1.0;"/><text fill="#000000" font-family="sans-serif" font-size="13" lengthAdjust="spacing" textLength="51" x="249" y="238.3638">persiste</text></g><!--link DBMagasin to Panier--><g id="link_DBMagasin_Panier"><path codeLine="88" d="M161.3368,202.8582 C150.3368,232.8682 146.0638,244.5461 136.1138,271.6961 " fill="none" id="DBMagasin-Panier" style="stroke:#181818;stroke-width:1.0;"/><line style="stroke:#181818;stroke-width:1.0;" x1="158.9577" x2="166.469" y1="197.7259" y2="200.4791"/><line style="stroke:#181818;stroke-width:1.0;" x1="157.9253" x2="165.4366" y1="200.5427" y2="203.2959"/><line style="stroke:#181818;stroke-width:1.0;" x1="161.3368" x2="164.09" y1="202.8582" y2="195.3469"/><line style="stroke:#181818;stroke-width:1.0;" x1="132.6728" x2="135.5536" y1="281.0854" y2="290.6615"/><line style="stroke:#181818;stroke-width:1.0;" x1="132.6728" x2="124.2864" y1="281.0854" y2="286.5323"/><line style="stroke:#181818;stroke-width:1.0;" x1="132.6728" x2="129.92" y1="281.0854" y2="288.5969"/><ellipse cx="134.7374" cy="275.4518" fill="none" rx="4" ry="4" style="stroke:#181818;stroke-width:1.0;"/><text fill="#000000" font-family="sans-serif" font-size="13" lengthAdjust="spacing" textLength="51" x="154" y="238.3638">persiste</text></g><!--link DBProduit to Produit--><g id="link_DBProduit_Produit"><path codeLine="89" d="M154.1546,610.3656 C154.6746,639.1356 154.8281,648.3598 155.3781,679.1098 " fill="none" id="DBProduit-Produit" style="stroke:#181818;stroke-width:1.0;"/><line style="stroke:#181818;stroke-width:1.0;" x1="150.0829" x2="158.0816" y1="606.4385" y2="606.2939"/><line style="stroke:#181818;stroke-width:1.0;" x1="150.1372" x2="158.1358" y1="609.438" y2="609.2934"/><line style="stroke:#181818;stroke-width:1.0;" x1="154.1546" x2="154.01" y1="610.3656" y2="602.3669"/><line style="stroke:#181818;stroke-width:1.0;" x1="155.5569" x2="161.699" y1="689.1082" y2="696.9996"/><line style="stroke:#181818;stroke-width:1.0;" x1="155.5569" x2="149.701" y1="689.1082" y2="697.2142"/><line style="stroke:#181818;stroke-width:1.0;" x1="155.5569" x2="155.7" y1="689.1082" y2="697.1069"/><ellipse cx="155.4496" cy="683.1091" fill="none" rx="4" ry="4" style="stroke:#181818;stroke-width:1.0;"/><text fill="#000000" font-family="sans-serif" font-size="13" lengthAdjust="spacing" textLength="51" x="157" y="663.3638">persiste</text></g><!--SRC=[nLH1Rjim4Bpp5OGkQG_-W144QEqKwC504FG36t8jBKgH2hbg6oJvJ_8EVwmhIqf4MGboQW-2fCLeTcPsgOeiQaFHE5HLzrmZLy4gnSGEzIxOmvFS4xhWjJpOK0Dvr9-ss-rdfHemFw54NUo0aY3gmrF4Gf-VVujGuyM5lbTQ6mSfwSkwSU4EZnMjLsJNcZptBpxKQvquaY_xGWmEymfANvUNB31UrZVGcah0tPlK7-LwwVaZWazWc4JQKbyE34AwTm76obs3frrwTgOQHp57Bz-dN4OII7afCN3B4xfCtFRh3kDB7bL8d3TkGkG9cIY06qWpTMt2w2NgsQV2_pj4cxL-pCPLGYA_FAdDqSd71dLYKMfrJ_uQHMRx2ZnXN6HVYB3BVHCHkX5cKvX7sVVyFsbkqBDCKawF2oKbfjlsZKDm5ODjYJ-MRHFfJxQSHkoN8T9CtsqBNeuhJZSFMt9V7CQiQZ6PI4sVvLjBEPFuJv8yqzVeZZDEkiyIEqU7vwJ6tyR3mseLxhCJlTO5xlTeMD9Mmz8kmpY2v5EeQNb0ZdO5PO8qbSQ56dRq54BUk5O0cMBuXKR-ZKbtCQHk3Mpm_l2CIGrdV20QlGXHWp79feYc738Jdi665H-GW-7tGOEH6MWqTEhl5VKN]--></g></svg>