<?xml version="1.0" encoding="UTF-8" standalone="no"?><svg xmlns="http://www.w3.org/2000/svg" xmlns:xlink="http://www.w3.org/1999/xlink" contentScriptType="application/ecmascript" contentStyleType="text/css" height="1370px" preserveAspectRatio="none" style="width:757px;height:1370px;" version="1.1" viewBox="0 0 757 1370" width="757px" zoomAndPan="magnify"><defs><filter height="300%" id="f1tm6pid6qrwg9" width="300%" x="-1" y="-1"><feGaussianBlur result="blurOut" stdDeviation="2.0"/><feColorMatrix in="blurOut" result="blurOut2" type="matrix" values="0 0 0 0 0 0 0 0 0 0 0 0 0 0 0 0 0 0 .4 0"/><feOffset dx="4.0" dy="4.0" in="blurOut2" result="blurOut3"/><feBlend in="SourceGraphic" in2="blurOut3" mode="normal"/></filter></defs><g><!--MD5=[6bcda78acae352e34d83bad06c406fbd]
cluster Maison mere--><rect fill="#FFFFFF" filter="url(#f1tm6pid6qrwg9)" height="472.95" style="stroke:#000000;stroke-width:1.5;" width="310" x="20" y="590.46"/><path d="M123,590.46 L123,599.9483 L113,609.9483 L20,609.9483 " fill="none" style="stroke:#000000;stroke-width:1.5;"/><text fill="#000000" font-family="sans-serif" font-size="14" font-weight="bold" lengthAdjust="spacing" textLength="93" x="23" y="604.9952">Maison mere</text><!--MD5=[f949620a8f7797daebea4e4f70339d03]
cluster Machine Physique--><polygon fill="#FFFFFF" filter="url(#f1tm6pid6qrwg9)" points="44,827.44,54,817.44,306,817.44,306,1029.41,296,1039.41,44,1039.41,44,827.44" style="stroke:#000000;stroke-width:1.5;"/><line style="stroke:#000000;stroke-width:1.5;" x1="296" x2="306" y1="827.44" y2="817.44"/><line style="stroke:#000000;stroke-width:1.5;" x1="44" x2="296" y1="827.44" y2="827.44"/><line style="stroke:#000000;stroke-width:1.5;" x1="296" x2="296" y1="827.44" y2="1039.41"/><text fill="#000000" font-family="sans-serif" font-size="14" font-style="italic" lengthAdjust="spacing" textLength="109" x="116.5" y="843.9752">«Ubuntu 24.04»</text><text fill="#000000" font-family="sans-serif" font-size="14" font-weight="bold" lengthAdjust="spacing" textLength="129" x="106.5" y="860.4634">Machine Physique</text><!--MD5=[01cb65e80db70366d8b7cbcaf3fab587]
cluster Postgres Container--><polygon fill="#FFFFFF" filter="url(#f1tm6pid6qrwg9)" points="68,891.44,78,881.44,282,881.44,282,1005.41,272,1015.41,68,1015.41,68,891.44" style="stroke:#000000;stroke-width:1.5;"/><line style="stroke:#000000;stroke-width:1.5;" x1="272" x2="282" y1="891.44" y2="881.44"/><line style="stroke:#000000;stroke-width:1.5;" x1="68" x2="272" y1="891.44" y2="891.44"/><line style="stroke:#000000;stroke-width:1.5;" x1="272" x2="272" y1="891.44" y2="1015.41"/><text fill="#000000" font-family="sans-serif" font-size="14" font-style="italic" lengthAdjust="spacing" textLength="62" x="140" y="907.9752">«Docker»</text><text fill="#000000" font-family="sans-serif" font-size="14" font-weight="bold" lengthAdjust="spacing" textLength="138" x="102" y="924.4634">Postgres Container</text><!--MD5=[b512ac2b1030bf422cf72a075e58769a]
cluster Server Maison mere--><polygon fill="#FFFFFF" filter="url(#f1tm6pid6qrwg9)" points="88,643.46,98,633.46,306,633.46,306,758.44,296,768.44,88,768.44,88,643.46" style="stroke:#000000;stroke-width:1.5;"/><line style="stroke:#000000;stroke-width:1.5;" x1="296" x2="306" y1="643.46" y2="633.46"/><line style="stroke:#000000;stroke-width:1.5;" x1="88" x2="296" y1="643.46" y2="643.46"/><line style="stroke:#000000;stroke-width:1.5;" x1="296" x2="296" y1="643.46" y2="768.44"/><text fill="#000000" font-family="sans-serif" font-size="14" font-style="italic" lengthAdjust="spacing" textLength="109" x="138.5" y="659.9952">«Ubuntu 24.04»</text><text fill="#000000" font-family="sans-serif" font-size="14" font-weight="bold" lengthAdjust="spacing" textLength="142" x="122" y="676.4834">Server Maison mere</text><!--MD5=[6c4d4a6b384a8ef4623a4033c4bb67f2]
cluster Magasin--><rect fill="#FFFFFF" filter="url(#f1tm6pid6qrwg9)" height="456.46" style="stroke:#000000;stroke-width:1.5;" width="699" x="7" y="7"/><path d="M77,7 L77,16.4883 L67,26.4883 L7,26.4883 " fill="none" style="stroke:#000000;stroke-width:1.5;"/><text fill="#000000" font-family="sans-serif" font-size="14" font-weight="bold" lengthAdjust="spacing" textLength="60" x="10" y="21.5352">Magasin</text><!--MD5=[b0ade7d40bb3d034a15752c8b46b41da]
cluster Machine Caisse 1--><polygon fill="#FFFFFF" filter="url(#f1tm6pid6qrwg9)" points="31,330.97,41,320.97,232,320.97,232,429.46,222,439.46,31,439.46,31,330.97" style="stroke:#000000;stroke-width:1.5;"/><line style="stroke:#000000;stroke-width:1.5;" x1="222" x2="232" y1="330.97" y2="320.97"/><line style="stroke:#000000;stroke-width:1.5;" x1="31" x2="222" y1="330.97" y2="330.97"/><line style="stroke:#000000;stroke-width:1.5;" x1="222" x2="222" y1="330.97" y2="439.46"/><text fill="#000000" font-family="sans-serif" font-size="14" font-style="italic" lengthAdjust="spacing" textLength="109" x="73" y="347.5052">«Ubuntu 24.04»</text><text fill="#000000" font-family="sans-serif" font-size="14" font-weight="bold" lengthAdjust="spacing" textLength="125" x="65" y="363.9934">Machine Caisse 1</text><!--MD5=[7e41b2864c434e87c1e11ef638abd79c]
cluster Machine Caisse 2--><polygon fill="#FFFFFF" filter="url(#f1tm6pid6qrwg9)" points="256,330.97,266,320.97,457,320.97,457,429.46,447,439.46,256,439.46,256,330.97" style="stroke:#000000;stroke-width:1.5;"/><line style="stroke:#000000;stroke-width:1.5;" x1="447" x2="457" y1="330.97" y2="320.97"/><line style="stroke:#000000;stroke-width:1.5;" x1="256" x2="447" y1="330.97" y2="330.97"/><line style="stroke:#000000;stroke-width:1.5;" x1="447" x2="447" y1="330.97" y2="439.46"/><text fill="#000000" font-family="sans-serif" font-size="14" font-style="italic" lengthAdjust="spacing" textLength="109" x="298" y="347.5052">«Ubuntu 24.04»</text><text fill="#000000" font-family="sans-serif" font-size="14" font-weight="bold" lengthAdjust="spacing" textLength="125" x="290" y="363.9934">Machine Caisse 2</text><!--MD5=[b3c9757c1e30295b0e0abc7881a88506]
cluster Machine Caisse 3--><polygon fill="#FFFFFF" filter="url(#f1tm6pid6qrwg9)" points="481,330.97,491,320.97,682,320.97,682,429.46,672,439.46,481,439.46,481,330.97" style="stroke:#000000;stroke-width:1.5;"/><line style="stroke:#000000;stroke-width:1.5;" x1="672" x2="682" y1="330.97" y2="320.97"/><line style="stroke:#000000;stroke-width:1.5;" x1="481" x2="672" y1="330.97" y2="330.97"/><line style="stroke:#000000;stroke-width:1.5;" x1="672" x2="672" y1="330.97" y2="439.46"/><text fill="#000000" font-family="sans-serif" font-size="14" font-style="italic" lengthAdjust="spacing" textLength="109" x="523" y="347.5052">«Ubuntu 24.04»</text><text fill="#000000" font-family="sans-serif" font-size="14" font-weight="bold" lengthAdjust="spacing" textLength="125" x="515" y="363.9934">Machine Caisse 3</text><!--MD5=[d4beb35de0972bf3899649e75b785658]
cluster Machine Physique Magasin--><polygon fill="#FFFFFF" filter="url(#f1tm6pid6qrwg9)" points="196,60,206,50,516,50,516,261.97,506,271.97,196,271.97,196,60" style="stroke:#000000;stroke-width:1.5;"/><line style="stroke:#000000;stroke-width:1.5;" x1="506" x2="516" y1="60" y2="50"/><line style="stroke:#000000;stroke-width:1.5;" x1="196" x2="506" y1="60" y2="60"/><line style="stroke:#000000;stroke-width:1.5;" x1="506" x2="506" y1="60" y2="271.97"/><text fill="#000000" font-family="sans-serif" font-size="14" font-style="italic" lengthAdjust="spacing" textLength="109" x="297.5" y="76.5352">«Ubuntu 24.04»</text><text fill="#000000" font-family="sans-serif" font-size="14" font-weight="bold" lengthAdjust="spacing" textLength="194" x="255" y="93.0234">Machine Physique Magasin</text><!--MD5=[aaf564c4d8a774152d48562ea7f389a2]
cluster Postgres Container magsin--><polygon fill="#FFFFFF" filter="url(#f1tm6pid6qrwg9)" points="220,124,230,114,492,114,492,237.97,482,247.97,220,247.97,220,124" style="stroke:#000000;stroke-width:1.5;"/><line style="stroke:#000000;stroke-width:1.5;" x1="482" x2="492" y1="124" y2="114"/><line style="stroke:#000000;stroke-width:1.5;" x1="220" x2="482" y1="124" y2="124"/><line style="stroke:#000000;stroke-width:1.5;" x1="482" x2="482" y1="124" y2="247.97"/><text fill="#000000" font-family="sans-serif" font-size="14" font-style="italic" lengthAdjust="spacing" textLength="62" x="321" y="140.5352">«Docker»</text><text fill="#000000" font-family="sans-serif" font-size="14" font-weight="bold" lengthAdjust="spacing" textLength="196" x="254" y="157.0234">Postgres Container magsin</text><!--MD5=[b622cc0e04849c4732425e33c4bd3bea]
cluster Centre Logistique--><rect fill="#FFFFFF" filter="url(#f1tm6pid6qrwg9)" height="520.45" style="stroke:#000000;stroke-width:1.5;" width="391" x="354" y="837.94"/><path d="M492,837.94 L492,847.4283 L482,857.4283 L354,857.4283 " fill="none" style="stroke:#000000;stroke-width:1.5;"/><text fill="#000000" font-family="sans-serif" font-size="14" font-weight="bold" lengthAdjust="spacing" textLength="128" x="357" y="852.4752">Centre Logistique</text><!--MD5=[af6ad6805ddfa35063416d864d74fc90]
cluster Machine Physique Logistique--><polygon fill="#FFFFFF" filter="url(#f1tm6pid6qrwg9)" points="378,1122.41,388,1112.41,721,1112.41,721,1324.39,711,1334.39,378,1334.39,378,1122.41" style="stroke:#000000;stroke-width:1.5;"/><line style="stroke:#000000;stroke-width:1.5;" x1="711" x2="721" y1="1122.41" y2="1112.41"/><line style="stroke:#000000;stroke-width:1.5;" x1="378" x2="711" y1="1122.41" y2="1122.41"/><line style="stroke:#000000;stroke-width:1.5;" x1="711" x2="711" y1="1122.41" y2="1334.39"/><text fill="#000000" font-family="sans-serif" font-size="14" font-style="italic" lengthAdjust="spacing" textLength="109" x="491" y="1138.9452">«Ubuntu 24.04»</text><text fill="#000000" font-family="sans-serif" font-size="14" font-weight="bold" lengthAdjust="spacing" textLength="210" x="440.5" y="1155.4334">Machine Physique Logistique</text><!--MD5=[61c6f4bc2b7e6674d9ca0371a4920d87]
cluster Postgres Container Logistique--><polygon fill="#FFFFFF" filter="url(#f1tm6pid6qrwg9)" points="402,1186.41,412,1176.41,697,1176.41,697,1300.39,687,1310.39,402,1310.39,402,1186.41" style="stroke:#000000;stroke-width:1.5;"/><line style="stroke:#000000;stroke-width:1.5;" x1="687" x2="697" y1="1186.41" y2="1176.41"/><line style="stroke:#000000;stroke-width:1.5;" x1="402" x2="687" y1="1186.41" y2="1186.41"/><line style="stroke:#000000;stroke-width:1.5;" x1="687" x2="687" y1="1186.41" y2="1310.39"/><text fill="#000000" font-family="sans-serif" font-size="14" font-style="italic" lengthAdjust="spacing" textLength="62" x="514.5" y="1202.9452">«Docker»</text><text fill="#000000" font-family="sans-serif" font-size="14" font-weight="bold" lengthAdjust="spacing" textLength="219" x="436" y="1219.4334">Postgres Container Logistique</text><!--MD5=[eb359cdffaf9cacfbc319e99bbc2ef1b]
cluster Server Centre logistique--><polygon fill="#FFFFFF" filter="url(#f1tm6pid6qrwg9)" points="389,890.94,399,880.94,639,880.94,639,1005.91,629,1015.91,389,1015.91,389,890.94" style="stroke:#000000;stroke-width:1.5;"/><line style="stroke:#000000;stroke-width:1.5;" x1="629" x2="639" y1="890.94" y2="880.94"/><line style="stroke:#000000;stroke-width:1.5;" x1="389" x2="629" y1="890.94" y2="890.94"/><line style="stroke:#000000;stroke-width:1.5;" x1="629" x2="629" y1="890.94" y2="1015.91"/><text fill="#000000" font-family="sans-serif" font-size="14" font-style="italic" lengthAdjust="spacing" textLength="109" x="455.5" y="907.4752">«Ubuntu 24.04»</text><text fill="#000000" font-family="sans-serif" font-size="14" font-weight="bold" lengthAdjust="spacing" textLength="174" x="423" y="923.9634">Server Centre logistique</text><!--MD5=[9b49f56414dc456db459fc515ec64697]
entity dbmere--><path d="M100.5,947.44 C100.5,937.44 183,937.44 183,937.44 C183,937.44 265.5,937.44 265.5,947.44 L265.5,989.4166 C265.5,999.4166 183,999.4166 183,999.4166 C183,999.4166 100.5,999.4166 100.5,989.4166 L100.5,947.44 " fill="#FFFFFF" filter="url(#f1tm6pid6qrwg9)" style="stroke:#000000;stroke-width:1.5;"/><path d="M100.5,947.44 C100.5,957.44 183,957.44 183,957.44 C183,957.44 265.5,957.44 265.5,947.44 " fill="none" style="stroke:#000000;stroke-width:1.5;"/><text fill="#000000" font-family="sans-serif" font-size="14" font-style="italic" lengthAdjust="spacing" textLength="62" x="152" y="974.9752">«SQL DB»</text><text fill="#000000" font-family="sans-serif" font-size="14" lengthAdjust="spacing" textLength="145" x="110.5" y="991.4634">PostgreSQL Database</text><!--MD5=[4bcda6c344d7fb3175eaf6d189ab460d]
entity mere--><rect fill="#FFFFFF" filter="url(#f1tm6pid6qrwg9)" height="62.9766" style="stroke:#A80036;stroke-width:1.5;" width="130" x="160" y="689.46"/><rect fill="#FFFFFF" height="10" style="stroke:#A80036;stroke-width:1.5;" width="15" x="270" y="694.46"/><rect fill="#FFFFFF" height="2" style="stroke:#A80036;stroke-width:1.5;" width="4" x="268" y="696.46"/><rect fill="#FFFFFF" height="2" style="stroke:#A80036;stroke-width:1.5;" width="4" x="268" y="700.46"/><text fill="#000000" font-family="sans-serif" font-size="14" font-style="italic" lengthAdjust="spacing" textLength="90" x="175" y="722.9952">«application»</text><text fill="#000000" font-family="sans-serif" font-size="14" lengthAdjust="spacing" textLength="35" x="202.5" y="739.4834">mere</text><!--MD5=[019f6774f902f72c488c9dcee70d4d6c]
entity app1--><rect fill="#FFFFFF" filter="url(#f1tm6pid6qrwg9)" height="46.4883" style="stroke:#A80036;stroke-width:1.5;" width="166" x="50" y="376.97"/><rect fill="#FFFFFF" height="10" style="stroke:#A80036;stroke-width:1.5;" width="15" x="196" y="381.97"/><rect fill="#FFFFFF" height="2" style="stroke:#A80036;stroke-width:1.5;" width="4" x="194" y="383.97"/><rect fill="#FFFFFF" height="2" style="stroke:#A80036;stroke-width:1.5;" width="4" x="194" y="387.97"/><text fill="#000000" font-family="sans-serif" font-size="14" lengthAdjust="spacing" textLength="126" x="65" y="410.5052">caisse-app-scaled</text><!--MD5=[81be28259591a23f63462d93727ccfe3]
entity app2--><rect fill="#FFFFFF" filter="url(#f1tm6pid6qrwg9)" height="46.4883" style="stroke:#A80036;stroke-width:1.5;" width="166" x="273" y="376.97"/><rect fill="#FFFFFF" height="10" style="stroke:#A80036;stroke-width:1.5;" width="15" x="419" y="381.97"/><rect fill="#FFFFFF" height="2" style="stroke:#A80036;stroke-width:1.5;" width="4" x="417" y="383.97"/><rect fill="#FFFFFF" height="2" style="stroke:#A80036;stroke-width:1.5;" width="4" x="417" y="387.97"/><text fill="#000000" font-family="sans-serif" font-size="14" lengthAdjust="spacing" textLength="126" x="288" y="410.5052">caisse-app-scaled</text><!--MD5=[640bfebe45159a20e5557f42971d9afe]
entity app3--><rect fill="#FFFFFF" filter="url(#f1tm6pid6qrwg9)" height="46.4883" style="stroke:#A80036;stroke-width:1.5;" width="166" x="497" y="376.97"/><rect fill="#FFFFFF" height="10" style="stroke:#A80036;stroke-width:1.5;" width="15" x="643" y="381.97"/><rect fill="#FFFFFF" height="2" style="stroke:#A80036;stroke-width:1.5;" width="4" x="641" y="383.97"/><rect fill="#FFFFFF" height="2" style="stroke:#A80036;stroke-width:1.5;" width="4" x="641" y="387.97"/><text fill="#000000" font-family="sans-serif" font-size="14" lengthAdjust="spacing" textLength="126" x="512" y="410.5052">caisse-app-scaled</text><!--MD5=[94b63d08303ff7deeba9a793d90c0d23]
entity dbMag--><path d="M273.5,180 C273.5,170 356,170 356,170 C356,170 438.5,170 438.5,180 L438.5,221.9766 C438.5,231.9766 356,231.9766 356,231.9766 C356,231.9766 273.5,231.9766 273.5,221.9766 L273.5,180 " fill="#FFFFFF" filter="url(#f1tm6pid6qrwg9)" style="stroke:#000000;stroke-width:1.5;"/><path d="M273.5,180 C273.5,190 356,190 356,190 C356,190 438.5,190 438.5,180 " fill="none" style="stroke:#000000;stroke-width:1.5;"/><text fill="#000000" font-family="sans-serif" font-size="14" font-style="italic" lengthAdjust="spacing" textLength="62" x="325" y="207.5352">«SQL DB»</text><text fill="#000000" font-family="sans-serif" font-size="14" lengthAdjust="spacing" textLength="145" x="283.5" y="224.0234">PostgreSQL Database</text><!--MD5=[69e793fc9b558563cae2e6a4f94dcb2d]
entity dbLog--><path d="M418.5,1242.41 C418.5,1232.41 501,1232.41 501,1232.41 C501,1232.41 583.5,1232.41 583.5,1242.41 L583.5,1284.3866 C583.5,1294.3866 501,1294.3866 501,1294.3866 C501,1294.3866 418.5,1294.3866 418.5,1284.3866 L418.5,1242.41 " fill="#FFFFFF" filter="url(#f1tm6pid6qrwg9)" style="stroke:#000000;stroke-width:1.5;"/><path d="M418.5,1242.41 C418.5,1252.41 501,1252.41 501,1252.41 C501,1252.41 583.5,1252.41 583.5,1242.41 " fill="none" style="stroke:#000000;stroke-width:1.5;"/><text fill="#000000" font-family="sans-serif" font-size="14" font-style="italic" lengthAdjust="spacing" textLength="62" x="470" y="1269.9452">«SQL DB»</text><text fill="#000000" font-family="sans-serif" font-size="14" lengthAdjust="spacing" textLength="145" x="428.5" y="1286.4334">PostgreSQL Database</text><!--MD5=[30ba7fb1050e29c0f3290b9e87c281e8]
entity log--><rect fill="#FFFFFF" filter="url(#f1tm6pid6qrwg9)" height="62.9766" style="stroke:#A80036;stroke-width:1.5;" width="130" x="415" y="936.94"/><rect fill="#FFFFFF" height="10" style="stroke:#A80036;stroke-width:1.5;" width="15" x="525" y="941.94"/><rect fill="#FFFFFF" height="2" style="stroke:#A80036;stroke-width:1.5;" width="4" x="523" y="943.94"/><rect fill="#FFFFFF" height="2" style="stroke:#A80036;stroke-width:1.5;" width="4" x="523" y="947.94"/><text fill="#000000" font-family="sans-serif" font-size="14" font-style="italic" lengthAdjust="spacing" textLength="90" x="430" y="970.4752">«application»</text><text fill="#000000" font-family="sans-serif" font-size="14" lengthAdjust="spacing" textLength="68" x="441" y="986.9634">logistique</text><!--MD5=[392db497d141534515b12b8367dd9b4f]
link dbMag to app1--><path d="M321.64,232.37 C276.68,272.13 198.9,340.93 158.7,376.48 " fill="none" id="dbMag-app1" style="stroke:#A80036;stroke-width:1.0;"/><text fill="#000000" font-family="sans-serif" font-size="13" lengthAdjust="spacing" textLength="24" x="258.85" y="301.5384">TCP</text><!--MD5=[6a9d4126c4721813887edc39d703703b]
link dbMag to app2--><path d="M356,232.37 C356,272.13 356,340.93 356,376.48 " fill="none" id="dbMag-app2" style="stroke:#A80036;stroke-width:1.0;"/><text fill="#000000" font-family="sans-serif" font-size="13" lengthAdjust="spacing" textLength="24" x="357" y="301.5384">TCP</text><!--MD5=[480bde3d0528ed43fa119b2881fef16e]
link dbMag to app3--><path d="M390.51,232.37 C435.67,272.13 513.8,340.93 554.18,376.48 " fill="none" id="dbMag-app3" style="stroke:#A80036;stroke-width:1.0;"/><text fill="#000000" font-family="sans-serif" font-size="13" lengthAdjust="spacing" textLength="24" x="469" y="301.5384">TCP</text><!--MD5=[e9b14d334b7eaceb9dbc5634fa03f37f]
link app1 to mere--><path d="M138.3,423.66 C144.37,448.98 154.8,491.34 165,527.46 C181.22,584.9 202.45,651.21 214.82,689.1 " fill="none" id="app1-mere" style="stroke:#A80036;stroke-width:1.0;"/><text fill="#000000" font-family="sans-serif" font-size="13" lengthAdjust="spacing" textLength="33" x="166" y="524.0284">HTTP</text><!--MD5=[7eafa5ad5326522ec775703a8d382f63]
link app2 to mere--><path d="M346.68,423.88 C323.59,480.06 263.71,625.77 237.54,689.43 " fill="none" id="app2-mere" style="stroke:#A80036;stroke-width:1.0;"/><text fill="#000000" font-family="sans-serif" font-size="13" lengthAdjust="spacing" textLength="33" x="311.93" y="524.0284">HTTP</text><!--MD5=[7b5422490b0aa9decebb46fe821f29fc]
link app3 to mere--><path d="M557.49,423.91 C523.9,457.54 458.34,522.26 400,574.46 C354.21,615.43 299.48,660.31 263.57,689.23 " fill="none" id="app3-mere" style="stroke:#A80036;stroke-width:1.0;"/><text fill="#000000" font-family="sans-serif" font-size="13" lengthAdjust="spacing" textLength="33" x="469.55" y="524.0284">HTTP</text><!--MD5=[561407008610927d549dfa9e1581160c]
link mere to dbmere--><path d="M219.77,752.54 C211.67,799.84 196.22,890.16 188.17,937.22 " fill="none" id="mere-dbmere" style="stroke:#A80036;stroke-width:1.0;"/><text fill="#000000" font-family="sans-serif" font-size="13" lengthAdjust="spacing" textLength="24" x="214.74" y="798.0084">TCP</text><!--MD5=[d9b98b985fc58f5f480ffd55441ca126]
link log to dbLog--><path d="M482.21,1000.22 C486.25,1056.64 494.8,1175.91 498.82,1232.01 " fill="none" id="log-dbLog" style="stroke:#A80036;stroke-width:1.0;"/><text fill="#000000" font-family="sans-serif" font-size="13" lengthAdjust="spacing" textLength="24" x="489.62" y="1092.9784">TCP</text><!--MD5=[fd47e6d1d1bee2cd99e4e719ea307f9a]
link mere to log--><path d="M254.71,752.82 C269.14,767.66 286.82,785.62 303,801.44 C352.1,849.44 410.43,903.61 446.33,936.63 " fill="none" id="mere-log" style="stroke:#A80036;stroke-width:1.0;"/><text fill="#000000" font-family="sans-serif" font-size="13" lengthAdjust="spacing" textLength="33" x="304" y="798.0084">HTTP</text><!--MD5=[02f78970ef6a48e53e221c85ee2e00a8]
link app1 to log--><path d="M159.65,423.83 C196.36,456.07 262.83,518.45 306,582.46 C348.29,645.17 435.38,856.71 467.63,936.56 " fill="none" id="app1-log" style="stroke:#A80036;stroke-width:1.0;"/><text fill="#000000" font-family="sans-serif" font-size="13" lengthAdjust="spacing" textLength="33" x="301.12" y="571.0284">HTTP</text><!--MD5=[dd0f475f599a0c06553ec159121116aa]
link app2 to log--><path d="M364.53,423.96 C375.59,454.11 394.88,509.17 407,557.46 C442.06,697.17 466.77,867.75 476,936.52 " fill="none" id="app2-log" style="stroke:#A80036;stroke-width:1.0;"/><text fill="#000000" font-family="sans-serif" font-size="13" lengthAdjust="spacing" textLength="33" x="412.11" y="571.0284">HTTP</text><!--MD5=[e120dd23fbb98c2a206cb9c903e110a6]
link app3 to log--><path d="M576.02,423.76 C560.42,512.1 503.42,834.81 485.46,936.51 " fill="none" id="app3-log" style="stroke:#A80036;stroke-width:1.0;"/><text fill="#000000" font-family="sans-serif" font-size="13" lengthAdjust="spacing" textLength="33" x="553.35" y="571.0284">HTTP</text><!--MD5=[86acca87c9904d78b18a9fd0011bc70d]
@startuml
package "Maison mere" <<frame>>{
    node "Machine Physique" <<Ubuntu 24.04>> {
        node "Postgres Container" <<Docker>> {
            database "PostgreSQL Database" <<SQL DB>> as dbmere{
            }
        }
    }
    node "Server Maison mere"<<Ubuntu 24.04>> {
        component mere <<application>>as mere {
        }
    }
}


package Magasin <<frame>>{
    node "Machine Caisse 1" <<Ubuntu 24.04>> {
        component caisse-app-scaled as app1 {
        }
    }
    node "Machine Caisse 2"<<Ubuntu 24.04>> {
        component caisse-app-scaled as app2 {
        }
    }
    node "Machine Caisse 3"<<Ubuntu 24.04>> {
        component caisse-app-scaled as app3 {
        }
    }
    node "Machine Physique Magasin" <<Ubuntu 24.04>> {
        node "Postgres Container magsin" <<Docker>> {
            database "PostgreSQL Database" <<SQL DB>> as dbMag{
            }
        }
    }
}

package "Centre Logistique" <<frame>>{

    node "Machine Physique Logistique" <<Ubuntu 24.04>> {
        node "Postgres Container Logistique" <<Docker>> {
            database "PostgreSQL Database" <<SQL DB>> as dbLog{
            }
        }
    }

    node "Server Centre logistique"<<Ubuntu 24.04>> {
        component logistique <<application>>as log {
        }
    }
}

dbMag - - app1 : TCP
dbMag - - app2 : TCP
dbMag - - app3 : TCP

app1 - - - mere : HTTP
app2 - - - mere : HTTP
app3 - - - mere : HTTP

mere - - dbmere : TCP

log - - dbLog : TCP

mere - - log : HTTP

app1 - - - log : HTTP
app2 - - - log : HTTP
app3 - - - log : HTTP
@enduml

PlantUML version 1.2021.00(Sun Jan 10 05:25:05 EST 2021)
(MIT source distribution)
Java Runtime: OpenJDK Runtime Environment
JVM: OpenJDK 64-Bit Server VM
Default Encoding: UTF-8
Language: fr
Country: CA
--></g></svg>