<?xml version="1.0" encoding="us-ascii" standalone="no"?><svg xmlns="http://www.w3.org/2000/svg" xmlns:xlink="http://www.w3.org/1999/xlink" contentStyleType="text/css" height="1364px" preserveAspectRatio="none" style="width:796px;height:1364px;background:#FFFFFF;" version="1.1" viewBox="0 0 796 1364" width="796px" zoomAndPan="magnify"><defs/><g><!--cluster Maison mere--><g id="cluster_Maison mere"><rect fill="none" height="473" rx="2.5" ry="2.5" style="stroke:#181818;stroke-width:1.0;" width="325" x="29" y="590"/><path d="M140,590 L140,599.2969 L130,609.2969 L29,609.2969 " fill="none" style="stroke:#181818;stroke-width:1.0;"/><text fill="#000000" font-family="sans-serif" font-size="14" font-weight="bold" lengthAdjust="spacing" textLength="101" x="32" y="603.9951">Maison mere</text></g><!--cluster Machine Physique--><g id="cluster_Machine Physique"><polygon fill="none" points="53,827,63,817,330,817,330,1029,320,1039,53,1039,53,827" style="stroke:#181818;stroke-width:1.0;"/><line style="stroke:#181818;stroke-width:1.0;" x1="320" x2="330" y1="827" y2="817"/><line style="stroke:#181818;stroke-width:1.0;" x1="53" x2="320" y1="827" y2="827"/><line style="stroke:#181818;stroke-width:1.0;" x1="320" x2="320" y1="827" y2="1039"/><text fill="#000000" font-family="sans-serif" font-size="14" font-style="italic" lengthAdjust="spacing" textLength="113" x="131" y="842.9951">&#171;Ubuntu 24.04&#187;</text><text fill="#000000" font-family="sans-serif" font-size="14" font-weight="bold" lengthAdjust="spacing" textLength="142" x="116.5" y="859.292">Machine Physique</text></g><!--cluster Postgres Container--><g id="cluster_Postgres Container"><polygon fill="none" points="77,891,87,881,306,881,306,1005,296,1015,77,1015,77,891" style="stroke:#181818;stroke-width:1.0;"/><line style="stroke:#181818;stroke-width:1.0;" x1="296" x2="306" y1="891" y2="881"/><line style="stroke:#181818;stroke-width:1.0;" x1="77" x2="296" y1="891" y2="891"/><line style="stroke:#181818;stroke-width:1.0;" x1="296" x2="296" y1="891" y2="1015"/><text fill="#000000" font-family="sans-serif" font-size="14" font-style="italic" lengthAdjust="spacing" textLength="68" x="153.5" y="906.9951">&#171;Docker&#187;</text><text fill="#000000" font-family="sans-serif" font-size="14" font-weight="bold" lengthAdjust="spacing" textLength="153" x="111" y="923.292">Postgres Container</text></g><!--cluster Server Maison mere--><g id="cluster_Server Maison mere"><polygon fill="none" points="95,643,105,633,330,633,330,758,320,768,95,768,95,643" style="stroke:#181818;stroke-width:1.0;"/><line style="stroke:#181818;stroke-width:1.0;" x1="320" x2="330" y1="643" y2="633"/><line style="stroke:#181818;stroke-width:1.0;" x1="95" x2="320" y1="643" y2="643"/><line style="stroke:#181818;stroke-width:1.0;" x1="320" x2="320" y1="643" y2="768"/><text fill="#000000" font-family="sans-serif" font-size="14" font-style="italic" lengthAdjust="spacing" textLength="113" x="152" y="658.9951">&#171;Ubuntu 24.04&#187;</text><text fill="#000000" font-family="sans-serif" font-size="14" font-weight="bold" lengthAdjust="spacing" textLength="159" x="129" y="675.292">Server Maison mere</text></g><!--cluster Magasin--><g id="cluster_Magasin"><rect fill="none" height="456" rx="2.5" ry="2.5" style="stroke:#181818;stroke-width:1.0;" width="735" x="7" y="7"/><path d="M81,7 L81,16.2969 L71,26.2969 L7,26.2969 " fill="none" style="stroke:#181818;stroke-width:1.0;"/><text fill="#000000" font-family="sans-serif" font-size="14" font-weight="bold" lengthAdjust="spacing" textLength="64" x="10" y="20.9951">Magasin</text></g><!--cluster Machine Caisse 1--><g id="cluster_Machine Caisse 1"><polygon fill="none" points="31,331,41,321,244,321,244,429,234,439,31,439,31,331" style="stroke:#181818;stroke-width:1.0;"/><line style="stroke:#181818;stroke-width:1.0;" x1="234" x2="244" y1="331" y2="321"/><line style="stroke:#181818;stroke-width:1.0;" x1="31" x2="234" y1="331" y2="331"/><line style="stroke:#181818;stroke-width:1.0;" x1="234" x2="234" y1="331" y2="439"/><text fill="#000000" font-family="sans-serif" font-size="14" font-style="italic" lengthAdjust="spacing" textLength="113" x="77" y="346.9951">&#171;Ubuntu 24.04&#187;</text><text fill="#000000" font-family="sans-serif" font-size="14" font-weight="bold" lengthAdjust="spacing" textLength="137" x="65" y="363.292">Machine Caisse 1</text></g><!--cluster Machine Caisse 2--><g id="cluster_Machine Caisse 2"><polygon fill="none" points="268,331,278,321,481,321,481,429,471,439,268,439,268,331" style="stroke:#181818;stroke-width:1.0;"/><line style="stroke:#181818;stroke-width:1.0;" x1="471" x2="481" y1="331" y2="321"/><line style="stroke:#181818;stroke-width:1.0;" x1="268" x2="471" y1="331" y2="331"/><line style="stroke:#181818;stroke-width:1.0;" x1="471" x2="471" y1="331" y2="439"/><text fill="#000000" font-family="sans-serif" font-size="14" font-style="italic" lengthAdjust="spacing" textLength="113" x="314" y="346.9951">&#171;Ubuntu 24.04&#187;</text><text fill="#000000" font-family="sans-serif" font-size="14" font-weight="bold" lengthAdjust="spacing" textLength="137" x="302" y="363.292">Machine Caisse 2</text></g><!--cluster Machine Caisse 3--><g id="cluster_Machine Caisse 3"><polygon fill="none" points="505,331,515,321,718,321,718,429,708,439,505,439,505,331" style="stroke:#181818;stroke-width:1.0;"/><line style="stroke:#181818;stroke-width:1.0;" x1="708" x2="718" y1="331" y2="321"/><line style="stroke:#181818;stroke-width:1.0;" x1="505" x2="708" y1="331" y2="331"/><line style="stroke:#181818;stroke-width:1.0;" x1="708" x2="708" y1="331" y2="439"/><text fill="#000000" font-family="sans-serif" font-size="14" font-style="italic" lengthAdjust="spacing" textLength="113" x="551" y="346.9951">&#171;Ubuntu 24.04&#187;</text><text fill="#000000" font-family="sans-serif" font-size="14" font-weight="bold" lengthAdjust="spacing" textLength="137" x="539" y="363.292">Machine Caisse 3</text></g><!--cluster Machine Physique Magasin--><g id="cluster_Machine Physique Magasin"><polygon fill="none" points="205,60,215,50,543,50,543,262,533,272,205,272,205,60" style="stroke:#181818;stroke-width:1.0;"/><line style="stroke:#181818;stroke-width:1.0;" x1="533" x2="543" y1="60" y2="50"/><line style="stroke:#181818;stroke-width:1.0;" x1="205" x2="533" y1="60" y2="60"/><line style="stroke:#181818;stroke-width:1.0;" x1="533" x2="533" y1="60" y2="272"/><text fill="#000000" font-family="sans-serif" font-size="14" font-style="italic" lengthAdjust="spacing" textLength="113" x="313.5" y="75.9951">&#171;Ubuntu 24.04&#187;</text><text fill="#000000" font-family="sans-serif" font-size="14" font-weight="bold" lengthAdjust="spacing" textLength="211" x="264.5" y="92.292">Machine Physique Magasin</text></g><!--cluster Postgres Container magsin--><g id="cluster_Postgres Container magsin"><polygon fill="none" points="229,124,239,114,519,114,519,238,509,248,229,248,229,124" style="stroke:#181818;stroke-width:1.0;"/><line style="stroke:#181818;stroke-width:1.0;" x1="509" x2="519" y1="124" y2="114"/><line style="stroke:#181818;stroke-width:1.0;" x1="229" x2="509" y1="124" y2="124"/><line style="stroke:#181818;stroke-width:1.0;" x1="509" x2="509" y1="124" y2="248"/><text fill="#000000" font-family="sans-serif" font-size="14" font-style="italic" lengthAdjust="spacing" textLength="68" x="336" y="139.9951">&#171;Docker&#187;</text><text fill="#000000" font-family="sans-serif" font-size="14" font-weight="bold" lengthAdjust="spacing" textLength="214" x="263" y="156.292">Postgres Container magsin</text></g><!--cluster Centre Logistique--><g id="cluster_Centre Logistique"><rect fill="none" height="520.5" rx="2.5" ry="2.5" style="stroke:#181818;stroke-width:1.0;" width="412" x="378" y="837.5"/><path d="M529,837.5 L529,846.7969 L519,856.7969 L378,856.7969 " fill="none" style="stroke:#181818;stroke-width:1.0;"/><text fill="#000000" font-family="sans-serif" font-size="14" font-weight="bold" lengthAdjust="spacing" textLength="141" x="381" y="851.4951">Centre Logistique</text></g><!--cluster Machine Physique Logistique--><g id="cluster_Machine Physique Logistique"><polygon fill="none" points="402,1122,412,1112,766,1112,766,1324,756,1334,402,1334,402,1122" style="stroke:#181818;stroke-width:1.0;"/><line style="stroke:#181818;stroke-width:1.0;" x1="756" x2="766" y1="1122" y2="1112"/><line style="stroke:#181818;stroke-width:1.0;" x1="402" x2="756" y1="1122" y2="1122"/><line style="stroke:#181818;stroke-width:1.0;" x1="756" x2="756" y1="1122" y2="1334"/><text fill="#000000" font-family="sans-serif" font-size="14" font-style="italic" lengthAdjust="spacing" textLength="113" x="523.5" y="1137.9951">&#171;Ubuntu 24.04&#187;</text><text fill="#000000" font-family="sans-serif" font-size="14" font-weight="bold" lengthAdjust="spacing" textLength="229" x="465.5" y="1154.292">Machine Physique Logistique</text></g><!--cluster Postgres Container Logistique--><g id="cluster_Postgres Container Logistique"><polygon fill="none" points="426,1186,436,1176,742,1176,742,1300,732,1310,426,1310,426,1186" style="stroke:#181818;stroke-width:1.0;"/><line style="stroke:#181818;stroke-width:1.0;" x1="732" x2="742" y1="1186" y2="1176"/><line style="stroke:#181818;stroke-width:1.0;" x1="426" x2="732" y1="1186" y2="1186"/><line style="stroke:#181818;stroke-width:1.0;" x1="732" x2="732" y1="1186" y2="1310"/><text fill="#000000" font-family="sans-serif" font-size="14" font-style="italic" lengthAdjust="spacing" textLength="68" x="546" y="1201.9951">&#171;Docker&#187;</text><text fill="#000000" font-family="sans-serif" font-size="14" font-weight="bold" lengthAdjust="spacing" textLength="240" x="460" y="1218.292">Postgres Container Logistique</text></g><!--cluster Server Centre logistique--><g id="cluster_Server Centre logistique"><polygon fill="none" points="412,890.5,422,880.5,682,880.5,682,1005.5,672,1015.5,412,1015.5,412,890.5" style="stroke:#181818;stroke-width:1.0;"/><line style="stroke:#181818;stroke-width:1.0;" x1="672" x2="682" y1="890.5" y2="880.5"/><line style="stroke:#181818;stroke-width:1.0;" x1="412" x2="672" y1="890.5" y2="890.5"/><line style="stroke:#181818;stroke-width:1.0;" x1="672" x2="672" y1="890.5" y2="1015.5"/><text fill="#000000" font-family="sans-serif" font-size="14" font-style="italic" lengthAdjust="spacing" textLength="113" x="486.5" y="906.4951">&#171;Ubuntu 24.04&#187;</text><text fill="#000000" font-family="sans-serif" font-size="14" font-weight="bold" lengthAdjust="spacing" textLength="194" x="446" y="922.792">Server Centre logistique</text></g><!--entity dbmere--><g id="elem_dbmere"><path d="M118.5,947 C118.5,937 204,937 204,937 C204,937 289.5,937 289.5,947 L289.5,988.5938 C289.5,998.5938 204,998.5938 204,998.5938 C204,998.5938 118.5,998.5938 118.5,988.5938 L118.5,947 " fill="#F1F1F1" style="stroke:#181818;stroke-width:0.5;"/><path d="M118.5,947 C118.5,957 204,957 204,957 C204,957 289.5,957 289.5,947 " fill="none" style="stroke:#181818;stroke-width:0.5;"/><text fill="#000000" font-family="sans-serif" font-size="14" font-style="italic" lengthAdjust="spacing" textLength="70" x="169" y="973.9951">&#171;SQL DB&#187;</text><text fill="#000000" font-family="sans-serif" font-size="14" lengthAdjust="spacing" textLength="151" x="128.5" y="990.292">PostgreSQL Database</text></g><!--entity mere--><g id="elem_mere"><rect fill="#F1F1F1" height="62.5938" rx="2.5" ry="2.5" style="stroke:#181818;stroke-width:0.5;" width="132" x="182" y="689"/><rect fill="#F1F1F1" height="10" style="stroke:#181818;stroke-width:0.5;" width="15" x="294" y="694"/><rect fill="#F1F1F1" height="2" style="stroke:#181818;stroke-width:0.5;" width="4" x="292" y="696"/><rect fill="#F1F1F1" height="2" style="stroke:#181818;stroke-width:0.5;" width="4" x="292" y="700"/><text fill="#000000" font-family="sans-serif" font-size="14" font-style="italic" lengthAdjust="spacing" textLength="92" x="197" y="721.9951">&#171;application&#187;</text><text fill="#000000" font-family="sans-serif" font-size="14" lengthAdjust="spacing" textLength="36" x="225" y="738.292">mere</text></g><!--entity app1--><g id="elem_app1"><rect fill="#F1F1F1" height="46.2969" rx="2.5" ry="2.5" style="stroke:#181818;stroke-width:0.5;" width="165" x="62.5" y="377"/><rect fill="#F1F1F1" height="10" style="stroke:#181818;stroke-width:0.5;" width="15" x="207.5" y="382"/><rect fill="#F1F1F1" height="2" style="stroke:#181818;stroke-width:0.5;" width="4" x="205.5" y="384"/><rect fill="#F1F1F1" height="2" style="stroke:#181818;stroke-width:0.5;" width="4" x="205.5" y="388"/><text fill="#000000" font-family="sans-serif" font-size="14" lengthAdjust="spacing" textLength="125" x="77.5" y="409.9951">caisse-app-scaled</text></g><!--entity app2--><g id="elem_app2"><rect fill="#F1F1F1" height="46.2969" rx="2.5" ry="2.5" style="stroke:#181818;stroke-width:0.5;" width="165" x="291.5" y="377"/><rect fill="#F1F1F1" height="10" style="stroke:#181818;stroke-width:0.5;" width="15" x="436.5" y="382"/><rect fill="#F1F1F1" height="2" style="stroke:#181818;stroke-width:0.5;" width="4" x="434.5" y="384"/><rect fill="#F1F1F1" height="2" style="stroke:#181818;stroke-width:0.5;" width="4" x="434.5" y="388"/><text fill="#000000" font-family="sans-serif" font-size="14" lengthAdjust="spacing" textLength="125" x="306.5" y="409.9951">caisse-app-scaled</text></g><!--entity app3--><g id="elem_app3"><rect fill="#F1F1F1" height="46.2969" rx="2.5" ry="2.5" style="stroke:#181818;stroke-width:0.5;" width="165" x="521.5" y="377"/><rect fill="#F1F1F1" height="10" style="stroke:#181818;stroke-width:0.5;" width="15" x="666.5" y="382"/><rect fill="#F1F1F1" height="2" style="stroke:#181818;stroke-width:0.5;" width="4" x="664.5" y="384"/><rect fill="#F1F1F1" height="2" style="stroke:#181818;stroke-width:0.5;" width="4" x="664.5" y="388"/><text fill="#000000" font-family="sans-serif" font-size="14" lengthAdjust="spacing" textLength="125" x="536.5" y="409.9951">caisse-app-scaled</text></g><!--entity dbMag--><g id="elem_dbMag"><path d="M288.5,180 C288.5,170 374,170 374,170 C374,170 459.5,170 459.5,180 L459.5,221.5938 C459.5,231.5938 374,231.5938 374,231.5938 C374,231.5938 288.5,231.5938 288.5,221.5938 L288.5,180 " fill="#F1F1F1" style="stroke:#181818;stroke-width:0.5;"/><path d="M288.5,180 C288.5,190 374,190 374,190 C374,190 459.5,190 459.5,180 " fill="none" style="stroke:#181818;stroke-width:0.5;"/><text fill="#000000" font-family="sans-serif" font-size="14" font-style="italic" lengthAdjust="spacing" textLength="70" x="339" y="206.9951">&#171;SQL DB&#187;</text><text fill="#000000" font-family="sans-serif" font-size="14" lengthAdjust="spacing" textLength="151" x="298.5" y="223.292">PostgreSQL Database</text></g><!--entity dbLog--><g id="elem_dbLog"><path d="M442.5,1242 C442.5,1232 528,1232 528,1232 C528,1232 613.5,1232 613.5,1242 L613.5,1283.5938 C613.5,1293.5938 528,1293.5938 528,1293.5938 C528,1293.5938 442.5,1293.5938 442.5,1283.5938 L442.5,1242 " fill="#F1F1F1" style="stroke:#181818;stroke-width:0.5;"/><path d="M442.5,1242 C442.5,1252 528,1252 528,1252 C528,1252 613.5,1252 613.5,1242 " fill="none" style="stroke:#181818;stroke-width:0.5;"/><text fill="#000000" font-family="sans-serif" font-size="14" font-style="italic" lengthAdjust="spacing" textLength="70" x="493" y="1268.9951">&#171;SQL DB&#187;</text><text fill="#000000" font-family="sans-serif" font-size="14" lengthAdjust="spacing" textLength="151" x="452.5" y="1285.292">PostgreSQL Database</text></g><!--entity log--><g id="elem_log"><rect fill="#F1F1F1" height="62.5938" rx="2.5" ry="2.5" style="stroke:#181818;stroke-width:0.5;" width="132" x="437" y="936.5"/><rect fill="#F1F1F1" height="10" style="stroke:#181818;stroke-width:0.5;" width="15" x="549" y="941.5"/><rect fill="#F1F1F1" height="2" style="stroke:#181818;stroke-width:0.5;" width="4" x="547" y="943.5"/><rect fill="#F1F1F1" height="2" style="stroke:#181818;stroke-width:0.5;" width="4" x="547" y="947.5"/><text fill="#000000" font-family="sans-serif" font-size="14" font-style="italic" lengthAdjust="spacing" textLength="92" x="452" y="969.4951">&#171;application&#187;</text><text fill="#000000" font-family="sans-serif" font-size="14" lengthAdjust="spacing" textLength="67" x="464.5" y="985.792">logistique</text></g><!--link dbMag to app1--><g id="link_dbMag_app1"><path codeLine="51" d="M338.72,232.35 C292.3,272.28 211.8,341.53 170.73,376.87 " fill="none" id="dbMag-app1" style="stroke:#181818;stroke-width:1.0;"/><text fill="#000000" font-family="sans-serif" font-size="13" lengthAdjust="spacing" textLength="24" x="275" y="301.0669">TCP</text></g><!--link dbMag to app2--><g id="link_dbMag_app2"><path codeLine="52" d="M374,232.35 C374,272.28 374,341.53 374,376.87 " fill="none" id="dbMag-app2" style="stroke:#181818;stroke-width:1.0;"/><text fill="#000000" font-family="sans-serif" font-size="13" lengthAdjust="spacing" textLength="24" x="375" y="301.0669">TCP</text></g><!--link dbMag to app3--><g id="link_dbMag_app3"><path codeLine="53" d="M409.18,232.13 C455.74,272.01 536.75,341.4 578.1,376.82 " fill="none" id="dbMag-app3" style="stroke:#181818;stroke-width:1.0;"/><text fill="#000000" font-family="sans-serif" font-size="13" lengthAdjust="spacing" textLength="24" x="490" y="301.0669">TCP</text></g><!--link app1 to mere--><g id="link_app1_mere"><path codeLine="55" d="M152.16,423.14 C170.18,478.87 217.44,625 238.1,688.88 " fill="none" id="app1-mere" style="stroke:#181818;stroke-width:1.0;"/><text fill="#000000" font-family="sans-serif" font-size="13" lengthAdjust="spacing" textLength="32" x="187" y="523.0669">HTTP</text></g><!--link app2 to mere--><g id="link_app2_mere"><path codeLine="56" d="M365.24,423.14 C343.2,478.87 285.39,625 260.12,688.88 " fill="none" id="app2-mere" style="stroke:#181818;stroke-width:1.0;"/><text fill="#000000" font-family="sans-serif" font-size="13" lengthAdjust="spacing" textLength="32" x="332" y="523.0669">HTTP</text></g><!--link app3 to mere--><g id="link_app3_mere"><path codeLine="57" d="M581.9,423.09 C548.25,456.48 481.89,521.49 423,574 C377.14,614.89 322.43,659.79 286.53,688.74 " fill="none" id="app3-mere" style="stroke:#181818;stroke-width:1.0;"/><text fill="#000000" font-family="sans-serif" font-size="13" lengthAdjust="spacing" textLength="32" x="492" y="523.0669">HTTP</text></g><!--link mere to dbmere--><g id="link_mere_dbmere"><path codeLine="59" d="M242.52,752.1 C234.04,799.4 217.85,889.72 209.41,936.79 " fill="none" id="mere-dbmere" style="stroke:#181818;stroke-width:1.0;"/><text fill="#000000" font-family="sans-serif" font-size="13" lengthAdjust="spacing" textLength="24" x="238" y="797.0669">TCP</text></g><!--link log to dbLog--><g id="link_log_dbLog"><path codeLine="61" d="M505.6,999.53 C510.42,1055.96 520.66,1175.93 525.44,1231.98 " fill="none" id="log-dbLog" style="stroke:#181818;stroke-width:1.0;"/><text fill="#000000" font-family="sans-serif" font-size="13" lengthAdjust="spacing" textLength="24" x="514" y="1092.0669">TCP</text></g><!--link mere to log--><g id="link_mere_log"><path codeLine="63" d="M278.61,752.25 C293.44,767.06 311.56,785.04 328,801 C377.12,848.69 434.88,903.18 470.21,936.32 " fill="none" id="mere-log" style="stroke:#181818;stroke-width:1.0;"/><text fill="#000000" font-family="sans-serif" font-size="13" lengthAdjust="spacing" textLength="32" x="329" y="797.0669">HTTP</text></g><!--link app1 to log--><g id="link_app1_log"><path codeLine="65" d="M173.64,423.17 C213.07,454.87 284.35,516.6 330,582 C373.3,644.04 459.31,856.5 490.95,936.34 " fill="none" id="app1-log" style="stroke:#181818;stroke-width:1.0;"/><text fill="#000000" font-family="sans-serif" font-size="13" lengthAdjust="spacing" textLength="32" x="325" y="570.0669">HTTP</text></g><!--link app2 to log--><g id="link_app2_log"><path codeLine="66" d="M383.27,423.1 C395.5,452.99 417,508.2 430,557 C467.14,696.37 490.73,867.52 499.33,936.27 " fill="none" id="app2-log" style="stroke:#181818;stroke-width:1.0;"/><text fill="#000000" font-family="sans-serif" font-size="13" lengthAdjust="spacing" textLength="32" x="436" y="570.0669">HTTP</text></g><!--link app3 to log--><g id="link_app3_log"><path codeLine="67" d="M600.04,423.19 C584.36,511.07 526.57,834.91 508.46,936.38 " fill="none" id="app3-log" style="stroke:#181818;stroke-width:1.0;"/><text fill="#000000" font-family="sans-serif" font-size="13" lengthAdjust="spacing" textLength="32" x="577" y="570.0669">HTTP</text></g><!--SRC=[hLJ1Re904BtlLqouqrJmP0o7ug47JMYq7p325ecmIrbeqXZ-lSC28fMYLZcvZtdxtenlID7VOyZ1M66af824Pzo0-VmZmuGxpe41FK86kiBVHOA3j_jMqMUXozwtXSWBiAPFprF7WRgyetXIvM765RXIv4Zah28jfB_dMQ-yUWBCSOkgewtVbh1em8gdpo_4GmN1jdBQlw1a_L_bYVarpxvu1gTTZhZtPP9AmKMkAqaQqpIEVCmZAHo7v3LyEDCh6MDfCz4LXgWYCJvBb_nGnvFHMNPkV5rkaXjJ-HZpe1e5dIO3NluKiuoxjAnRjEpxjEohjDf0jYF_Lp0XmR3XFYQVPEPIFCikBOPBSw1CBMKOgRnThsDonhhkKsvllCz_JFDqvwNcpvUp6K7S-RagF5tzmABIo-4zrNyGc6QzFZFOk5uFimOmky6OvfW4wk_035ut6uzfqW1edu5C7mYilsBjhPLN3TBqMgojZ3LKiu_g9-1Hl8_Plx0V]--></g></svg>