<?xml version="1.0" encoding="us-ascii" standalone="no"?><svg xmlns="http://www.w3.org/2000/svg" xmlns:xlink="http://www.w3.org/1999/xlink" contentStyleType="text/css" height="806px" preserveAspectRatio="none" style="width:950px;height:806px;background:#FFFFFF;" version="1.1" viewBox="0 0 950 806" width="950px" zoomAndPan="magnify"><defs/><g><!--cluster Magasin--><g id="cluster_Magasin"><rect fill="none" height="517" rx="2.5" ry="2.5" style="stroke:#181818;stroke-width:1.0;" width="325" x="106" y="283"/><text fill="#000000" font-family="sans-serif" font-size="14" font-weight="bold" lengthAdjust="spacing" textLength="64" x="236.5" y="297.9951">Magasin</text></g><!--cluster Maison m?re--><g id="cluster_Maison m&#232;re"><rect fill="none" height="482" rx="2.5" ry="2.5" style="stroke:#181818;stroke-width:1.0;" width="380" x="459" y="7"/><text fill="#000000" font-family="sans-serif" font-size="14" font-weight="bold" lengthAdjust="spacing" textLength="101" x="598.5" y="21.9951">Maison m&#232;re</text></g><!--cluster Centre logistique--><g id="cluster_Centre logistique"><rect fill="none" height="101" rx="2.5" ry="2.5" style="stroke:#181818;stroke-width:1.0;" width="257" x="520.5" y="513"/><text fill="#000000" font-family="sans-serif" font-size="14" font-weight="bold" lengthAdjust="spacing" textLength="136" x="581" y="527.9951">Centre logistique</text></g><g id="elem_UC1"><ellipse cx="268.3591" cy="340.1718" fill="#F1F1F1" rx="96.3591" ry="21.6718" style="stroke:#181818;stroke-width:0.5;"/><text fill="#000000" font-family="sans-serif" font-size="14" lengthAdjust="spacing" textLength="156" x="190.3591" y="343.0185">Rechercher un produit</text></g><g id="elem_UC2"><ellipse cx="268.4652" cy="415.193" fill="#F1F1F1" rx="78.9652" ry="18.193" style="stroke:#181818;stroke-width:0.5;"/><text fill="#000000" font-family="sans-serif" font-size="14" lengthAdjust="spacing" textLength="116" x="208.4" y="418.6886">Vente de produit</text></g><g id="elem_UC3"><ellipse cx="268.4455" cy="487.1891" fill="#F1F1F1" rx="81.4455" ry="18.6891" style="stroke:#181818;stroke-width:0.5;"/><text fill="#000000" font-family="sans-serif" font-size="14" lengthAdjust="spacing" textLength="122" x="206.3109" y="490.409">Retour de produit</text></g><g id="elem_UC4"><ellipse cx="268.4091" cy="572.1818" fill="#F1F1F1" rx="146.4091" ry="31.6818" style="stroke:#181818;stroke-width:0.5;"/><text fill="#000000" font-family="sans-serif" font-size="14" lengthAdjust="spacing" textLength="259" x="140.9091" y="575.0285">Consulter l'&#233;tat du stock des produits</text></g><g id="elem_UC5"><ellipse cx="268.6316" cy="663.2263" fill="#F1F1F1" rx="109.1316" ry="24.2263" style="stroke:#181818;stroke-width:0.5;"/><text fill="#000000" font-family="sans-serif" font-size="14" lengthAdjust="spacing" textLength="180" x="180.6316" y="666.073">Consulter les transactions</text></g><g id="elem_UC6"><ellipse cx="268.5353" cy="753.1071" fill="#F1F1F1" rx="143.5353" ry="31.1071" style="stroke:#181818;stroke-width:0.5;"/><text fill="#000000" font-family="sans-serif" font-size="14" lengthAdjust="spacing" textLength="253" x="144.0353" y="755.9537">D&#233;clencher un r&#233;approvisionnement</text></g><g id="elem_UC7"><ellipse cx="648.9876" cy="75.7975" fill="#F1F1F1" rx="156.9876" ry="33.7975" style="stroke:#181818;stroke-width:0.5;"/><text fill="#000000" font-family="sans-serif" font-size="14" lengthAdjust="spacing" textLength="285" x="506.4876" y="78.6442">G&#233;n&#233;rer un rapport consolid&#233; des ventes</text></g><g id="elem_UC8"><ellipse cx="649.1431" cy="182.2286" fill="#F1F1F1" rx="174.1431" ry="37.2286" style="stroke:#181818;stroke-width:0.5;"/><text fill="#000000" font-family="sans-serif" font-size="14" lengthAdjust="spacing" textLength="289" x="504.6431" y="176.9269">Visualiser les performances des magasins</text><text fill="#000000" font-family="sans-serif" font-size="14" lengthAdjust="spacing" textLength="169" x="564.6431" y="193.2237">dans un tableau de bord</text></g><g id="elem_UC9"><ellipse cx="648.9496" cy="277.9899" fill="#F1F1F1" rx="105.4496" ry="23.4899" style="stroke:#181818;stroke-width:0.5;"/><text fill="#000000" font-family="sans-serif" font-size="14" lengthAdjust="spacing" textLength="172" x="564.9496" y="280.8366">Mettre &#224; jour les produits</text></g><g id="elem_UC10"><ellipse cx="649.2013" cy="364.9403" fill="#F1F1F1" rx="130.2013" ry="28.4403" style="stroke:#181818;stroke-width:0.5;"/><text fill="#000000" font-family="sans-serif" font-size="14" lengthAdjust="spacing" textLength="225" x="538.7013" y="367.7869">Offrir une interface web minimale</text></g><g id="elem_UC11"><ellipse cx="648.7599" cy="450.852" fill="#F1F1F1" rx="97.2599" ry="21.852" style="stroke:#181818;stroke-width:0.5;"/><text fill="#000000" font-family="sans-serif" font-size="14" lengthAdjust="spacing" textLength="154" x="573.7599" y="453.6987">Alerter la maison m&#232;re</text></g><g id="elem_UC12"><ellipse cx="648.8717" cy="572.8743" fill="#F1F1F1" rx="112.3717" ry="24.8743" style="stroke:#181818;stroke-width:0.5;"/><text fill="#000000" font-family="sans-serif" font-size="14" lengthAdjust="spacing" textLength="187" x="553.3717" y="575.721">Approvisionner un magasin</text></g><!--entity fc--><g id="elem_fc"><ellipse cx="34" cy="500.5" fill="#F1F1F1" rx="8" ry="8" style="stroke:#181818;stroke-width:0.5;"/><path d="M34,508.5 L34,535.5 M21,516.5 L47,516.5 M34,535.5 L21,550.5 M34,535.5 L47,550.5 " fill="none" style="stroke:#181818;stroke-width:0.5;"/><text fill="#000000" font-family="sans-serif" font-size="14" lengthAdjust="spacing" textLength="56" x="6" y="564.9951">Commis</text></g><!--entity fc2--><g id="elem_fc2"><ellipse cx="913" cy="248.5" fill="#F1F1F1" rx="8" ry="8" style="stroke:#181818;stroke-width:0.5;"/><path d="M913,256.5 L913,283.5 M900,264.5 L926,264.5 M913,283.5 L900,298.5 M913,283.5 L926,298.5 " fill="none" style="stroke:#181818;stroke-width:0.5;"/><text fill="#000000" font-family="sans-serif" font-size="14" lengthAdjust="spacing" textLength="60" x="883" y="312.9951">Manager</text></g><!--link fc to UC1--><g id="link_fc_UC1"><path d="M40.83,491.96 C48.15,457.4 64.13,407.58 98,379 C119.35,360.99 141.5214,352.1009 168.6414,346.5609 " fill="none" id="fc-to-UC1" style="stroke:#181818;stroke-width:1.0;"/><polygon fill="#181818" points="174.52,345.36,164.9015,343.2422,169.6212,346.3607,166.5027,351.0804,174.52,345.36" style="stroke:#181818;stroke-width:1.0;"/></g><!--link fc to UC2--><g id="link_fc_UC2"><path d="M57.37,491.71 C67.9,476.86 81.73,461.05 98,451 C126.02,433.69 155.1592,425.5083 186.1092,420.7683 " fill="none" id="fc-to-UC2" style="stroke:#181818;stroke-width:1.0;"/><polygon fill="#181818" points="192.04,419.86,182.5382,417.2686,187.0976,420.6169,183.7493,425.1764,192.04,419.86" style="stroke:#181818;stroke-width:1.0;"/></g><!--link fc to UC3--><g id="link_fc_UC3"><path d="M62.13,524.98 C96.86,518.56 152.2401,508.3214 198.8401,499.7014 " fill="none" id="fc-to-UC3" style="stroke:#181818;stroke-width:1.0;"/><polygon fill="#181818" points="204.74,498.61,195.1626,496.3138,199.8234,499.5195,196.6177,504.1803,204.74,498.61" style="stroke:#181818;stroke-width:1.0;"/></g><!--link fc to UC4--><g id="link_fc_UC4"><path d="M62.13,534.9 C85.48,539.12 114.9355,544.4437 149.7655,550.7337 " fill="none" id="fc-to-UC4" style="stroke:#181818;stroke-width:1.0;"/><polygon fill="#181818" points="155.67,551.8,147.5241,546.2642,150.7496,550.9114,146.1024,554.1369,155.67,551.8" style="stroke:#181818;stroke-width:1.0;"/></g><!--link fc to UC5--><g id="link_fc_UC5"><path d="M53.12,568.21 C63.74,586.74 78.86,607.79 98,621 C119.71,635.98 140.4096,644.2135 165.9696,650.4235 " fill="none" id="fc-to-UC5" style="stroke:#181818;stroke-width:1.0;"/><polygon fill="#181818" points="171.8,651.84,163.9988,645.8283,166.9413,650.6596,162.1101,653.6021,171.8,651.84" style="stroke:#181818;stroke-width:1.0;"/></g><!--link fc to UC6--><g id="link_fc_UC6"><path d="M38.66,568.29 C44.49,607.97 59.51,669.1 98,705 C112.65,718.66 125.272,726.4002 144.322,733.4402 " fill="none" id="fc-to-UC6" style="stroke:#181818;stroke-width:1.0;"/><polygon fill="#181818" points="149.95,735.52,142.8946,728.6482,145.26,733.7868,140.1215,736.1522,149.95,735.52" style="stroke:#181818;stroke-width:1.0;"/></g><!--link UC2 to UC11--><g id="link_UC2_UC11"><path d="M341.58,421.86 C403.36,427.73 486.6169,435.652 552.8669,441.952 " fill="none" id="UC2-to-UC11" style="stroke:#181818;stroke-width:1.0;"/><polygon fill="#181818" points="558.84,442.52,550.2591,437.686,553.8625,442.0467,549.5018,445.65,558.84,442.52" style="stroke:#181818;stroke-width:1.0;"/></g><!--link UC3 to UC11--><g id="link_UC3_UC11"><path d="M343.83,479.93 C405.51,474.06 487.4269,466.2676 552.8869,460.0476 " fill="none" id="UC3-to-UC11" style="stroke:#181818;stroke-width:1.0;"/><polygon fill="#181818" points="558.86,459.48,549.522,456.3493,553.8824,459.953,550.2787,464.3134,558.86,459.48" style="stroke:#181818;stroke-width:1.0;"/></g><!--reverse link UC7 to fc2--><g id="link_UC7_fc2"><path d="M790.1393,95.1456 C812.8293,102.7456 829.1,111.65 847,127 C880.69,155.89 897.44,205.4 905.39,239.81 " fill="none" id="UC7-backto-fc2" style="stroke:#181818;stroke-width:1.0;"/><polygon fill="#181818" points="784.45,93.24,791.7136,99.8913,789.1911,94.828,794.2544,92.3056,784.45,93.24" style="stroke:#181818;stroke-width:1.0;"/></g><!--reverse link UC8 to fc2--><g id="link_UC8_fc2"><path d="M774.1318,210.704 C800.5318,218.374 822.25,226.02 847,237 C859.32,242.46 872.03,250 882.92,257.12 " fill="none" id="UC8-backto-fc2" style="stroke:#181818;stroke-width:1.0;"/><polygon fill="#181818" points="768.37,209.03,775.8967,215.3821,773.1715,210.425,778.1286,207.6998,768.37,209.03" style="stroke:#181818;stroke-width:1.0;"/></g><!--reverse link UC9 to fc2--><g id="link_UC9_fc2"><path d="M760.68,278 C807,278 851.91,278 882.91,278 " fill="none" id="UC9-backto-fc2" style="stroke:#181818;stroke-width:1.0;"/><polygon fill="#181818" points="754.68,278,763.68,282,759.68,278,763.68,274,754.68,278" style="stroke:#181818;stroke-width:1.0;"/></g><!--reverse link UC10 to fc2--><g id="link_UC10_fc2"><path d="M758.6132,346.4708 C789.5832,339.4908 817.35,331.4 847,319 C859.31,313.85 871.92,306.47 882.72,299.39 " fill="none" id="UC10-backto-fc2" style="stroke:#181818;stroke-width:1.0;"/><polygon fill="#181818" points="752.76,347.79,762.4192,349.7133,757.6377,346.6907,760.6603,341.9091,752.76,347.79" style="stroke:#181818;stroke-width:1.0;"/></g><!--reverse link UC12 to fc2--><g id="link_UC12_fc2"><path d="M736.2015,553.9751 C776.2115,541.5851 816.64,522.7 847,489 C890.87,440.3 905.13,362.52 909.77,316.23 " fill="none" id="UC12-backto-fc2" style="stroke:#181818;stroke-width:1.0;"/><polygon fill="#181818" points="730.47,555.75,740.2505,556.9087,735.2462,554.2709,737.884,549.2667,730.47,555.75" style="stroke:#181818;stroke-width:1.0;"/></g><!--SRC=[TLBBQkGm4BpxAvgvx6aWuyaJGY3Cmfw6G63tb4kFt7QKoD9iIqeEOVzbZ_5t-CVISkondI47GRUeQdLLoL0P83XWNJq6A3IJ2jhP35Lm38kDgslj5u0UIZLSRj5YHTpVvbdYeAqCmHOhzDh2MmOGFIdq18jxKe_4wK2qi6TNH1qwyk_DQWhyGpOG5FG5ay-71HVv6BIUWc3Zh8yco8lcHzi456KHV73gMPX-eFgUU_eTLw21qNhiF1dWPpFupxPHXkmWZzi6zpB_HNkXMAf5Kyyxp_vbfOBbygOJVYZpiLoFvUbOdetbUJPnMuBGtbcestUcnTpqNsrZsuRxfMGbnm6KY7165stJsV2I_1vKNSoIq3wYqRutOKzSEgxHAcaIi_xCsJ_OGkn9JmJS6SAOWjavBlgXbpEhjXG24xJ_uIbbQ8wJk9hXxygITH90e6LJBb4HlD8EQcrrZOQ6JtGoezqQuYu-b3sd1ds2LnA3c3xai99cFJRINS3rSjbzR14mgQyczUhaq4m3sOYZej2uIlkW_yQlgTnElqONJUya3DlbibsQdn_cVm00]--></g></svg>