<?xml version="1.0" encoding="UTF-8" standalone="no"?><svg xmlns="http://www.w3.org/2000/svg" xmlns:xlink="http://www.w3.org/1999/xlink" contentScriptType="application/ecmascript" contentStyleType="text/css" height="936px" preserveAspectRatio="none" style="width:944px;height:936px;" version="1.1" viewBox="0 0 944 936" width="944px" zoomAndPan="magnify"><defs><filter height="300%" id="f6ixmmp1nrtsr" width="300%" x="-1" y="-1"><feGaussianBlur result="blurOut" stdDeviation="2.0"/><feColorMatrix in="blurOut" result="blurOut2" type="matrix" values="0 0 0 0 0 0 0 0 0 0 0 0 0 0 0 0 0 0 .4 0"/><feOffset dx="4.0" dy="4.0" in="blurOut2" result="blurOut3"/><feBlend in="SourceGraphic" in2="blurOut3" mode="normal"/></filter></defs><g><!--MD5=[6c4d4a6b384a8ef4623a4033c4bb67f2]
cluster Magasin--><rect fill="#FFFFFF" filter="url(#f6ixmmp1nrtsr)" height="517" style="stroke:#000000;stroke-width:1.5;" width="322.22" x="106" y="7"/><text fill="#000000" font-family="sans-serif" font-size="14" font-weight="bold" lengthAdjust="spacing" textLength="60" x="237.11" y="22.5352">Magasin</text><!--MD5=[d5380278ae3e214eb1083f9f44770ade]
cluster Maison mère--><rect fill="#FFFFFF" filter="url(#f6ixmmp1nrtsr)" height="568" style="stroke:#000000;stroke-width:1.5;" width="377.7" x="456.22" y="231"/><text fill="#000000" font-family="sans-serif" font-size="14" font-weight="bold" lengthAdjust="spacing" textLength="93" x="598.57" y="246.5352">Maison mère</text><!--MD5=[4968aac68595d1381d82860a3e9bd470]
cluster Centre logistique--><rect fill="#FFFFFF" filter="url(#f6ixmmp1nrtsr)" height="101" style="stroke:#000000;stroke-width:1.5;" width="259.88" x="515.13" y="823"/><text fill="#000000" font-family="sans-serif" font-size="14" font-weight="bold" lengthAdjust="spacing" textLength="125" x="582.57" y="838.5352">Centre logistique</text><ellipse cx="267.1123" cy="486.0045" fill="#FEFECE" filter="url(#f6ixmmp1nrtsr)" rx="95.6723" ry="21.5345" style="stroke:#A80036;stroke-width:1.5;"/><text fill="#000000" font-family="sans-serif" font-size="14" lengthAdjust="spacing" textLength="154" x="190.1123" y="489.2955">Rechercher un produit</text><ellipse cx="267.106" cy="411.0012" fill="#FEFECE" filter="url(#f6ixmmp1nrtsr)" rx="78.706" ry="18.1412" style="stroke:#A80036;stroke-width:1.5;"/><text fill="#000000" font-family="sans-serif" font-size="14" lengthAdjust="spacing" textLength="115" x="209.606" y="414.2922">Vente de produit</text><ellipse cx="267.1148" cy="339.003" fill="#FEFECE" filter="url(#f6ixmmp1nrtsr)" rx="81.6648" ry="18.733" style="stroke:#A80036;stroke-width:1.5;"/><text fill="#000000" font-family="sans-serif" font-size="14" lengthAdjust="spacing" textLength="122" x="206.1148" y="342.294">Retour de produit</text><ellipse cx="267.1096" cy="254.0019" fill="#FEFECE" filter="url(#f6ixmmp1nrtsr)" rx="145.1096" ry="31.4219" style="stroke:#A80036;stroke-width:1.5;"/><text fill="#000000" font-family="sans-serif" font-size="14" lengthAdjust="spacing" textLength="256" x="141.1096" y="257.2929">Consulter l'état du stock des produits</text><ellipse cx="267.1052" cy="162.999" fill="#FEFECE" filter="url(#f6ixmmp1nrtsr)" rx="108.3952" ry="24.079" style="stroke:#A80036;stroke-width:1.5;"/><text fill="#000000" font-family="sans-serif" font-size="14" lengthAdjust="spacing" textLength="178" x="180.1052" y="166.2901">Consulter les transactions</text><ellipse cx="267.1138" cy="73.0028" fill="#FEFECE" filter="url(#f6ixmmp1nrtsr)" rx="141.7638" ry="30.7528" style="stroke:#A80036;stroke-width:1.5;"/><text fill="#000000" font-family="sans-serif" font-size="14" lengthAdjust="spacing" textLength="249" x="144.6138" y="76.2938">Déclencher un réapprovisionnement</text><ellipse cx="645.0663" cy="749.9953" fill="#FEFECE" filter="url(#f6ixmmp1nrtsr)" rx="154.2263" ry="33.2453" style="stroke:#A80036;stroke-width:1.5;"/><text fill="#000000" font-family="sans-serif" font-size="14" lengthAdjust="spacing" textLength="279" x="505.5663" y="753.2863">Générer un rapport consolidé des ventes</text><ellipse cx="645.0694" cy="644.9999" fill="#FEFECE" filter="url(#f6ixmmp1nrtsr)" rx="172.8494" ry="36.9699" style="stroke:#A80036;stroke-width:1.5;"/><text fill="#000000" font-family="sans-serif" font-size="14" lengthAdjust="spacing" textLength="285" x="502.5694" y="640.0468">Visualiser les performances des magasins</text><text fill="#000000" font-family="sans-serif" font-size="14" lengthAdjust="spacing" textLength="168" x="561.0694" y="656.535">dans un tableau de bord</text><ellipse cx="645.069" cy="548.9998" fill="#FEFECE" filter="url(#f6ixmmp1nrtsr)" rx="106.099" ry="23.6198" style="stroke:#A80036;stroke-width:1.5;"/><text fill="#000000" font-family="sans-serif" font-size="14" lengthAdjust="spacing" textLength="173" x="560.569" y="552.2908">Mettre à jour les produits</text><ellipse cx="645.0733" cy="461.0047" fill="#FEFECE" filter="url(#f6ixmmp1nrtsr)" rx="132.7233" ry="28.9447" style="stroke:#A80036;stroke-width:1.5;"/><text fill="#000000" font-family="sans-serif" font-size="14" lengthAdjust="spacing" textLength="230" x="532.0733" y="464.2957">Offrir une interface web minimale</text><ellipse cx="645.0685" cy="375.0037" fill="#FEFECE" filter="url(#f6ixmmp1nrtsr)" rx="98.3685" ry="22.0737" style="stroke:#A80036;stroke-width:1.5;"/><text fill="#000000" font-family="sans-serif" font-size="14" lengthAdjust="spacing" textLength="156" x="569.0685" y="378.2947">Alerter la maison mère</text><ellipse cx="645.0654" cy="292.0031" fill="#FEFECE" filter="url(#f6ixmmp1nrtsr)" rx="117.6654" ry="25.9331" style="stroke:#A80036;stroke-width:1.5;"/><text fill="#000000" font-family="sans-serif" font-size="14" lengthAdjust="spacing" textLength="202" x="544.0654" y="295.2941">Enregistrer un nouveau client</text><ellipse cx="645.0721" cy="882.9984" fill="#FEFECE" filter="url(#f6ixmmp1nrtsr)" rx="113.9421" ry="25.1884" style="stroke:#A80036;stroke-width:1.5;"/><text fill="#000000" font-family="sans-serif" font-size="14" lengthAdjust="spacing" textLength="190" x="548.0721" y="886.2894">Approvisionner un magasin</text><!--MD5=[db756db308cf6ff8cfeeb51570136b75]
entity fc--><ellipse cx="34" cy="265.76" fill="#FEFECE" filter="url(#f6ixmmp1nrtsr)" rx="8" ry="8" style="stroke:#A80036;stroke-width:1.5;"/><path d="M34,273.76 L34,300.76 M21,281.76 L47,281.76 M34,300.76 L21,315.76 M34,300.76 L47,315.76 " fill="none" filter="url(#f6ixmmp1nrtsr)" style="stroke:#A80036;stroke-width:1.5;"/><text fill="#000000" font-family="sans-serif" font-size="14" lengthAdjust="spacing" textLength="56" x="6" y="334.7952">Commis</text><!--MD5=[4dfca6755a233142690f3f6f464b553c]
entity fc2--><ellipse cx="907.92" cy="565.76" fill="#FEFECE" filter="url(#f6ixmmp1nrtsr)" rx="8" ry="8" style="stroke:#A80036;stroke-width:1.5;"/><path d="M907.92,573.76 L907.92,600.76 M894.92,581.76 L920.92,581.76 M907.92,600.76 L894.92,615.76 M907.92,600.76 L920.92,615.76 " fill="none" filter="url(#f6ixmmp1nrtsr)" style="stroke:#A80036;stroke-width:1.5;"/><text fill="#000000" font-family="sans-serif" font-size="14" lengthAdjust="spacing" textLength="60" x="877.92" y="634.7952">Manager</text><!--MD5=[e9923d9fd4075a960db40f09654be8d8]
link fc to UC1--><path d="M41.65,338.13 C49.33,372.26 65.39,419.51 98,447 C117.64,463.56 142.98,473.4 168,479.17 " fill="none" id="fc-to-UC1" style="stroke:#A80036;stroke-width:1.0;"/><polygon fill="#A80036" points="172.87,480.23,164.9195,474.4171,167.9831,479.1726,163.2276,482.2362,172.87,480.23" style="stroke:#A80036;stroke-width:1.0;"/><!--MD5=[4af9e8427d276ef4a9c3c7d33d3ba91c]
link fc to UC2--><path d="M59.85,338.03 C70.06,351.71 83.02,365.79 98,375 C123.99,390.98 156.04,399.94 185.15,404.93 " fill="none" id="fc-to-UC2" style="stroke:#A80036;stroke-width:1.0;"/><polygon fill="#A80036" points="189.82,405.7,181.5899,400.2903,184.8865,404.8873,180.2895,408.1839,189.82,405.7" style="stroke:#A80036;stroke-width:1.0;"/><!--MD5=[71fba4d683dd6a260b46bc412e62a629]
link fc to UC3--><path d="M62.42,301.98 C95.08,307.92 150.87,318.06 195.81,326.22 " fill="none" id="fc-to-UC3" style="stroke:#A80036;stroke-width:1.0;"/><polygon fill="#A80036" points="200.58,327.09,192.4478,321.5341,195.6618,326.1893,191.0067,329.4033,200.58,327.09" style="stroke:#A80036;stroke-width:1.0;"/><!--MD5=[671315809142cbf8f95afb4988884e94]
link fc to UC4--><path d="M62.42,291.9 C84.48,287.79 117.1,281.73 149.79,275.64 " fill="none" id="fc-to-UC4" style="stroke:#A80036;stroke-width:1.0;"/><polygon fill="#A80036" points="154.41,274.78,144.8302,272.4937,149.4943,275.6945,146.2935,280.3587,154.41,274.78" style="stroke:#A80036;stroke-width:1.0;"/><!--MD5=[579da7dd7a8d5bb55d216568f69ffe38]
link fc to UC5--><path d="M54.38,256.05 C64.9,237.91 79.56,217.82 98,205 C117.61,191.36 141.23,182.15 164.48,175.92 " fill="none" id="fc-to-UC5" style="stroke:#A80036;stroke-width:1.0;"/><polygon fill="#A80036" points="169.24,174.69,159.5282,173.0528,164.3969,175.9329,161.5168,180.8017,169.24,174.69" style="stroke:#A80036;stroke-width:1.0;"/><!--MD5=[f04ef6138f736af0e2ee35ff4576a85b]
link fc to UC6--><path d="M39,255.91 C45.06,216 60.22,156.38 98,121 C111.14,108.7 127.21,99.52 144.15,92.68 " fill="none" id="fc-to-UC6" style="stroke:#A80036;stroke-width:1.0;"/><polygon fill="#A80036" points="148.51,90.99,138.6737,90.4935,143.8444,92.7878,141.5501,97.9585,148.51,90.99" style="stroke:#A80036;stroke-width:1.0;"/><!--MD5=[8b2436ef0abd297fe8b5360d4670bf27]
link UC2 to UC11--><path d="M340.6,404.06 C399.51,398.42 483.13,390.41 547.68,384.23 " fill="none" id="UC2-to-UC11" style="stroke:#A80036;stroke-width:1.0;"/><polygon fill="#A80036" points="552.36,383.78,543.0226,380.6475,547.3823,384.252,543.7778,388.6118,552.36,383.78" style="stroke:#A80036;stroke-width:1.0;"/><!--MD5=[d36d9d1fce2da1baa3a527d2c2e4ea07]
link UC3 to UC11--><path d="M343.29,346.2 C401.92,351.81 483.78,359.65 547.3,365.73 " fill="none" id="UC3-to-UC11" style="stroke:#A80036;stroke-width:1.0;"/><polygon fill="#A80036" points="552.27,366.21,543.6865,361.3805,547.2922,365.7393,542.9334,369.345,552.27,366.21" style="stroke:#A80036;stroke-width:1.0;"/><!--MD5=[667510340d64e949fa2edca42d32ad6e]
reverse link UC7 to fc2--><path d="M780.18,729.45 C802.11,722.17 823.61,712.32 841.92,699 C862.97,683.68 878.88,659.27 889.69,638.17 " fill="none" id="UC7-backto-fc2" style="stroke:#A80036;stroke-width:1.0;"/><polygon fill="#A80036" points="775.43,730.97,785.2222,732.025,780.1903,729.4404,782.7749,724.4085,775.43,730.97" style="stroke:#A80036;stroke-width:1.0;"/><!--MD5=[0cb6eb7c04e1c55f0dfbf466060e1d99]
reverse link UC8 to fc2--><path d="M783.44,619.72 C819.01,613.18 853.9,606.76 877.46,602.42 " fill="none" id="UC8-backto-fc2" style="stroke:#A80036;stroke-width:1.0;"/><polygon fill="#A80036" points="778.75,620.59,788.3233,622.9033,783.6682,619.6893,786.8822,615.0341,778.75,620.59" style="stroke:#A80036;stroke-width:1.0;"/><!--MD5=[3c2f66ffd1cf220c360832e88c21fe2d]
reverse link UC9 to fc2--><path d="M734.23,565.22 C784.09,574.4 843.18,585.27 877.71,591.63 " fill="none" id="UC9-backto-fc2" style="stroke:#A80036;stroke-width:1.0;"/><polygon fill="#A80036" points="729.38,564.33,737.515,569.8817,734.2987,565.2282,738.9521,562.0118,729.38,564.33" style="stroke:#A80036;stroke-width:1.0;"/><!--MD5=[a683c34490072e818423362f74e33e36]
reverse link UC10 to fc2--><path d="M768.62,476.46 C794.26,483.41 820.1,493.46 841.92,508 C859.91,519.99 874.68,538.73 885.57,555.94 " fill="none" id="UC10-backto-fc2" style="stroke:#A80036;stroke-width:1.0;"/><polygon fill="#A80036" points="763.93,475.23,771.6193,481.3843,768.7661,476.4997,773.6507,473.6465,763.93,475.23" style="stroke:#A80036;stroke-width:1.0;"/><!--MD5=[22994e173c2bbb39349cc4a918c1b7f6]
reverse link UC13 to fc2--><path d="M768.01,297.44 C795.23,304.04 821.91,315.53 841.92,335 C873.15,365.4 893.31,489.93 902,555.76 " fill="none" id="UC13-backto-fc2" style="stroke:#A80036;stroke-width:1.0;"/><polygon fill="#A80036" points="763.3,296.36,771.1815,302.2661,768.1741,297.4749,772.9653,294.4675,763.3,296.36" style="stroke:#A80036;stroke-width:1.0;"/><!--MD5=[37c21d034a30eed5f37b839fc2649a7d]
reverse link UC12 to fc2--><path d="M732.94,863.21 C770.95,850.56 813.31,830.42 841.92,799 C882.96,753.91 898.1,682.7 903.68,637.98 " fill="none" id="UC12-backto-fc2" style="stroke:#A80036;stroke-width:1.0;"/><polygon fill="#A80036" points="728.32,864.71,738.115,865.7383,733.0761,863.1675,735.647,858.1286,728.32,864.71" style="stroke:#A80036;stroke-width:1.0;"/><!--MD5=[6b5c24c57ea11ede9038794f598f36b2]
@startuml
left to right direction
actor "Commis" as fc
actor "Manager" as fc2
rectangle Magasin {
  usecase "Rechercher un produit" as UC1
  usecase "Vente de produit" as UC2
  usecase "Retour de produit" as UC3
  usecase " Consulter l'état du stock des produits" as UC4
  usecase " Consulter les transactions" as UC5
  usecase " Déclencher un réapprovisionnement" as UC6
}
fc - -> UC1
fc - -> UC2
fc - -> UC3
fc - -> UC4
fc - -> UC5
fc - -> UC6

rectangle "Maison mère" {
  usecase "Générer un rapport consolidé des ventes" as UC7
  usecase "Visualiser les performances des magasins\ndans un tableau de bord" as UC8
  usecase " Mettre à jour les produits" as UC9
  usecase " Offrir une interface web minimale" as UC10
  usecase " Alerter la maison mère" as UC11
  usecase "Enregistrer un nouveau client" as UC13
}
UC2 - -> UC11
UC3 - -> UC11

UC7 <- - fc2
UC8 <- - fc2
UC9 <- - fc2
UC10 <- - fc2
UC13 <- - fc2

rectangle "Centre logistique" {
  usecase "Approvisionner un magasin " as UC12
}

UC12 <- - fc2

@enduml

PlantUML version 1.2021.00(Sun Jan 10 05:25:05 EST 2021)
(MIT source distribution)
Java Runtime: OpenJDK Runtime Environment
JVM: OpenJDK 64-Bit Server VM
Default Encoding: UTF-8
Language: fr
Country: CA
--></g></svg>